<svg xmlns="http://www.w3.org/2000/svg" width="2000" height="857" viewBox="0 0 2000 857" version="1.1">
	<path d="M 1256.748 104.163 C 1253.881 105.210, 1252.300 108.732, 1253.404 111.610 C 1253.833 112.728, 1254.897 113.095, 1256.870 112.806 L 1259.716 112.388 1260.376 130.444 C 1262.507 188.820, 1263.108 269.471, 1262.454 409.283 C 1261.782 553.027, 1261.832 560.157, 1263.529 562.033 C 1265.140 563.813, 1265.152 564, 1263.655 564 C 1262.133 564, 1262 568.864, 1262 624.408 C 1262 674.077, 1261.715 687.011, 1260.395 697.158 C 1258.340 712.955, 1258.908 717.897, 1263.555 724.645 C 1265.535 727.519, 1268.214 730.565, 1269.507 731.413 C 1272.614 733.448, 1284.428 736.681, 1291.696 737.484 C 1294.888 737.837, 1298.850 738.289, 1300.500 738.490 C 1302.150 738.690, 1310.925 739.156, 1320 739.525 L 1336.500 740.197 1340.296 736.259 L 1344.092 732.322 1343.052 639.911 C 1342.479 589.085, 1341.517 534.900, 1340.913 519.500 C 1339.166 474.971, 1340.243 467.398, 1349.689 457.808 C 1355.179 452.234, 1356.344 452.061, 1372 454.480 C 1384.569 456.422, 1388.779 457.705, 1389.396 459.781 C 1390.383 463.103, 1392.940 478.610, 1394.213 489 C 1395.939 503.084, 1395.876 555.730, 1394.048 627.500 C 1393.249 658.850, 1392.585 690.800, 1392.572 698.500 C 1392.549 712.134, 1392.634 712.696, 1395.813 720 C 1397.608 724.125, 1399.445 728.173, 1399.894 728.995 C 1401.599 732.113, 1433.798 735.560, 1453.510 734.733 C 1465 734.251, 1467.569 733.805, 1474.701 731.055 C 1479.165 729.334, 1483.356 727.277, 1484.013 726.484 C 1484.795 725.542, 1485.741 714.906, 1486.743 695.771 C 1488.649 659.372, 1487.854 645.331, 1482.902 628 C 1479.018 614.403, 1478.596 605.196, 1481.232 591.500 C 1484.530 574.362, 1486.016 551.786, 1487.025 503.500 C 1488.414 437.041, 1486.968 389.808, 1482.479 355.042 C 1480.683 341.126, 1480.598 327.090, 1482.173 304.156 C 1483.100 290.661, 1483.096 283.670, 1482.155 272.656 C 1481.127 260.628, 1481.174 257.010, 1482.472 248.587 C 1484.254 237.028, 1484.395 217.081, 1482.985 176.038 C 1482.068 149.345, 1482.136 146.779, 1484.077 134.758 C 1487.023 116.507, 1485.401 111.309, 1475.198 106.298 C 1469.985 103.738, 1468.636 103.515, 1459.356 103.680 C 1453.777 103.778, 1446.607 104.341, 1443.423 104.930 C 1434.653 106.551, 1418.345 106.342, 1417.677 104.600 C 1417.355 103.762, 1415.707 103.200, 1413.573 103.200 C 1411.611 103.200, 1410.256 103.605, 1410.562 104.100 C 1410.868 104.595, 1412.306 105, 1413.759 105 C 1415.407 105, 1416.043 105.351, 1415.450 105.934 C 1414.928 106.448, 1410.106 106.989, 1404.734 107.135 L 1394.969 107.402 1394.053 110.951 C 1390.247 125.698, 1389.410 189.865, 1391.977 270 C 1393.731 324.772, 1393.796 341.918, 1392.293 353.500 C 1390.296 368.879, 1390.843 368.249, 1377.733 370.271 C 1371.555 371.223, 1363.272 372.002, 1359.327 372.001 C 1353.043 372, 1351.766 371.674, 1349.033 369.374 C 1347.317 367.930, 1345.062 365.082, 1344.023 363.045 L 1342.134 359.341 1333.817 359.751 C 1321.232 360.371, 1319.079 360.335, 1311.581 359.381 C 1307.776 358.896, 1304.483 357.958, 1304.263 357.297 C 1303.960 356.382, 1308.499 356.142, 1323.182 356.297 C 1339.939 356.473, 1342.444 356.301, 1342.075 355 C 1341.841 354.175, 1341.841 336.400, 1342.075 315.500 C 1342.874 244.072, 1342.523 190.891, 1341.092 166.500 C 1339.785 144.209, 1339.809 141.966, 1341.431 135 C 1343.708 125.220, 1344.374 117.229, 1343.271 112.945 C 1342.173 108.684, 1336.827 105.852, 1326.513 104.068 C 1316.726 102.375, 1269.483 103.602, 1266.250 105.633 C 1264.192 106.925, 1264 106.873, 1264 105.023 C 1264 102.755, 1261.436 102.451, 1256.748 104.163 M 172.500 105.945 C 166.606 108.358, 164.720 113.681, 156.540 151 C 154.034 162.435, 147.029 199.966, 146.968 202.285 C 146.951 202.953, 146.271 202.620, 145.458 201.545 C 144.116 199.770, 143.837 199.734, 142.411 201.161 C 140.985 202.587, 141.065 202.906, 143.283 204.651 C 145.623 206.491, 145.684 206.831, 144.737 212.709 C 143.862 218.143, 143.448 218.920, 141.124 219.491 C 137.829 220.300, 134 222.736, 134 224.023 C 134 224.560, 136.034 225, 138.519 225 C 142.687 225, 142.999 225.175, 142.538 227.250 C 142.263 228.488, 140.697 236.700, 139.058 245.500 C 137.420 254.300, 134.907 265.100, 133.474 269.500 C 132.042 273.900, 129.856 281.325, 128.616 286 C 120.730 315.738, 113.369 340, 112.233 340 C 111.411 340, 111.163 340.801, 111.531 342.267 C 112.115 344.594, 95.732 410.842, 85.013 449.500 C 81.810 461.050, 78.653 473.875, 77.996 478 C 75.734 492.217, 71.836 510.548, 67.365 528 C 64.899 537.625, 62.434 549.100, 61.887 553.500 C 59.526 572.505, 51.800 607.399, 41.959 643.500 C 27.280 697.351, 23.790 714.607, 25.990 722.463 C 27.492 727.830, 32.159 732.395, 37.723 733.940 C 42.819 735.355, 62.592 735.277, 73.026 733.801 C 82.391 732.476, 88.134 732.378, 92.155 733.473 C 93.743 733.906, 96.975 733.568, 100.194 732.632 L 105.577 731.067 107.873 711.284 C 110.731 686.657, 112.791 675.657, 119.143 651.129 C 123.015 636.178, 125.113 630.027, 128.340 624.172 C 132.131 617.291, 132.891 616.494, 136.510 615.605 C 138.705 615.065, 152.425 614.597, 167 614.563 C 188.736 614.513, 194.912 614.816, 201.357 616.251 C 211.153 618.432, 217.783 618.471, 223.011 616.379 C 228.329 614.251, 236.107 614.914, 242.339 618.027 C 244.983 619.347, 247.312 620.695, 247.514 621.022 C 247.716 621.349, 249.697 631.371, 251.916 643.293 C 255.914 664.774, 257.792 670.590, 263.214 678.274 C 265.382 681.348, 266.429 687.848, 267.944 707.642 C 268.924 720.442, 270.904 729.160, 273.431 731.803 C 276.344 734.849, 318.472 737.496, 340.500 736.016 C 353.460 735.145, 354.983 734.828, 361 731.745 C 367.261 728.537, 367.490 728.287, 367.216 724.957 C 366.812 720.046, 357.702 684.255, 354.069 673.308 C 350.800 663.457, 349.024 649.113, 349.009 632.439 C 349.002 625.957, 348.149 619.694, 346.012 610.439 C 344.059 601.982, 343.020 594.776, 343.012 589.636 L 343 581.772 338.067 576.077 L 333.133 570.382 331.996 555.441 C 330.776 539.408, 330.522 538.466, 322.990 521.978 C 317.065 509.008, 312.365 491.644, 307.568 465 C 305.637 454.275, 303.147 442.125, 302.035 438 C 300.923 433.875, 292.149 397.036, 282.538 356.135 C 268.325 295.654, 264.868 279.505, 264.021 269.635 C 263.448 262.961, 262.720 254.575, 262.404 251 C 261.787 244.048, 259.258 235.376, 252.485 217 C 248.616 206.501, 248.183 204.369, 247.519 192.500 C 246.460 173.582, 245.774 170.617, 239.155 156.388 C 235.384 148.282, 231.033 136.358, 227.428 124.250 L 221.695 105 215.782 105 C 212.530 105, 209.057 105.434, 208.066 105.965 C 205.075 107.565, 196.811 107.757, 191.500 106.349 C 185.986 104.887, 175.623 104.667, 172.500 105.945 M 1027.891 106.498 C 1024.806 108.175, 1021.979 114.310, 1019.112 125.550 C 1016.389 136.231, 1009.838 167.823, 1006.475 186.500 C 1004.989 194.750, 1003.575 201.712, 1003.333 201.971 C 1003.090 202.230, 1002.482 201.780, 1001.982 200.971 C 1001.191 199.692, 1000.860 199.713, 999.441 201.131 C 997.932 202.640, 997.988 202.897, 1000.185 204.555 C 1002.444 206.258, 1002.514 206.654, 1001.625 212.604 C 1000.794 218.167, 1000.402 218.932, 998.095 219.498 C 994.882 220.287, 991 222.733, 991 223.968 C 991 224.475, 992.948 225.028, 995.328 225.195 L 999.657 225.500 996.417 243 C 994.635 252.625, 991.622 265.450, 989.722 271.500 C 987.821 277.550, 984.798 287.900, 983.005 294.500 C 981.211 301.100, 977.776 313.447, 975.372 321.938 C 972.967 330.430, 971 337.967, 971 338.688 C 971 339.410, 970.273 340, 969.383 340 C 968.199 340, 967.924 340.601, 968.356 342.250 C 968.947 344.505, 950.487 418.991, 941.033 452.500 C 938.395 461.850, 935.693 472.875, 935.029 477 C 932.699 491.475, 928.827 509.662, 924.425 526.806 C 921.981 536.324, 919.309 548.924, 918.489 554.806 C 915.365 577.189, 908.273 609.233, 898.969 643 C 883.278 699.950, 880.131 715.911, 883.061 723.685 C 884.906 728.578, 889.828 732.759, 895.285 734.068 C 901.336 735.520, 928.541 734.785, 937.291 732.933 C 941.918 731.954, 943.858 731.963, 946.936 732.979 C 952.133 734.694, 960.733 732.786, 962.021 729.632 C 962.499 728.460, 963.832 719.175, 964.982 709 C 967.551 686.275, 969.717 674.923, 976.121 650.607 C 979.638 637.252, 982.287 629.433, 985.157 623.932 L 989.218 616.150 996.859 615.325 C 1001.062 614.871, 1014.850 614.522, 1027.500 614.548 C 1045.333 614.585, 1052.232 614.978, 1058.208 616.298 C 1067.719 618.398, 1074.948 618.466, 1079.654 616.500 C 1085.276 614.151, 1091.676 614.612, 1098.543 617.860 L 1104.586 620.719 1108.678 643.172 C 1112.674 665.103, 1112.885 665.832, 1117.768 674.562 L 1122.768 683.500 1124.374 702.685 C 1125.533 716.535, 1126.559 723.418, 1128.062 727.435 C 1129.207 730.496, 1130.363 733, 1130.630 733 C 1130.898 733, 1134.128 733.442, 1137.808 733.981 C 1150.453 735.836, 1182.113 736.973, 1196 736.071 C 1210.630 735.122, 1218.917 732.846, 1222.800 728.713 L 1224.930 726.446 1219.574 704.973 C 1216.629 693.163, 1212.770 679.024, 1210.999 673.554 C 1207.531 662.838, 1206.096 651.529, 1206.036 634.439 C 1206.009 626.920, 1205.245 621.107, 1203.012 611.439 C 1201.008 602.760, 1200.020 595.810, 1200.012 590.331 L 1200 582.162 1195.009 576.331 C 1192.264 573.124, 1189.995 570.050, 1189.967 569.500 C 1189.939 568.950, 1189.335 561.750, 1188.626 553.500 L 1187.336 538.500 1181.774 526.500 C 1173.300 508.214, 1169.742 495.248, 1163.429 459.643 C 1161.981 451.472, 1159.722 440.897, 1158.410 436.143 C 1157.099 431.389, 1148.318 394.650, 1138.899 354.500 C 1125.848 298.876, 1121.571 279.001, 1120.930 271 C 1119.337 251.125, 1118.190 241.494, 1117.119 239 C 1116.528 237.625, 1113.608 229.525, 1110.629 221 C 1105.359 205.920, 1105.181 205.056, 1104.072 189.112 C 1102.859 171.676, 1101.549 167.023, 1093.095 150.145 C 1091.540 147.040, 1087.634 135.613, 1084.415 124.750 L 1078.562 105 1072.715 105 C 1069.500 105, 1065.973 105.479, 1064.879 106.065 C 1061.893 107.663, 1053.074 107.792, 1048.091 106.311 C 1042.310 104.592, 1031.209 104.695, 1027.891 106.498 M 418.878 118.243 L 407.256 123.217 406.636 130.359 C 404.869 150.714, 403.910 171.699, 403.863 191 C 403.835 202.825, 403.128 219.475, 402.292 228 C 400.691 244.326, 400.900 252.580, 403.418 272.500 C 404.252 279.100, 405.475 293.731, 406.135 305.014 C 407.137 322.136, 407.101 327.178, 405.918 335.514 C 404.860 342.967, 404.583 353.897, 404.826 378.611 C 405.110 407.465, 404.917 412.928, 403.326 421.111 C 401.799 428.961, 401.500 435.582, 401.500 461.500 C 401.500 489.962, 401.684 493.335, 403.750 502.692 C 406.438 514.869, 406.705 529.238, 404.488 542.500 C 401.850 558.290, 401.536 572.102, 403.488 586.500 C 405.442 600.901, 405.313 605.439, 401.986 639.500 C 400.290 656.857, 400.044 664.316, 400.567 682.500 C 401.106 701.199, 400.943 705.701, 399.482 712.500 C 396.830 724.850, 397.133 729.594, 401.046 736.935 C 407.190 748.462, 413.643 751.434, 439.500 754.646 C 452.507 756.261, 471.419 753.601, 472.452 750.010 C 472.691 749.179, 473.700 742.650, 474.693 735.500 C 476.216 724.546, 476.466 716.518, 476.285 684.500 C 476.167 663.600, 475.652 637.050, 475.142 625.500 C 474.632 613.950, 474.503 602.250, 474.857 599.500 C 475.800 592.168, 474.547 571.916, 472.475 561 C 470.918 552.795, 470.829 550.253, 471.820 542.357 C 472.451 537.329, 474.420 528.619, 476.195 523.001 L 479.421 512.787 484.718 513.227 C 493.111 513.922, 495.340 516.632, 501.511 533.632 C 506.366 547.007, 508.138 550.721, 512.210 556.054 C 514.123 558.559, 516.852 563.959, 518.276 568.054 C 522.159 579.225, 528.646 594.720, 531.422 599.456 C 532.775 601.765, 536.545 610.369, 539.800 618.577 C 543.055 626.785, 547.125 636.285, 548.843 639.690 C 554.698 651.287, 564.641 678.018, 566.441 687 C 566.827 688.925, 570.561 701.415, 574.739 714.757 L 582.335 739.013 585.917 739.966 C 587.888 740.490, 597.375 742.766, 607 745.024 C 622.610 748.686, 625.580 749.092, 634.500 748.778 C 642.733 748.488, 645.513 747.958, 650.235 745.775 C 665.271 738.825, 667.208 734.593, 665.360 712.729 C 664.754 705.558, 664.608 705.197, 662.610 705.932 C 661.449 706.358, 659.314 706.994, 657.864 707.344 L 655.227 707.981 657.864 702.999 C 659.314 700.259, 660.733 698.013, 661.018 698.008 C 661.303 698.004, 662.304 699.237, 663.242 700.750 L 664.947 703.500 664.973 699.333 C 664.989 696.887, 664.484 694.980, 663.750 694.714 C 662.750 694.352, 662.750 693.838, 663.750 692.144 C 664.727 690.489, 665.005 668.044, 665.024 589.264 C 665.040 522.889, 665.402 487.135, 666.087 484.500 C 666.658 482.300, 667.373 472.625, 667.675 463 C 668.120 448.838, 667.895 443.783, 666.496 436.500 C 663.716 422.034, 663.523 405.042, 665.922 386.014 C 668.656 364.322, 668.554 359.048, 665.067 341.831 C 658.575 309.779, 657.619 296.099, 660.964 283.120 C 662.573 276.873, 663.180 268.743, 664.330 238 C 665.727 200.646, 665.426 187.077, 662.939 175.314 C 661.177 166.979, 661.386 156.446, 663.468 148.757 C 665.678 140.590, 664.944 136.873, 659.385 128.083 C 655.919 122.603, 654.699 121.556, 648.065 118.369 C 637.128 113.115, 631.217 112.444, 608.203 113.841 L 588.695 115.026 584.098 119.241 C 581.569 121.560, 579.216 124.591, 578.868 125.978 C 577.719 130.568, 578.013 140.399, 579.513 147.478 C 582.153 159.943, 582.359 166.031, 580.492 176.402 C 579.055 184.384, 578.847 189.478, 579.331 204.814 C 579.655 215.091, 580.590 226.875, 581.408 231 C 582.390 235.955, 582.913 244.900, 582.947 257.363 L 583 276.226 588.109 285.289 C 594.986 297.488, 594.813 299.623, 585.426 318.516 L 578.478 332.500 574.489 332.826 C 563.545 333.719, 556.956 329.911, 550.272 318.828 C 545.903 311.584, 539.628 294.631, 536.079 280.484 C 534.371 273.674, 532.116 267.310, 530.652 265.167 C 527.678 260.814, 526.725 258.669, 519.917 241 C 516.908 233.193, 513.707 222.533, 512.326 215.721 C 509.647 202.513, 505.339 191.664, 492.828 166.617 C 486.344 153.637, 469.760 122.762, 468.389 121.119 C 468.142 120.823, 446.478 116.314, 432.500 113.649 C 431.400 113.440, 425.270 115.507, 418.878 118.243 M 1532 115.912 C 1529.525 116.990, 1524.215 118.626, 1520.200 119.548 C 1511.165 121.621, 1510.117 123.002, 1508.764 134.611 C 1507.902 142.007, 1508.057 144.785, 1509.870 154.359 C 1516.177 187.679, 1519.490 221.643, 1518.625 244.126 L 1517.986 260.752 1521.493 263.427 C 1525.750 266.674, 1525.989 269.526, 1522.187 271.707 L 1519.374 273.322 1519.190 341.911 C 1518.612 556.826, 1517.254 630.326, 1513.570 646 C 1512.729 649.575, 1512.032 656.230, 1512.021 660.790 C 1511.997 670.144, 1512.938 672.628, 1520.269 682.582 L 1524.749 688.664 1542.624 689.829 C 1552.456 690.470, 1562.975 691.412, 1566 691.924 C 1573.737 693.232, 1588.921 693.208, 1595.201 691.877 C 1602.301 690.372, 1607.051 687.845, 1610.795 683.580 C 1616.214 677.409, 1616.260 671.233, 1611.007 655 C 1606.507 641.093, 1605.817 634.584, 1607.566 622.570 C 1609.858 606.828, 1610.504 583.052, 1608.927 572.500 C 1608.186 567.550, 1607.614 561.475, 1607.654 559 C 1607.962 540.118, 1608.797 521.137, 1609.360 520.227 C 1610.187 518.888, 1608.631 504.640, 1606.381 492.943 C 1604.379 482.538, 1604.926 479.029, 1609.534 472.750 C 1612.993 468.036, 1613.063 468, 1618.760 468.011 C 1628.391 468.029, 1631.704 468.987, 1636.383 473.106 C 1644.171 479.961, 1644.418 481.043, 1644.806 510 C 1645.470 559.475, 1645.351 566.121, 1643.638 574.860 C 1641.558 585.474, 1641.437 591.712, 1643.342 590.131 C 1646.147 587.803, 1647.110 592.748, 1644.382 595.475 C 1642.961 596.896, 1642.896 598.210, 1643.850 606.296 C 1644.446 611.358, 1645.220 624.950, 1645.570 636.500 C 1646.128 654.951, 1646.497 658.387, 1648.615 664.807 C 1651.732 674.262, 1654.959 680.499, 1659.383 685.626 C 1662.845 689.637, 1663.063 689.729, 1667.222 688.932 C 1669.575 688.481, 1675.304 686.453, 1679.954 684.425 C 1689.261 680.365, 1699.353 678.950, 1710.500 680.141 C 1729.266 682.148, 1736.455 680.227, 1740.970 672 C 1742.992 668.315, 1743.505 665.780, 1743.804 658 C 1744.014 652.527, 1743.659 646.593, 1742.966 644 C 1740.374 634.297, 1738.598 537.078, 1740.806 525.767 C 1741.771 520.827, 1741.689 519.616, 1740.213 517.023 C 1739.271 515.367, 1737.938 514.010, 1737.250 514.006 C 1736.563 514.003, 1736 513.116, 1736 512.035 C 1736 509.948, 1738.725 507.991, 1740.658 508.688 C 1743.068 509.557, 1742.874 506.915, 1739.751 496.370 C 1736.682 486.007, 1736.534 484.730, 1736.576 469 C 1736.611 456.106, 1736.986 451.517, 1738.296 448 C 1739.217 445.525, 1739.977 441.618, 1739.985 439.318 C 1740.003 434.349, 1738.279 432.836, 1726.460 427.450 C 1716.895 423.091, 1712.894 420.054, 1708.950 414.155 C 1706.173 410.002, 1705.880 408.875, 1706.236 403.705 C 1706.630 397.971, 1706.719 397.823, 1714.720 389.705 C 1722.470 381.842, 1722.872 381.205, 1724.375 374.427 C 1726.660 364.121, 1727.402 345.086, 1727.079 305 C 1726.861 277.838, 1727.203 264.626, 1728.534 248.750 C 1730.040 230.788, 1730.101 226.556, 1728.981 217.250 C 1728.270 211.338, 1727.623 199.525, 1727.543 191 C 1727.432 179.151, 1726.883 173.183, 1725.214 165.663 C 1721.219 147.667, 1721.847 148.851, 1712.231 141.202 C 1698.207 130.046, 1687.283 123, 1684.013 123 C 1679.353 123, 1658.175 120.057, 1650 118.274 C 1641.317 116.380, 1632.810 116.470, 1617.786 118.616 C 1608.123 119.997, 1606.310 119.994, 1599.286 118.586 C 1587.144 116.152, 1575.065 115.029, 1555 114.468 C 1538.145 113.997, 1536.100 114.126, 1532 115.912 M 841.120 117.284 C 836.046 119.227, 834.996 119.279, 822.620 118.200 C 810.623 117.155, 754.034 116.356, 724.195 116.812 L 711.889 117 709.490 122.250 C 704.795 132.523, 702.618 153.334, 705.384 161.500 C 706.510 164.822, 706.603 182.018, 705.935 263 C 705.493 316.625, 704.409 399.812, 703.527 447.861 C 701.946 533.940, 701.952 535.738, 703.973 570.361 C 706.467 613.101, 707.163 619.343, 710.664 630.307 C 712.087 634.766, 712.038 636.212, 709.976 650.307 C 707.985 663.923, 706.576 688.825, 706.714 707.964 L 706.761 714.427 714.133 721.496 L 721.506 728.565 737.003 730.792 C 757.272 733.704, 760.430 733.889, 767.086 732.550 C 777.478 730.461, 784.785 721.934, 785.173 711.444 C 785.342 706.893, 784.697 688.745, 782.030 623 C 781.483 609.525, 780.794 588.825, 780.497 577 C 780.201 565.175, 779.442 547.850, 778.811 538.500 C 777.614 520.771, 778.606 501.228, 781.323 489.007 C 782.468 483.853, 782.975 483.190, 789.522 478.277 C 793.360 475.397, 797.063 473.032, 797.750 473.020 C 798.438 473.009, 799 474.125, 799 475.500 C 799 476.884, 799.580 478, 800.299 478 C 801.186 478, 801.473 476.929, 801.205 474.631 C 800.850 471.590, 801.128 471.151, 804.055 470.131 C 808.505 468.579, 820.675 468.713, 832.574 470.444 C 841.010 471.671, 854.356 472.475, 860.097 472.103 C 861.273 472.027, 862.447 469.037, 864.556 460.750 C 868.150 446.624, 868.615 428.250, 865.693 415.801 L 863.886 408.101 858.601 406.124 C 846.834 401.721, 838.414 400.538, 820 400.702 C 810.375 400.787, 799.416 401.265, 795.648 401.762 L 788.795 402.667 784.421 398.084 C 776.285 389.559, 776.604 393.299, 776.872 309.500 C 777.119 232.483, 777.758 218.170, 781.781 199.503 L 783.505 191.505 788.503 188.781 C 795.414 185.015, 804.435 182.052, 811.179 181.334 C 816.082 180.812, 832.248 181.622, 856 183.577 L 862.500 184.113 867.178 177.735 L 871.857 171.358 873.116 153.305 C 874.888 127.893, 873.146 121.242, 863.579 116.896 C 858.090 114.403, 848.196 114.574, 841.120 117.284 M 1791.500 126.923 C 1773.877 127.690, 1765.426 129.894, 1762.399 134.513 C 1758.678 140.192, 1756.293 166.752, 1757.931 184.269 C 1758.928 194.931, 1762.345 207.817, 1764.799 210.170 C 1765.184 210.540, 1772.925 211.130, 1782 211.482 C 1805.239 212.383, 1810.064 213.634, 1818.530 220.954 C 1822.248 224.169, 1826.620 228.758, 1828.245 231.150 C 1831.079 235.322, 1831.174 235.819, 1830.571 243.311 C 1830.226 247.607, 1829.281 254.582, 1828.472 258.811 C 1827.346 264.692, 1827 274.963, 1827 302.500 C 1827 325.210, 1826.449 345.538, 1825.509 357.565 C 1824.333 372.601, 1822.080 421.683, 1822.013 433.750 C 1822 435.946, 1822.260 436, 1832.878 436 C 1844.614 436, 1846.458 436.740, 1845.827 441.195 C 1845.515 443.394, 1844.958 443.540, 1833.750 444.374 L 1822 445.247 1822 456.999 L 1822 468.750 1825 469.350 C 1827.531 469.856, 1828 470.418, 1828 472.940 C 1828 475.953, 1825.660 478.148, 1823.340 477.312 C 1821.490 476.644, 1821.120 486.276, 1820.016 564 C 1819.450 603.875, 1818.495 652.700, 1817.895 672.500 C 1816.728 710.980, 1817.447 730.276, 1820.555 743.940 C 1821.464 747.937, 1823.014 752.014, 1824 753 C 1827.265 756.265, 1839.188 758.219, 1859 758.738 C 1879.144 759.265, 1890.782 757.959, 1899.223 754.226 C 1902.890 752.604, 1903.887 751.595, 1904.523 748.864 C 1904.953 747.014, 1905.476 692.288, 1905.684 627.250 L 1906.062 509 1904.031 509 C 1902.914 509, 1902 508.600, 1902 508.111 C 1902 507.622, 1902.787 507.285, 1903.750 507.361 C 1905.268 507.482, 1905.591 506.175, 1906.184 497.500 C 1906.559 492, 1907.173 437.550, 1907.547 376.500 C 1908.173 274.298, 1908.092 264.866, 1906.529 257.500 C 1905.595 253.100, 1904.581 245.156, 1904.275 239.846 L 1903.720 230.191 1908.110 224.929 C 1910.524 222.034, 1914.199 217.911, 1916.277 215.766 C 1924.337 207.441, 1937.930 204.308, 1952 207.532 C 1966.414 210.834, 1968.416 210.675, 1980.198 205.287 L 1985.896 202.682 1986.627 197.091 C 1987.599 189.661, 1987.585 182.325, 1986.565 165.500 L 1985.717 151.500 1981.783 147.500 C 1979.619 145.300, 1977.111 142.262, 1976.209 140.750 C 1975.307 139.238, 1973.878 138, 1973.034 137.999 C 1972.190 137.999, 1963.175 137.537, 1953 136.972 C 1931.997 135.807, 1914.712 133.895, 1898.020 130.892 C 1888.213 129.127, 1884.279 128.921, 1871.020 129.479 C 1858.995 129.984, 1853.248 129.767, 1845.500 128.514 C 1833.492 126.573, 1813.259 125.976, 1791.500 126.923 M 1608.500 195.070 C 1605.815 196.462, 1601.687 202.475, 1599.595 208.041 C 1597.946 212.428, 1597.972 213.074, 1600.363 227.183 C 1602.672 240.807, 1602.765 242.679, 1601.753 255.142 C 1600.857 266.180, 1600.947 270.844, 1602.268 282 C 1603.822 295.118, 1603.801 296.122, 1601.523 317.500 C 1598.787 343.174, 1598.805 343.270, 1608.010 353.329 C 1613.054 358.840, 1613.538 359.122, 1616.876 358.495 C 1631.936 355.670, 1638.254 341.659, 1634.468 319.483 C 1632.343 307.036, 1632.066 259.203, 1634.006 239.692 C 1636.461 215.004, 1633.056 201.742, 1622.906 196.460 C 1619.364 194.617, 1610.942 193.804, 1608.500 195.070 M 191.499 356.250 C 186.871 361.628, 180.655 374.554, 178.635 383 C 177.780 386.575, 176.611 394, 176.039 399.500 C 174.658 412.768, 168.295 436.246, 153.004 484.500 C 144.554 511.166, 141.292 527.175, 142.438 536.353 C 142.824 539.440, 143.826 542.440, 144.718 543.180 C 145.886 544.148, 150.598 544.512, 162.405 544.544 C 176.139 544.581, 178.940 544.325, 181.500 542.798 C 185.227 540.574, 192.295 540.478, 198.124 542.572 C 202.817 544.257, 215.836 544.968, 220.090 543.771 C 221.545 543.362, 224.437 540.694, 226.686 537.686 C 230.562 532.503, 230.711 532.013, 231.324 522.415 C 231.672 516.962, 232.240 508.225, 232.585 503 C 233.201 493.678, 233.043 492.723, 224.107 452.035 C 217.022 419.775, 215 408.865, 215 402.891 C 215 393.277, 213.425 377.113, 211.405 366 C 209.417 355.061, 206.900 352, 199.891 352 C 195.561 352, 194.843 352.363, 191.499 356.250 M 1048.216 356.609 C 1040.032 366.183, 1034.896 380.384, 1032.933 398.867 C 1031.457 412.760, 1025.466 435.044, 1010.043 484 C 1001.088 512.427, 998.478 524.760, 999.281 534.858 C 1000.044 544.446, 1000.148 544.497, 1018.786 544.515 C 1031.847 544.527, 1035.084 544.231, 1037.961 542.765 C 1042.183 540.613, 1049.311 540.493, 1054.940 542.479 C 1060.979 544.609, 1070.825 545.401, 1075.519 544.133 C 1081.104 542.624, 1087.116 534.643, 1087.592 528.104 C 1087.776 525.572, 1088.449 517.650, 1089.086 510.500 C 1090.486 494.796, 1090.651 495.945, 1080.067 448 C 1074.997 425.036, 1072.004 409.275, 1071.996 405.500 C 1071.977 396.824, 1070.202 377.996, 1068.367 367 C 1066.357 354.962, 1064.091 352, 1056.891 352 C 1052.499 352, 1051.870 352.334, 1048.216 356.609 M 659.636 695.494 C 659.952 696.316, 660.612 696.740, 661.105 696.435 C 662.517 695.563, 662.149 694, 660.531 694 C 659.639 694, 659.288 694.587, 659.636 695.494" stroke="none" fill="black" fill-rule="evenodd"/>
</svg>