<svg xmlns="http://www.w3.org/2000/svg" width="2000" height="857" viewBox="0 0 2000 857" version="1.1">
	<path d="M 573.749 27.086 C 570.587 27.549, 564.962 29.244, 561.249 30.852 C 557.537 32.461, 553.526 34.070, 552.336 34.428 C 550.414 35.007, 550.092 36.049, 549.446 43.790 C 548.571 54.263, 549.486 77.993, 551.112 87 C 552.629 95.405, 552.706 120.506, 551.241 129.500 C 548.973 143.432, 547.875 166.009, 548.252 191 C 548.463 205.025, 549.223 245.750, 549.942 281.500 C 550.988 333.570, 551.014 364.901, 550.070 439 C 547.392 649.247, 546.607 738.335, 546.966 791.604 L 547 796.709 554.250 798.858 C 577.274 805.686, 585.386 805.538, 605.712 797.920 C 625.360 790.557, 633.398 788.215, 648.657 785.406 C 650.277 785.107, 651.362 783.453, 653.018 778.754 C 656.238 769.623, 656.771 753.750, 654.392 737.861 C 652.031 722.092, 652.041 698.113, 654.413 686 C 655.329 681.325, 656.985 669.400, 658.094 659.500 C 660.431 638.633, 660.122 628.850, 656.450 607.500 C 650.429 572.496, 649.058 532.293, 651.763 470.044 C 652.499 453.122, 653 409.068, 653 361.356 C 653 284.021, 653.080 280.534, 655.221 264.812 C 657.185 250.389, 657.446 244.099, 657.471 210.500 C 657.500 170.860, 656.828 160.625, 652.774 139 C 649.933 123.846, 649.820 102.755, 652.502 88.500 C 655.195 74.186, 655.289 44.545, 652.663 37.739 C 651.653 35.120, 650.078 32.583, 649.163 32.101 C 640.584 27.581, 592.295 24.370, 573.749 27.086 M 1594.500 33.760 C 1592.850 34.637, 1586.600 37.243, 1580.611 39.550 C 1574.622 41.857, 1569.392 44.365, 1568.989 45.122 C 1567.285 48.324, 1564.021 110.573, 1564.009 140.110 C 1564.004 153.272, 1563.354 167.736, 1562.347 177.110 C 1560.352 195.682, 1560.359 202.279, 1562.390 216 C 1565.781 238.900, 1567.321 260.678, 1567.410 287 C 1567.482 308.278, 1567.204 314.288, 1566 317.500 C 1564.768 320.787, 1564.585 325.691, 1564.978 345 C 1565.805 385.675, 1565.581 408.194, 1564.303 413 C 1561.695 422.807, 1560.788 439.901, 1561.244 470.627 C 1561.670 499.375, 1561.889 502.395, 1564.421 514.500 C 1567.941 531.329, 1568.077 546.463, 1564.894 567 C 1562.143 584.745, 1561.740 608.788, 1564.014 619.500 C 1566.232 629.947, 1565.779 649.826, 1562.624 680.500 C 1559.537 710.511, 1559.221 720.558, 1560.574 745.683 C 1561.083 755.133, 1561.191 764.358, 1560.814 766.183 C 1555.961 789.646, 1555.832 795.440, 1559.975 803.791 C 1567.228 818.410, 1576.139 823.454, 1600.500 826.732 C 1617.303 828.993, 1631.436 828.771, 1639.926 826.112 C 1643.461 825.005, 1646.701 824.315, 1647.126 824.578 C 1648.753 825.583, 1649.908 820.886, 1651.934 805.042 C 1655.103 780.251, 1655.416 764.393, 1653.894 706 C 1652.543 654.145, 1652.314 638.865, 1652.762 630.500 C 1653.168 622.911, 1651.299 595.491, 1650.137 592 C 1649.497 590.075, 1648.701 584, 1648.369 578.500 C 1647.638 566.367, 1649.446 554.769, 1654.515 539.090 C 1657.991 528.337, 1658.042 528.255, 1661.529 527.689 C 1667.980 526.642, 1675.986 531.195, 1679.428 537.868 C 1680.910 540.739, 1687.244 557.413, 1689.912 565.461 C 1690.830 568.232, 1694.310 574.578, 1697.643 579.562 C 1701.211 584.895, 1704.627 591.478, 1705.945 595.562 C 1707.178 599.378, 1709.252 604.750, 1710.556 607.500 C 1711.859 610.250, 1714.291 616.124, 1715.960 620.554 C 1717.629 624.984, 1720.543 631.180, 1722.436 634.324 C 1724.329 637.467, 1726.187 641.043, 1726.565 642.270 C 1728.074 647.163, 1740.595 677.235, 1746.021 689 C 1752.800 703.697, 1760.948 725.217, 1764.005 736.500 C 1767.515 749.455, 1774.706 773.253, 1780.639 791.548 L 1786.168 808.596 1811.834 814.511 C 1839.378 820.860, 1849.196 821.999, 1859.350 820.025 C 1873.273 817.319, 1886.659 807.835, 1889.010 799.011 C 1889.927 795.567, 1889.941 791.274, 1889.069 780.561 C 1888.444 772.882, 1887.778 766.445, 1887.590 766.256 C 1887.401 766.068, 1884.829 766.833, 1881.874 767.957 C 1878.918 769.080, 1876.392 769.999, 1876.259 769.999 C 1876.127 770, 1877.461 767.075, 1879.224 763.500 C 1880.987 759.925, 1882.771 757, 1883.189 757 C 1883.607 757, 1884.748 758.463, 1885.724 760.250 L 1887.500 763.500 1887.809 758.643 C 1888.172 752.948, 1887.650 752.113, 1884.828 753.875 C 1883.060 754.979, 1882.502 754.918, 1881.123 753.467 C 1879.609 751.874, 1879.684 751.791, 1882.229 752.237 C 1888.317 753.303, 1888 760.366, 1888 623.785 C 1888 516.353, 1888.208 498.415, 1889.531 491.501 C 1893.441 471.067, 1893.261 446.469, 1889.044 425.176 C 1886.247 411.049, 1886.378 395.243, 1889.500 370.400 C 1892.918 343.203, 1892.785 338.080, 1888.047 314.322 C 1883.795 292.998, 1881.506 278.280, 1880.438 265.390 C 1879.852 258.311, 1880.155 255.706, 1882.827 244.890 C 1885.840 232.691, 1885.913 231.776, 1887.597 185.496 C 1889.392 136.171, 1889.065 123.947, 1885.495 106.977 C 1883.510 97.539, 1883.604 86.779, 1885.736 79.460 C 1889.258 67.373, 1888.003 60.823, 1879.810 48.534 C 1875.796 42.513, 1872.724 40.359, 1862.239 36.216 C 1851.419 31.940, 1844.409 31.449, 1816.709 33.027 L 1793.500 34.349 1787.807 39.425 C 1782.365 44.276, 1782.062 44.804, 1780.945 51.378 C 1779.695 58.732, 1780.020 62.854, 1783.066 78.324 C 1785.445 90.408, 1785.521 100.176, 1783.312 110 C 1780.836 121.008, 1780.943 155.609, 1783.498 170 C 1784.853 177.640, 1785.516 187.717, 1785.931 207 L 1786.500 233.500 1792.398 244 C 1797.402 252.909, 1798.366 255.441, 1798.762 260.709 C 1799.221 266.833, 1799.111 267.158, 1790.795 284.209 C 1786.157 293.719, 1781.624 302.237, 1780.722 303.137 C 1779.690 304.168, 1777.865 304.654, 1775.792 304.451 C 1773.981 304.273, 1770.215 304.099, 1767.421 304.064 C 1752.179 303.872, 1738.506 280.859, 1727.949 237.628 C 1725.690 228.376, 1724.136 224.313, 1721.035 219.553 C 1718.835 216.177, 1716.179 210.958, 1715.134 207.957 C 1714.089 204.956, 1710.981 196.875, 1708.226 190 C 1703.393 177.934, 1698.892 161.886, 1697.429 151.500 C 1695.958 141.056, 1675.320 97.129, 1653.747 58.522 L 1644.260 41.544 1623.880 37.459 C 1612.671 35.211, 1602.150 33.101, 1600.500 32.769 C 1598.619 32.390, 1596.381 32.759, 1594.500 33.760 M 714.013 39.500 C 710.008 43.558, 708.857 45.533, 707.907 49.981 C 706.441 56.838, 707.340 72.082, 709.961 84.837 C 711.771 93.645, 711.827 96.594, 710.947 136.837 C 710.435 160.302, 710.025 305.500, 710.037 459.500 C 710.051 648.592, 709.724 740.634, 709.029 742.993 C 707.451 748.350, 707.783 770.635, 709.583 780.140 C 710.454 784.738, 712.055 790.570, 713.142 793.101 L 715.118 797.701 726.309 798.346 C 743.287 799.324, 809.916 799.092, 832.500 797.975 C 863.499 796.443, 873.709 796.566, 879.500 798.543 C 883.238 799.819, 886.519 800.123, 892.500 799.747 C 914.159 798.387, 919.367 789.021, 917.531 754.735 L 916.801 741.115 910.789 733.557 C 906.003 727.541, 904.233 726, 902.111 726 C 900.645 726, 887.983 726.942, 873.973 728.093 C 846.193 730.376, 838.042 730.173, 827.452 726.932 C 819.816 724.595, 809.935 719.708, 807.655 717.140 C 805.060 714.219, 801.077 685.328, 798.882 653.500 C 797.964 640.193, 796.908 550.743, 796.783 475.765 C 796.765 464.760, 799.718 456.895, 806.604 449.614 C 809.529 446.521, 812.727 443.903, 813.711 443.796 C 814.695 443.690, 818.342 443.978, 821.815 444.438 L 828.130 445.273 827.477 449.137 L 826.824 453 830.349 453 C 833.594 453, 833.898 452.743, 834.187 449.750 L 834.500 446.500 856.228 446.313 C 880.392 446.106, 885.593 445.263, 897.549 439.618 L 904.597 436.290 906.280 428.395 C 911.258 405.047, 911.181 393.814, 905.869 368.250 L 903.739 358 890.370 358 L 877 358 877 354.500 C 877 349.800, 875.338 350.043, 874.523 354.861 L 873.871 358.723 863.686 359.394 C 858.083 359.763, 852.038 360.326, 850.250 360.644 C 847.473 361.138, 847 360.931, 847 359.220 C 847 357.886, 846.113 356.994, 844.345 356.550 C 841.671 355.879, 840.048 357.086, 840.015 359.769 C 839.998 361.221, 837.900 360.882, 828.050 357.838 C 820.009 355.352, 818.012 354.320, 810.371 348.694 L 804.241 344.182 802.631 335.341 C 801.746 330.478, 800.724 322.551, 800.361 317.724 C 799.739 309.452, 799.834 308.805, 802.025 306.474 L 804.349 304 801.674 304 L 799 304 799.033 275.750 C 799.052 260.212, 798.884 226.370, 798.660 200.545 L 798.253 153.590 802.474 145.386 C 807.253 136.099, 813.596 127.015, 815.335 126.969 C 815.976 126.952, 823.475 126.259, 832 125.430 C 840.525 124.600, 853.288 123.653, 860.363 123.324 L 873.225 122.726 871.581 125.237 C 870.369 127.086, 870.112 128.851, 870.606 131.940 L 871.277 136.134 875.105 130.079 C 879.363 123.346, 879.465 123.330, 887.794 128.124 C 891.444 130.225, 891.674 130.237, 897.263 128.612 C 904.890 126.395, 908.965 122.578, 913.082 113.794 C 916.226 107.085, 916.527 105.601, 916.835 95.284 C 917.074 87.301, 916.729 82.564, 915.641 78.849 C 914.799 75.979, 914.291 73.338, 914.512 72.981 C 914.732 72.624, 914.490 68.244, 913.973 63.248 C 912.963 53.480, 910.329 45.070, 906.129 38.198 L 903.500 33.897 895 34.501 C 890.325 34.833, 881.495 35.790, 875.379 36.626 C 864.918 38.057, 862.928 38.020, 841.879 36 C 821.681 34.061, 814.599 33.883, 769.224 34.176 L 718.949 34.500 714.013 39.500 M 1296.997 39.602 C 1293.100 43.718, 1292.027 45.635, 1291.444 49.523 C 1290.412 56.408, 1291.565 76.193, 1293.512 85 C 1295.033 91.879, 1295.073 98.297, 1293.990 162.500 C 1293.172 211.051, 1292.983 308.186, 1293.374 479.500 C 1293.685 615.350, 1293.969 729.169, 1294.006 732.431 C 1294.042 735.693, 1293.314 740.773, 1292.387 743.720 C 1289.263 753.650, 1291.856 781.500, 1297.027 793.563 L 1298.793 797.683 1310.146 798.337 C 1327.338 799.327, 1392.892 799.095, 1415.500 797.963 C 1445.534 796.459, 1457.733 796.579, 1462.876 798.427 C 1471.547 801.544, 1486.083 799.913, 1492.699 795.080 C 1495.512 793.026, 1497.150 790.640, 1499 785.902 C 1501.396 779.767, 1501.489 778.713, 1501.230 760.658 L 1500.960 741.817 1496.730 736.556 C 1494.404 733.663, 1491.588 730.041, 1490.473 728.507 L 1488.447 725.718 1458.973 727.955 C 1422.462 730.727, 1415.494 730.116, 1400.500 722.825 C 1390.212 717.823, 1390.284 717.927, 1388.036 704.742 C 1382.581 672.748, 1381.171 640.840, 1380.865 542.500 L 1380.628 466.500 1382.976 460.500 C 1385.820 453.230, 1394.169 444.014, 1398 443.914 C 1399.375 443.878, 1403.120 444.174, 1406.321 444.572 C 1411.962 445.272, 1412.123 445.375, 1411.494 447.879 C 1411.138 449.300, 1410.768 450.921, 1410.673 451.481 C 1410.578 452.042, 1412.075 452.500, 1414 452.500 C 1417.220 452.500, 1417.525 452.239, 1417.814 449.242 L 1418.128 445.983 1439.814 446.126 C 1457.441 446.242, 1462.706 445.948, 1467.942 444.557 C 1476.622 442.251, 1486.597 437.627, 1487.797 435.354 C 1489.499 432.129, 1492.061 418.841, 1492.824 409.284 C 1493.975 394.861, 1492.211 377.740, 1487.928 361.750 L 1486.923 358 1473.662 358 L 1460.402 358 1460.825 354.375 C 1461.146 351.623, 1460.917 350.859, 1459.874 351.202 C 1459.118 351.451, 1458.359 353.080, 1458.187 354.824 C 1457.827 358.465, 1457.461 358.600, 1445.500 359.506 C 1441.100 359.839, 1436.010 360.367, 1434.189 360.679 C 1431.441 361.149, 1430.787 360.900, 1430.346 359.215 C 1429.891 357.477, 1427.419 356.062, 1424.750 356.014 C 1424.338 356.006, 1424 356.873, 1424 357.941 C 1424 360.856, 1423.141 360.952, 1415.202 358.927 C 1406.150 356.619, 1396.831 351.753, 1391.401 346.500 C 1387.347 342.579, 1387.234 342.284, 1385.679 331.500 C 1382.458 309.172, 1382.457 308.569, 1385.668 306.175 L 1388.500 304.063 1385.830 304.032 C 1383.289 304.002, 1383.130 303.696, 1382.561 297.750 C 1382.232 294.313, 1382.100 260, 1382.267 221.500 L 1382.570 151.500 1386.517 144.210 C 1388.688 140.201, 1392.064 134.801, 1394.020 132.210 C 1397.286 127.886, 1398.024 127.442, 1403.038 126.787 C 1415.260 125.191, 1441.964 122.977, 1448.857 122.988 C 1455.491 122.999, 1456.138 123.172, 1455.437 124.750 C 1454.264 127.391, 1453.679 135, 1454.649 134.998 C 1455.117 134.997, 1456.850 132.894, 1458.500 130.324 C 1460.150 127.754, 1461.785 125.226, 1462.134 124.705 C 1462.491 124.171, 1465.396 125.160, 1468.804 126.976 C 1475.685 130.644, 1478.237 130.538, 1486.208 126.256 C 1494.574 121.763, 1499.907 111.012, 1500.722 97 C 1500.996 92.288, 1500.700 86.049, 1500.059 83 C 1499.423 79.975, 1498.497 72.775, 1498.002 67 C 1496.953 54.772, 1494.324 45.474, 1489.979 38.626 L 1486.887 33.752 1478.693 34.404 C 1474.187 34.763, 1465.431 35.761, 1459.236 36.623 C 1448.538 38.110, 1446.855 38.080, 1425.736 36.019 C 1405.533 34.047, 1398.851 33.878, 1352.663 34.174 L 1301.826 34.500 1296.997 39.602 M 115.851 50.894 C 103.300 57.502, 102.480 58.139, 99.816 63.361 C 96.750 69.371, 96.505 76.826, 98.888 91.561 C 100.990 104.560, 101.001 105.680, 101.107 329.561 C 101.176 474.484, 101.553 552.988, 102.166 550.250 C 103.026 546.411, 103.407 546, 106.104 546 C 108.921 546, 109.059 546.184, 108.533 549.250 C 106.006 563.968, 105.172 572.884, 105.987 576.472 C 107.028 581.056, 107.118 580.843, 103.939 581.324 C 101.616 581.676, 101.486 582.076, 101.212 589.710 L 100.924 597.726 103.962 598.984 C 107.825 600.584, 107.840 602.511, 104 603.850 L 101 604.896 101 629.248 C 101 646.020, 100.648 653.952, 99.870 654.730 C 97.841 656.759, 99.400 714.786, 101.924 731.192 C 105.353 753.473, 112.701 774.831, 118.141 778.327 C 119.439 779.161, 125.344 781.453, 131.265 783.421 C 144.435 787.799, 150.259 788.063, 155.102 784.501 C 156.971 783.127, 159.783 781.214, 161.350 780.251 C 172.132 773.627, 176.693 768.107, 179.737 758 C 181.796 751.163, 181.843 744.869, 180.282 684 C 179.612 657.875, 178.372 590.375, 177.526 534 C 175.869 423.649, 174.812 391.588, 172.366 377.500 C 170.229 365.195, 169.520 345.629, 170.960 338.691 C 172.193 332.751, 179.747 316.256, 182.095 314.375 C 182.868 313.756, 184.625 313.341, 186 313.452 C 187.946 313.609, 188.792 314.522, 189.817 317.577 C 194.013 330.080, 202.966 360.717, 208.569 381.747 C 212.123 395.083, 216.788 410.923, 218.937 416.947 C 224.449 432.399, 230.411 469.416, 233.561 507.755 C 234.363 517.515, 235.672 528.875, 236.471 533 C 237.269 537.125, 238.398 548.825, 238.979 559 C 241.769 607.861, 241.763 607.799, 247.648 648 C 250.025 664.242, 250.375 669.857, 250.514 694 C 250.662 719.763, 250.815 721.909, 252.935 727.978 C 257.874 742.118, 265.390 753.117, 275.104 760.419 L 281.497 765.225 293.516 764.825 C 305.454 764.427, 305.600 764.393, 315.148 759.748 C 320.436 757.176, 326.185 753.874, 327.925 752.410 C 335.243 746.252, 337.604 734.906, 334.382 721.390 C 330.736 706.101, 332.584 673.745, 337.902 659.759 C 340.506 652.909, 350.885 614.904, 351.459 610.115 C 351.814 607.153, 354.095 597.859, 356.527 589.461 C 358.959 581.063, 361.400 571.111, 361.952 567.346 C 365.272 544.676, 368.396 517.650, 370.026 497.500 C 370.649 489.800, 371.998 480.350, 373.023 476.500 C 374.048 472.650, 375.189 466.913, 375.558 463.750 C 376.114 458.995, 375.970 458, 374.722 458 C 372.774 458, 372 455.877, 372 450.535 C 372 447.074, 371.609 446.131, 370 445.710 C 368.211 445.242, 368 444.346, 368 437.216 C 368 427.789, 368.927 426.474, 374.870 427.478 C 378.605 428.109, 378.837 427.997, 379.345 425.322 C 380.828 417.505, 381.098 407.130, 379.870 405.163 C 378.797 403.445, 378.853 402.818, 380.218 401.306 C 381.114 400.313, 382.567 396.350, 383.446 392.500 C 385.597 383.089, 388.772 373.510, 391.639 367.783 C 393.299 364.466, 394.002 361.350, 394.008 357.283 C 394.026 344.877, 397.579 323.021, 399.967 320.633 C 400.480 320.120, 403.299 320.344, 406.676 321.166 L 412.500 322.583 413.769 331.041 C 415.170 340.376, 415.014 354.458, 412.992 401.350 C 411.907 426.526, 411.919 431.332, 413.072 432.045 C 413.824 432.509, 419.561 432.850, 425.822 432.802 C 437.899 432.709, 438.953 433.099, 438.985 437.679 C 439.014 441.804, 436.965 442.559, 424.934 442.856 C 418.694 443.011, 413.231 443.358, 412.794 443.627 C 412.357 443.897, 412 450.659, 412 458.653 C 412 472.525, 412.095 473.212, 414.077 473.730 C 416.424 474.344, 418.252 478.180, 417.336 480.568 C 417.001 481.440, 415.707 482.541, 414.460 483.015 L 412.193 483.877 411.481 592.689 C 411.090 652.535, 410.745 708.925, 410.715 718 C 410.653 736.807, 412.559 747.221, 418.055 758.109 C 427.644 777.104, 444.012 782.397, 472 775.554 C 488.006 771.641, 499.787 767.267, 501.142 764.735 C 501.903 763.313, 502.014 758.296, 501.500 748.586 C 500.045 721.129, 500.297 714.556, 503.350 700.363 L 506.177 687.226 505.273 530.863 C 504.359 372.658, 503.694 313.064, 501.979 236 C 501.044 193.978, 501.527 168.438, 504.101 123.719 C 504.975 108.533, 504.960 101.680, 504.037 94.219 C 501.587 74.407, 492.558 54.916, 483.210 49.256 C 478.387 46.337, 476.616 46.414, 467.826 49.930 C 457.879 53.909, 447.125 54.723, 432 52.643 C 425.675 51.773, 416.225 50.568, 411 49.964 C 405.775 49.360, 400.743 48.651, 399.819 48.388 C 397.756 47.800, 385.972 61.204, 382.424 68.173 C 381.115 70.743, 378.265 79.293, 376.089 87.173 C 370.103 108.858, 362.428 132.879, 356.407 148.778 L 351 163.057 350.998 191.278 L 350.995 219.500 338.027 264.876 L 325.059 310.252 324.015 329.376 C 322.883 350.137, 321.528 364.832, 319.813 374.970 C 318.916 380.270, 317.854 382.567, 313.942 387.672 C 311.315 391.100, 308.873 394.826, 308.515 395.952 C 307.700 398.519, 305.412 398.548, 301.304 396.044 C 296.811 393.304, 295.181 390.380, 292.955 381.060 C 290.836 372.186, 289.314 368.712, 286.013 365.215 C 283.414 362.461, 279.627 351.677, 277.371 340.610 C 276.111 334.426, 275.675 326.088, 275.537 305.500 C 275.353 278.164, 273.586 260.124, 269.514 244 C 268.750 240.975, 267.003 231.684, 265.632 223.354 C 263.663 211.389, 261.345 202.719, 254.601 182.077 C 246.147 156.204, 241.730 137.630, 239.029 116.599 C 236.906 100.071, 226.290 63.533, 223.024 61.515 C 220.757 60.114, 193.550 53.799, 180.345 51.608 C 167.852 49.536, 147.617 47.111, 130.500 45.634 C 127.201 45.349, 124.634 46.271, 115.851 50.894 M 1005 48.923 C 982.412 49.543, 981.223 49.676, 974.350 52.362 C 970.418 53.900, 966.298 56.134, 965.194 57.329 C 960.100 62.841, 957.477 83.179, 958.292 110.836 C 958.873 130.530, 960.003 137.283, 964.359 147.103 C 966.776 152.550, 966.977 152.725, 971.562 153.353 C 974.156 153.709, 981.954 154.009, 988.890 154.020 C 1003.564 154.043, 1013.021 155.216, 1021.730 158.092 C 1027.060 159.852, 1029.229 161.402, 1036.755 168.825 C 1048.239 180.152, 1049.456 182.738, 1048.560 193.913 C 1048.182 198.636, 1047.002 207, 1045.939 212.500 C 1044.206 221.464, 1044.005 227.160, 1043.997 267.500 C 1043.989 302.725, 1043.559 318.181, 1042.014 338.652 C 1039.939 366.143, 1037.489 429.225, 1038.403 431.607 C 1038.823 432.701, 1041.795 433, 1052.269 433 C 1066.315 433, 1068 433.490, 1068 437.578 C 1068 441.589, 1065.555 442.395, 1052.145 442.807 C 1045.190 443.021, 1039.185 443.489, 1038.800 443.848 C 1038.414 444.207, 1038.028 451.026, 1037.940 459 L 1037.781 473.500 1041.141 474 C 1044.381 474.482, 1044.500 474.659, 1044.500 479 C 1044.500 483.442, 1044.454 483.504, 1040.908 483.801 L 1037.317 484.102 1036.696 517.301 C 1036.354 535.560, 1035.599 581.550, 1035.018 619.500 C 1034.437 657.450, 1033.453 705.956, 1032.831 727.291 C 1031.293 780.098, 1032.595 804.684, 1037.750 820.226 C 1039.842 826.530, 1042.203 827.963, 1055 830.689 C 1061.887 832.156, 1068.149 832.500, 1088 832.500 C 1114.074 832.500, 1123.747 831.313, 1134.158 826.836 C 1138.685 824.889, 1138.853 824.660, 1140.132 818.666 C 1141.177 813.768, 1141.510 782.727, 1141.750 667.750 L 1142.052 523 1139.526 523 C 1138.137 523, 1137 522.550, 1137 522 C 1137 521.450, 1138.077 521, 1139.393 521 L 1141.785 521 1142.625 503.250 C 1143.087 493.488, 1143.473 424.750, 1143.483 350.500 C 1143.499 226.714, 1143.356 214.711, 1141.767 206 C 1140.814 200.775, 1139.738 192.152, 1139.376 186.839 L 1138.717 177.177 1147.023 167.914 C 1161.112 152.200, 1164.777 149.929, 1179.243 147.944 C 1186.718 146.919, 1188.448 147.028, 1197.500 149.101 C 1211.480 152.302, 1219.602 152.203, 1229 148.720 C 1239.928 144.670, 1240.720 143.840, 1242.089 135 C 1243.203 127.810, 1243.129 123.219, 1241.388 91.500 L 1240.730 79.500 1235.615 73.861 C 1232.802 70.759, 1229.357 66.869, 1227.960 65.215 L 1225.420 62.207 1212.960 62.140 C 1190.305 62.017, 1154.496 58.453, 1130.623 53.945 C 1121.289 52.182, 1116.607 51.934, 1097.623 52.195 C 1080.655 52.429, 1072.937 52.108, 1064.500 50.816 C 1050.284 48.639, 1034.115 48.124, 1005 48.923 M 815.426 130.696 C 815.563 131.628, 816.198 132.566, 816.837 132.779 C 818.157 133.219, 818.255 132.829, 817.393 130.582 C 816.583 128.470, 815.112 128.556, 815.426 130.696 M 1399 130.878 C 1399 132.098, 1399.638 133, 1400.500 133 C 1401.325 133, 1402 132.605, 1402 132.122 C 1402 131.640, 1401.325 130.685, 1400.500 130 C 1399.247 128.960, 1399 129.104, 1399 130.878 M 842.707 350.919 L 840.983 353.837 843.888 354.475 C 846.542 355.058, 854 352.920, 854 351.577 C 854 350.682, 848.201 348, 846.265 348 C 845.257 348, 843.655 349.313, 842.707 350.919 M 1426.615 350.465 C 1424.531 353.645, 1424.537 353.667, 1427.601 354.436 C 1430.755 355.228, 1437 353.332, 1437 351.583 C 1437 350.153, 1432.835 348, 1430.068 348 C 1429.057 348, 1427.503 349.109, 1426.615 350.465" stroke="none" fill="black" fill-rule="evenodd"/>
</svg>