<svg xmlns="http://www.w3.org/2000/svg" width="2000" height="857" viewBox="0 0 2000 857" version="1.1">
	<path d="M 1285.250 361.305 C 1282.275 362.851, 1282.372 363.442, 1286.627 369.620 C 1290.046 374.584, 1293.958 384.631, 1305.506 418.108 C 1307.898 425.042, 1311.012 433.464, 1312.426 436.824 C 1313.840 440.184, 1316.108 447.310, 1317.466 452.661 L 1319.934 462.390 1318.852 498.458 C 1317.780 534.174, 1318.287 546.687, 1320.912 549.312 C 1322.013 550.413, 1344.626 550.707, 1345.699 549.635 C 1347.438 547.895, 1347.909 533.489, 1347.354 499 L 1346.751 461.500 1350.880 445.500 C 1353.152 436.700, 1356.362 424.775, 1358.015 419 C 1359.668 413.225, 1362.081 404.675, 1363.376 400 C 1364.672 395.325, 1366.918 387.512, 1368.366 382.638 C 1369.815 377.764, 1371 373.100, 1371 372.274 C 1371 371.448, 1371.997 368.998, 1373.216 366.829 C 1375.112 363.456, 1375.220 362.751, 1373.966 361.958 C 1371.940 360.676, 1356.554 360.392, 1351.286 361.538 C 1348.950 362.047, 1348.415 363.512, 1346.108 375.726 C 1345.461 379.150, 1343.653 385, 1342.089 388.726 C 1340.526 392.451, 1338.714 397.788, 1338.064 400.584 C 1337.413 403.380, 1335.975 407.157, 1334.868 408.976 C 1333.185 411.744, 1332.651 412.057, 1331.600 410.892 C 1329.279 408.321, 1321.680 389.619, 1317.435 376.036 C 1312.565 360.447, 1313.908 361.499, 1297.799 360.667 C 1290.905 360.311, 1286.756 360.522, 1285.250 361.305 M 1492 363.067 C 1488.975 364.058, 1485.487 364.897, 1484.250 364.934 C 1483.013 364.970, 1482 365.498, 1482 366.107 C 1482 366.716, 1481.283 366.939, 1480.407 366.603 C 1479.324 366.187, 1476.572 368.153, 1471.809 372.746 C 1464.090 380.189, 1461.572 384.077, 1462.527 387.085 C 1462.912 388.297, 1462.300 390.514, 1460.953 392.785 C 1458.856 396.320, 1458.758 397.491, 1458.927 417 C 1459.068 433.334, 1459.409 437.967, 1460.608 439.800 C 1461.896 441.770, 1462.085 448.452, 1461.928 486.465 L 1461.744 530.831 1464.057 534.166 C 1465.329 536, 1468.021 539.525, 1470.039 542 C 1472.057 544.475, 1474.262 547.555, 1474.940 548.845 C 1476.777 552.341, 1486.115 556.204, 1494.113 556.776 C 1499.586 557.168, 1502.533 556.755, 1509.207 554.666 C 1519.198 551.537, 1521.742 549.864, 1523.720 545.119 C 1524.550 543.129, 1526.012 540.375, 1526.969 539 C 1527.925 537.625, 1528.989 535.336, 1529.332 533.912 C 1529.676 532.489, 1530.873 530.160, 1531.994 528.735 C 1533.997 526.188, 1534.031 525.028, 1534.050 458.376 C 1534.069 393.164, 1533.996 390.454, 1532.115 386.553 C 1531.040 384.324, 1529.337 380.479, 1528.330 378.009 C 1525.220 370.379, 1521.746 367.318, 1513.160 364.647 C 1502.288 361.264, 1498.397 360.973, 1492 363.067 M 1860.832 363.868 C 1857.714 364.766, 1854.857 365.806, 1854.484 366.181 C 1854.110 366.556, 1853.222 366.639, 1852.509 366.365 C 1850.941 365.763, 1838.446 377.238, 1836.435 381.126 C 1835.646 382.652, 1835 385.437, 1835 387.315 C 1835 389.216, 1834.113 391.858, 1833 393.273 C 1831.146 395.630, 1831.003 397.300, 1831.035 416.158 C 1831.063 431.907, 1831.394 437.064, 1832.500 439 C 1833.679 441.062, 1833.935 449.321, 1833.965 486.110 L 1834 530.721 1836.599 534.610 C 1838.029 536.750, 1840.433 539.850, 1841.942 541.500 C 1843.451 543.150, 1845.660 546.134, 1846.850 548.130 C 1851.235 555.484, 1866.008 558.890, 1878.783 555.493 C 1888.853 552.814, 1894.834 549.530, 1895.629 546.242 C 1895.993 544.734, 1897.143 542.282, 1898.182 540.794 C 1899.222 539.306, 1900.569 536.606, 1901.175 534.794 C 1901.781 532.982, 1903.123 530.562, 1904.157 529.416 C 1905.957 527.420, 1906.039 524.422, 1906.091 458.652 C 1906.144 392.349, 1906.079 389.860, 1904.201 386.736 C 1903.132 384.956, 1901.942 382.150, 1901.558 380.500 C 1900.298 375.096, 1895.195 368.295, 1891.203 366.701 C 1878.806 361.748, 1870.792 361.001, 1860.832 363.868 M 1566.202 364.857 C 1563.838 365.816, 1559.464 368.507, 1556.481 370.837 C 1552.257 374.136, 1550.808 376.003, 1549.925 379.286 C 1549.301 381.604, 1547.460 386.817, 1545.835 390.872 L 1542.879 398.243 1543.481 455.372 C 1544.026 507.057, 1544.272 513.388, 1546.061 521.821 C 1547.148 526.948, 1549.114 533.266, 1550.430 535.861 C 1553.034 541, 1560.501 548.480, 1564.573 550.028 C 1565.979 550.562, 1572.613 550.996, 1579.315 550.991 C 1590.919 550.982, 1591.741 550.843, 1596.548 548.086 C 1602.708 544.552, 1606.359 539.482, 1609.564 530.008 C 1613.206 519.244, 1612.781 504.185, 1608.677 498.573 C 1606.979 496.251, 1598.582 495.323, 1593.737 496.922 L 1590.241 498.076 1589.824 506.788 C 1589.302 517.678, 1586.999 523.046, 1582.283 524.368 C 1580.066 524.990, 1578.100 524.870, 1575.956 523.982 C 1569.529 521.320, 1569.779 524.028, 1569.945 458.872 C 1570.106 395.562, 1570.140 395.117, 1575.117 391.631 C 1578.609 389.185, 1581.260 389.641, 1584.804 393.298 C 1587.633 396.217, 1588 397.244, 1588 402.251 C 1588 408.412, 1589.404 412.557, 1591.803 413.478 C 1592.645 413.801, 1595.933 414.337, 1599.108 414.669 C 1604.579 415.241, 1605.042 415.112, 1607.941 412.213 C 1610.713 409.441, 1610.999 408.561, 1610.984 402.827 C 1610.966 395.241, 1608.957 386.110, 1606.474 382.320 C 1605.481 380.804, 1604.608 378.441, 1604.535 377.069 C 1604.343 373.486, 1593.305 366.005, 1588.186 365.988 C 1586.159 365.982, 1582.025 365.312, 1579 364.500 C 1572.201 362.675, 1571.529 362.694, 1566.202 364.857 M 180.277 366.362 C 179.984 366.836, 180.364 367.607, 181.122 368.076 C 182.276 368.790, 182.500 383.437, 182.500 458.214 C 182.500 507.321, 182.874 548.258, 183.332 549.185 C 185.027 552.618, 203.517 554.492, 206.013 551.484 C 206.930 550.379, 207.103 547.464, 206.651 540.734 C 206.310 535.655, 205.943 518.271, 205.836 502.103 L 205.640 472.706 208.237 470.472 C 210.429 468.587, 211.478 468.356, 214.957 468.992 C 217.224 469.407, 219.302 469.969, 219.574 470.241 C 221.504 472.171, 222.120 486.296, 221.485 514.093 C 220.620 551.947, 220.209 550.456, 231.806 551.483 C 237.023 551.945, 241.035 551.770, 243.725 550.964 C 247.293 549.895, 247.851 549.315, 248.378 546.125 C 249.454 539.619, 249.031 525.217, 247.603 519.734 C 246.509 515.535, 246.443 513.189, 247.297 508.935 C 248.372 503.579, 248.428 496.042, 248.035 408.724 C 247.820 360.795, 249.058 364.900, 235.011 365.552 C 220.927 366.206, 221.387 365.927, 220.609 374.299 C 220.240 378.260, 220.211 395, 220.543 411.500 C 220.879 428.200, 220.757 442.050, 220.269 442.741 C 218.854 444.745, 209.040 444.775, 207.581 442.780 C 206.780 441.685, 204.510 440.990, 200.933 440.744 L 195.500 440.370 200.791 440.185 L 206.082 440 206.089 406.750 C 206.093 388.462, 206.187 372.171, 206.298 370.546 C 206.609 366, 203.511 364.913, 191.155 365.233 C 185.465 365.380, 180.570 365.888, 180.277 366.362 M 413.269 365.766 C 410.693 366.191, 409.324 370.023, 406.488 384.750 C 405.508 389.837, 404.385 394, 403.992 394 C 403.599 394, 403.491 395.119, 403.753 396.488 C 404.082 398.209, 403.705 399.176, 402.530 399.627 C 401.239 400.122, 401.138 400.467, 402.106 401.066 C 403.656 402.024, 402.556 408.206, 398.024 424 C 391.883 445.405, 381.107 489.584, 378.999 502 C 378.392 505.575, 375.894 516.247, 373.448 525.716 C 368.232 545.907, 368.041 548.325, 371.485 550.582 C 373.593 551.963, 375.372 552.081, 383.189 551.355 L 392.407 550.500 393.563 542.383 C 395.310 530.118, 398.061 519.939, 400.209 517.791 C 401.988 516.012, 403.303 515.903, 417.688 516.354 C 426.243 516.623, 433.577 517.215, 433.986 517.671 C 434.395 518.127, 435.284 521.419, 435.962 524.987 C 436.640 528.555, 437.773 532.605, 438.480 533.987 C 439.188 535.369, 440.079 539.229, 440.460 542.565 C 440.841 545.901, 441.527 549.235, 441.985 549.975 C 443.169 551.891, 462.881 552.706, 466.979 551.009 C 468.640 550.321, 469.992 549.474, 469.983 549.129 C 469.973 548.783, 469.039 545.125, 467.906 541 C 466.774 536.875, 465.445 529.900, 464.953 525.500 C 463.039 508.357, 462.712 506.451, 461.437 504.988 C 460.713 504.156, 459.674 500.706, 459.129 497.322 C 458.584 493.937, 457.423 489.786, 456.550 488.096 C 455.676 486.407, 453.879 479.957, 452.556 473.762 C 451.232 467.568, 447.832 452.600, 444.998 440.500 C 442.165 428.400, 439.473 415.350, 439.017 411.500 C 438.561 407.650, 437.509 402.642, 436.681 400.371 C 435.852 398.100, 434.853 393.600, 434.460 390.371 C 434.067 387.142, 433.108 383.248, 432.330 381.717 C 431.551 380.186, 430.018 376.032, 428.923 372.486 L 426.931 366.038 422.077 366.147 C 419.408 366.207, 416.836 366.063, 416.362 365.827 C 415.888 365.591, 414.496 365.563, 413.269 365.766 M 1077.439 366.015 C 1075.143 366.885, 1074.007 370.109, 1071.457 383 C 1070.533 387.675, 1069.531 392.175, 1069.230 393 C 1068.930 393.825, 1068.785 395.107, 1068.909 395.848 C 1069.032 396.589, 1068.358 398.052, 1067.411 399.098 C 1066.334 400.288, 1066.139 401, 1066.890 401 C 1068.547 401, 1067.711 405.350, 1062.473 424 C 1054.752 451.488, 1045.641 489.075, 1043.444 502.500 C 1042.718 506.940, 1039.511 520.338, 1035.585 535.343 C 1031.527 550.849, 1032.755 552.506, 1047.500 551.423 L 1056.918 550.732 1057.495 546.116 C 1058.569 537.522, 1060.155 529.707, 1062.109 523.381 C 1064.471 515.735, 1064.498 515.727, 1083.918 516.325 C 1099.227 516.797, 1099.324 516.849, 1100.429 525.175 C 1100.804 528.001, 1101.824 531.692, 1102.695 533.378 C 1103.567 535.063, 1104.618 539.519, 1105.031 543.278 C 1105.443 547.038, 1106.059 550.393, 1106.399 550.733 C 1107.596 551.930, 1128.442 552.214, 1131.374 551.073 C 1134.085 550.019, 1134.210 549.714, 1133.580 545.728 C 1133.212 543.402, 1132.031 538.640, 1130.955 535.145 C 1129.880 531.649, 1128.999 526.699, 1128.999 524.145 C 1128.997 518.139, 1126.511 505.111, 1125.096 503.696 C 1124.493 503.093, 1124 500.876, 1124 498.770 C 1124 496.663, 1122.861 492.232, 1121.468 488.924 C 1120.075 485.615, 1118.071 478.766, 1117.013 473.704 C 1115.956 468.642, 1112.644 453.925, 1109.653 441 C 1106.663 428.075, 1103.905 414.875, 1103.526 411.667 C 1103.146 408.459, 1101.972 403.327, 1100.918 400.261 C 1099.863 397.195, 1099 392.991, 1099 390.919 C 1099 388.847, 1097.643 383.761, 1095.983 379.617 C 1094.324 375.474, 1092.694 370.718, 1092.360 369.049 C 1091.772 366.111, 1091.587 366.019, 1086.490 366.137 C 1083.595 366.203, 1080.838 366.028, 1080.363 365.746 C 1079.888 365.465, 1078.572 365.586, 1077.439 366.015 M 481 367.257 C 478.859 368.392, 478.552 369.150, 478.861 372.541 C 479.060 374.718, 479.316 412.950, 479.429 457.500 C 479.542 502.050, 479.717 540.627, 479.817 543.227 C 480.127 551.236, 480.059 551.220, 514.507 551.054 C 530.764 550.976, 544.726 550.659, 545.533 550.349 C 547.522 549.586, 547.569 534.298, 545.597 529.577 C 543.628 524.865, 539.148 523.477, 531.052 525.070 C 523.820 526.492, 517.010 525.892, 513.375 523.510 L 510.722 521.772 511.235 509.108 C 511.892 492.918, 511.292 486.243, 509.128 485.666 C 507.718 485.290, 507.733 485.216, 509.238 485.116 C 510.874 485.007, 510.952 481.545, 510.562 426.873 C 510.333 394.903, 509.776 368.389, 509.323 367.953 C 508.870 367.517, 502.875 366.884, 496 366.546 C 486.567 366.083, 482.887 366.257, 481 367.257 M 576.500 368.823 C 568.133 372.929, 562.640 378.992, 560.514 386.470 C 559.580 389.753, 557.882 394.253, 556.740 396.470 C 554.916 400.009, 554.687 402.069, 554.857 413.365 C 555.033 425.056, 555.276 426.616, 557.525 430.453 C 558.886 432.775, 560 435.379, 560 436.240 C 560 438.428, 573.042 455.110, 581.313 463.500 C 587.521 469.798, 588.296 470.299, 589.036 468.500 C 589.667 466.968, 589.876 467.457, 589.930 470.591 C 589.968 472.841, 590.694 476.891, 591.542 479.591 C 592.623 483.030, 593.070 488.485, 593.035 497.809 C 592.990 510.025, 592.781 511.503, 590.493 515.801 C 588.856 518.875, 588 522.094, 588 525.171 C 588 529.991, 586.220 533, 583.370 533 C 582.551 533, 582.135 533.409, 582.444 533.910 C 583.142 535.039, 582.076 538, 580.972 538 C 580.525 538, 579.862 536.650, 579.500 535 C 579.138 533.350, 578.404 532, 577.870 532 C 575.458 532, 573.786 524.306, 573.530 512.033 L 573.269 499.500 568.885 498.330 C 561.833 496.450, 555.243 496.659, 554.568 498.786 C 554.256 499.768, 553.889 507.554, 553.751 516.088 L 553.500 531.604 556.324 534.967 C 557.877 536.816, 559.839 540.056, 560.683 542.166 C 561.961 545.359, 563.271 546.504, 568.502 549.001 C 571.958 550.650, 575.172 552.013, 575.643 552.028 C 576.114 552.043, 578.205 553.346, 580.289 554.924 C 584.759 558.308, 585.579 558.190, 596 552.664 C 605.058 547.862, 607.719 545.588, 609.635 541.014 C 610.438 539.096, 611.916 536.621, 612.918 535.514 C 614.299 533.988, 614.934 530.954, 615.540 523 C 615.980 517.225, 616.288 510.925, 616.224 509 C 616.065 504.193, 616.126 484.132, 616.329 474.924 C 616.477 468.182, 616.193 466.890, 613.748 463.195 C 612.236 460.911, 610.993 458.246, 610.985 457.271 C 610.973 455.906, 610.774 455.809, 610.116 456.847 C 609.497 457.823, 608.242 456.514, 605.560 452.098 C 603.523 448.746, 598.966 443.449, 595.433 440.327 C 585.363 431.432, 578 418.724, 578 410.240 C 578 402.606, 580.287 393.920, 582.821 391.926 C 586.929 388.694, 591.221 389.396, 595.358 393.975 C 599.345 398.387, 600.543 401.700, 599.564 405.601 C 599.205 407.031, 599.409 409.709, 600.017 411.552 C 601.037 414.643, 601.327 414.826, 603.735 413.911 C 605.172 413.364, 607.607 413.194, 609.145 413.532 C 613.310 414.447, 617.832 411.413, 618.628 407.169 C 619.603 401.974, 618.359 392.041, 615.907 385.434 C 610.773 371.599, 604.553 366.895, 590.541 366.249 C 583.258 365.913, 581.934 366.156, 576.500 368.823 M 1385.976 367.336 C 1383.853 368.404, 1383.552 369.146, 1383.861 372.541 C 1384.060 374.718, 1384.316 412.950, 1384.429 457.500 C 1384.542 502.050, 1384.717 540.627, 1384.817 543.227 C 1385.125 551.199, 1385.031 551.178, 1419.453 551.045 C 1435.712 550.983, 1449.686 550.674, 1450.507 550.359 C 1451.672 549.912, 1452 547.886, 1451.998 541.143 C 1451.996 526.307, 1448.585 522.845, 1436.194 525.100 C 1428.652 526.472, 1421.995 525.882, 1418.392 523.521 L 1415.754 521.793 1416.053 508.146 C 1416.486 488.372, 1416.314 486.229, 1414.250 485.689 C 1412.617 485.263, 1412.615 485.224, 1414.227 485.116 C 1415.848 485.007, 1415.929 481.403, 1415.537 426.860 C 1415.308 394.883, 1414.755 368.384, 1414.310 367.973 C 1412.752 366.538, 1388.641 365.995, 1385.976 367.336 M 1656.568 371.294 C 1655.763 374.157, 1654.345 380.438, 1653.416 385.250 C 1652.486 390.063, 1651.380 394, 1650.957 394 C 1650.534 394, 1650.437 394.957, 1650.743 396.126 C 1651.113 397.539, 1650.705 398.586, 1649.530 399.243 C 1648.146 400.017, 1648.046 400.410, 1649.070 401.043 C 1650.667 402.030, 1649.579 408.167, 1645.001 424 C 1643.331 429.775, 1641.784 435.234, 1641.563 436.132 C 1641.341 437.029, 1638.942 446.479, 1636.231 457.132 C 1633.519 467.784, 1630.067 482.575, 1628.559 490 C 1627.051 497.425, 1623.602 512.500, 1620.894 523.500 C 1618.187 534.500, 1615.978 544.727, 1615.986 546.227 C 1616.011 551.101, 1619.471 552.350, 1630.189 551.355 L 1639.407 550.500 1640.563 542.383 C 1642.110 531.520, 1644.785 520.952, 1646.607 518.500 C 1647.974 516.661, 1649.275 516.498, 1662.797 516.470 C 1670.884 516.454, 1678.427 516.747, 1679.559 517.123 C 1681.176 517.659, 1681.886 519.257, 1682.862 524.554 C 1683.546 528.266, 1684.704 532.473, 1685.436 533.902 C 1686.168 535.331, 1687.079 539.229, 1687.460 542.565 C 1687.841 545.901, 1688.527 549.235, 1688.985 549.975 C 1690.169 551.891, 1709.881 552.706, 1713.979 551.009 C 1715.640 550.321, 1717 549.444, 1717 549.061 C 1717 548.678, 1716.068 545.020, 1714.930 540.932 C 1713.791 536.845, 1712.455 529.900, 1711.960 525.500 C 1710.019 508.245, 1709.711 506.450, 1708.437 504.988 C 1707.713 504.156, 1706.674 500.706, 1706.129 497.322 C 1705.584 493.937, 1704.423 489.786, 1703.550 488.096 C 1702.676 486.407, 1700.879 479.957, 1699.556 473.762 C 1698.232 467.568, 1694.832 452.600, 1691.998 440.500 C 1689.165 428.400, 1686.471 415.350, 1686.011 411.500 C 1685.552 407.650, 1684.321 402.025, 1683.275 399 C 1682.230 395.975, 1681.249 391.488, 1681.095 389.029 C 1680.941 386.570, 1680.014 382.970, 1679.034 381.029 C 1678.055 379.088, 1676.517 374.940, 1675.617 371.811 L 1673.980 366.123 1666.005 366.105 L 1658.030 366.088 1656.568 371.294 M 738.866 368.015 C 737.381 368.883, 737.221 375.076, 737.123 435.735 C 737.063 472.456, 736.720 513.152, 736.361 526.172 L 735.707 549.844 740.009 551.002 C 743.730 552.004, 745.403 551.850, 752.405 549.859 C 756.857 548.593, 760.828 547.095, 761.230 546.529 C 762.114 545.282, 762.559 525.764, 762.062 510 C 761.465 491.059, 761.449 443.601, 762.019 380.819 C 762.116 370.108, 761.959 369.048, 760.128 368.069 C 757.662 366.749, 741.105 366.708, 738.866 368.015 M 1800.750 367.646 C 1799.787 367.921, 1798.984 368.676, 1798.965 369.323 C 1798.946 369.970, 1798.735 410.874, 1798.496 460.219 L 1798.062 549.938 1802.003 551.119 C 1805.400 552.137, 1806.848 552.003, 1812.493 550.150 C 1816.095 548.967, 1819.933 548, 1821.021 548 C 1822.181 548, 1823.064 547.275, 1823.153 546.250 C 1823.505 542.245, 1824.098 518.014, 1823.992 512 C 1823.929 508.425, 1823.792 474.825, 1823.689 437.334 C 1823.585 399.842, 1823.126 368.792, 1822.669 368.334 C 1821.754 367.416, 1803.547 366.845, 1800.750 367.646 M 127.547 368.796 C 123.173 368.958, 119.092 369.509, 118.478 370.018 C 116.977 371.264, 116.491 544.531, 117.978 548.441 L 118.993 551.111 141.620 550.747 C 167.363 550.333, 167 550.458, 167 542 C 167 534.340, 165.700 533.441, 155.214 533.845 C 144.299 534.266, 140.571 532.818, 139.610 527.786 C 139.265 525.979, 138.700 512.784, 138.355 498.464 C 137.798 475.356, 137.914 472.066, 139.389 469.214 C 140.944 466.207, 144.366 464.807, 145.167 466.851 C 145.593 467.938, 159.234 466.480, 161.879 465.065 C 165.335 463.215, 166.051 446.228, 162.689 445.875 C 162.035 445.806, 158.927 445.806, 155.782 445.874 C 151.082 445.975, 150.166 445.731, 150.639 444.499 C 150.955 443.674, 150.716 443, 150.107 443 C 149.498 443, 149 443.675, 149 444.500 C 149 447.898, 140.585 444.541, 139.689 440.785 C 139.228 438.851, 138.563 402.124, 138.891 396.705 C 138.951 395.717, 140.105 393.805, 141.455 392.455 C 143.519 390.390, 144.869 390, 149.955 390 C 154.116 390, 156.005 390.390, 156.015 391.250 C 156.026 392.155, 156.271 392.120, 156.904 391.122 C 157.384 390.364, 158.302 390.069, 158.945 390.466 C 161.107 391.802, 164.731 390.064, 165.957 387.104 C 167.304 383.852, 166.557 374.678, 164.649 371.034 C 163.557 368.949, 162.810 368.832, 149.500 368.670 C 141.800 368.577, 131.921 368.633, 127.547 368.796 M 259.723 369.244 C 254.766 370.716, 254.427 372.420, 256.398 385.906 C 257.279 391.933, 258 400.179, 258 404.232 C 258 408.753, 258.483 412.112, 259.250 412.925 C 260.208 413.940, 260.220 414.353, 259.302 414.691 C 258.396 415.025, 258.091 426.850, 258.048 463.316 C 258.016 490.366, 257.518 515.976, 256.912 521.704 C 255.948 530.823, 256.018 532.223, 257.574 534.855 C 259.279 537.742, 259.532 537.816, 270.034 538.502 C 281.292 539.238, 284.047 538.649, 285.944 535.105 C 286.605 533.870, 286.580 532.134, 285.869 529.878 C 284.530 525.631, 284.040 475.980, 285.320 474.250 C 286.688 472.401, 291.449 472.734, 293.327 474.809 C 294.732 476.361, 295.029 480.405, 295.415 503.218 C 295.830 527.706, 296.031 530.141, 297.953 533.908 C 300.290 538.489, 300.691 538.601, 306.955 536.420 C 309.828 535.419, 313.023 535.076, 315.955 535.453 C 324.403 536.539, 325.049 534.783, 323.848 514 C 323.324 504.925, 323.171 495.181, 323.508 492.346 C 323.917 488.897, 323.734 486.954, 322.953 486.471 C 322.075 485.929, 322.092 485.561, 323.020 484.988 C 323.998 484.383, 323.996 483.150, 323.010 479.042 C 321.869 474.286, 322.102 468.503, 323.592 464.620 C 324.021 463.502, 322.925 462.452, 319.684 460.877 C 317.206 459.673, 314.673 457.578, 314.055 456.221 C 312.891 453.667, 312.809 453.875, 317.560 447.333 C 318.872 445.526, 319.215 440.495, 319.624 417.018 C 320.229 382.294, 319.851 379.809, 313.208 374.849 C 309.287 371.922, 307.114 371.129, 300.490 370.208 C 296.095 369.598, 289.800 369.171, 286.500 369.261 C 283.200 369.351, 276.675 369.131, 272 368.773 C 266.688 368.366, 262.083 368.543, 259.723 369.244 M 674.573 370 C 672.919 371.931, 672.343 544.140, 673.976 548.436 L 674.993 551.111 697.620 550.747 C 723.363 550.333, 723 550.458, 723 542 C 723 534.340, 721.700 533.441, 711.214 533.845 C 700.299 534.266, 696.571 532.818, 695.610 527.786 C 695.265 525.979, 694.700 512.784, 694.355 498.464 C 693.798 475.356, 693.914 472.066, 695.389 469.214 C 696.597 466.878, 697.744 466, 699.585 466 C 700.978 466, 701.882 466.382, 701.593 466.850 C 700.967 467.863, 709.926 467.214, 715.294 465.858 C 718.023 465.168, 719.383 464.142, 720.139 462.200 C 721.450 458.832, 720.628 447.006, 719.014 446.008 C 718.356 445.602, 715.168 445.446, 711.929 445.663 C 706.959 445.996, 706.132 445.819, 706.627 444.529 C 706.950 443.688, 706.716 443, 706.107 443 C 705.498 443, 705 443.675, 705 444.500 C 705 447.898, 696.585 444.541, 695.689 440.785 C 695.228 438.851, 694.563 402.124, 694.891 396.705 C 694.951 395.717, 696.105 393.805, 697.455 392.455 C 699.519 390.390, 700.869 390, 705.955 390 C 710.116 390, 712.005 390.390, 712.015 391.250 C 712.026 392.096, 712.268 392.151, 712.765 391.420 C 713.169 390.827, 714.793 390.377, 716.372 390.420 C 718.389 390.476, 719.858 389.687, 721.303 387.770 C 723.209 385.241, 723.280 384.511, 722.255 377.894 C 721.647 373.965, 720.724 370.324, 720.204 369.804 C 719.680 369.280, 709.587 368.779, 697.558 368.679 C 679.351 368.529, 675.651 368.741, 674.573 370 M 776.250 369.745 L 773 371.363 772.864 379.931 C 772.789 384.644, 772.588 419.325, 772.417 457 C 772.246 494.675, 771.893 531.125, 771.633 538 C 771.373 544.875, 771.381 551.292, 771.651 552.261 C 771.921 553.229, 773.494 554.721, 775.148 555.576 C 778.974 557.555, 790.431 557.969, 792.207 556.193 C 793.447 554.953, 793.890 526.435, 793.080 500 C 792.597 484.228, 796.139 481.790, 802.094 493.796 C 811.349 512.453, 818.560 530.767, 824.695 551.193 C 825.040 552.342, 827.403 553.386, 832.049 554.443 C 840.915 556.459, 842.826 556.403, 846.750 554.011 C 849.662 552.235, 850 551.549, 850 547.408 C 850 543.710, 849.700 542.901, 848.500 543.362 C 847.675 543.678, 847 543.487, 847 542.937 C 847 542.387, 847.642 541.691, 848.427 541.390 C 849.620 540.932, 849.871 535.283, 849.961 506.769 C 850.021 488.029, 850.304 472.317, 850.590 471.854 C 850.877 471.390, 850.620 467.521, 850.021 463.256 C 849.343 458.433, 849.247 453.006, 849.768 448.907 C 850.345 444.358, 850.184 439.864, 849.247 434.407 C 848.175 428.160, 848.107 423.352, 848.922 411.500 C 849.489 403.250, 849.725 391.325, 849.446 385 C 848.980 374.451, 848.734 373.295, 846.466 371.019 C 844.366 368.912, 842.862 368.481, 836.488 368.160 C 830.863 367.875, 828.386 368.173, 826.594 369.346 L 824.204 370.912 824.566 392.936 C 824.850 410.248, 825.256 415.595, 826.464 417.930 C 828.506 421.880, 828.401 424.293, 825.980 429.040 C 822.047 436.749, 816.453 433.244, 812.419 420.541 C 811.078 416.319, 809.327 411.599, 808.528 410.054 C 807.728 408.508, 806.160 403.926, 805.042 399.872 C 803.924 395.817, 800.463 387.486, 797.351 381.357 L 791.692 370.214 786.179 369.107 C 779.599 367.786, 780.275 367.742, 776.250 369.745 M 877.559 368.786 C 871.542 368.943, 866.111 369.493, 865.490 370.008 C 863.979 371.262, 863.480 544.503, 864.976 548.436 L 865.989 551.101 888.629 550.727 C 909.330 550.384, 911.386 550.192, 912.635 548.485 C 914.443 546.012, 914.379 537.986, 912.530 535.346 C 911.175 533.412, 910.370 533.287, 902.227 533.751 C 891.415 534.368, 887.588 532.906, 886.610 527.786 C 886.265 525.979, 885.700 512.784, 885.355 498.464 C 884.798 475.356, 884.914 472.066, 886.389 469.214 C 887.597 466.878, 888.744 466, 890.585 466 C 891.978 466, 892.888 466.373, 892.606 466.828 C 891.923 467.933, 902.582 467.041, 907 465.623 C 910.102 464.628, 910.601 463.979, 911.388 459.911 C 911.876 457.386, 911.961 453.224, 911.576 450.661 C 910.807 445.532, 910.797 445.527, 901.764 445.896 C 897.621 446.066, 897.099 445.865, 897.596 444.295 C 898.119 442.640, 898.044 442.646, 896.633 444.371 C 894.955 446.422, 891.951 446.147, 888.500 443.626 C 886.639 442.266, 886.460 440.652, 885.928 420.332 C 885.298 396.263, 885.844 392.770, 890.517 390.994 C 894.346 389.538, 902.997 389.715, 903.015 391.250 C 903.026 392.096, 903.268 392.151, 903.765 391.420 C 904.169 390.827, 905.793 390.377, 907.372 390.420 C 909.373 390.476, 910.855 389.691, 912.255 387.833 C 914.101 385.385, 914.178 384.574, 913.194 377.944 C 912.605 373.972, 911.717 370.317, 911.221 369.821 C 910.226 368.826, 894.512 368.343, 877.559 368.786 M 1146.744 369.139 C 1141.732 370.557, 1141.384 372.436, 1143.376 387.323 C 1144.272 394.020, 1145.004 402.223, 1145.003 405.550 C 1145.001 408.878, 1145.489 412.089, 1146.087 412.687 C 1146.870 413.470, 1146.870 413.962, 1146.087 414.446 C 1145.330 414.914, 1145 429.040, 1145 461.005 C 1145 486.242, 1144.520 512.505, 1143.934 519.367 C 1143.019 530.069, 1143.086 532.265, 1144.402 534.810 C 1145.922 537.750, 1146.038 537.784, 1156.976 538.498 C 1166.508 539.121, 1168.373 538.986, 1170.627 537.509 C 1173.030 535.934, 1173.181 535.430, 1172.529 531.149 C 1172.140 528.592, 1171.706 516.107, 1171.565 503.403 C 1171.423 490.700, 1171.008 479.822, 1170.641 479.228 C 1170.275 478.635, 1170.503 476.991, 1171.148 475.575 C 1172.065 473.562, 1173.045 473, 1175.637 473 C 1181.653 473, 1181.981 474.499, 1181.923 501.708 C 1181.870 526.388, 1182.501 531.927, 1185.835 536.045 C 1187.625 538.255, 1187.700 538.260, 1192.723 536.592 C 1196.280 535.411, 1199.278 535.101, 1202.724 535.558 C 1211.158 536.677, 1211.160 536.669, 1210.556 510.331 C 1210.273 497.980, 1209.749 487.403, 1209.392 486.826 C 1209.036 486.249, 1209.286 485.441, 1209.949 485.032 C 1210.885 484.453, 1210.890 483.307, 1209.968 479.893 C 1209.259 477.267, 1209.034 473.020, 1209.410 469.335 L 1210.038 463.171 1205.790 460.828 C 1203.287 459.447, 1201.157 457.388, 1200.604 455.815 C 1199.802 453.534, 1200.126 452.621, 1202.833 449.538 C 1205.581 446.407, 1206.006 445.175, 1206.043 440.215 C 1206.067 437.072, 1206.290 424.375, 1206.540 412 C 1207.118 383.343, 1206.578 380.294, 1200.002 375.096 C 1195.845 371.810, 1194.056 371.116, 1187.331 370.184 C 1183.024 369.586, 1176.800 369.171, 1173.500 369.261 C 1170.200 369.351, 1163.675 369.121, 1159 368.750 C 1153.861 368.343, 1149.015 368.496, 1146.744 369.139 M 1920.250 369.745 L 1917 371.363 1916.864 379.931 C 1916.789 384.644, 1916.588 419.325, 1916.417 457 C 1916.246 494.675, 1915.893 531.125, 1915.633 538 C 1915.373 544.875, 1915.381 551.292, 1915.651 552.261 C 1915.921 553.229, 1917.494 554.721, 1919.148 555.576 C 1922.974 557.555, 1934.431 557.969, 1936.207 556.193 C 1937.447 554.953, 1937.890 526.435, 1937.080 500 C 1936.597 484.228, 1940.139 481.790, 1946.094 493.796 C 1955.349 512.453, 1962.560 530.767, 1968.695 551.193 C 1969.040 552.342, 1971.403 553.386, 1976.049 554.443 C 1984.915 556.459, 1986.826 556.403, 1990.750 554.011 C 1993.662 552.235, 1994 551.549, 1994 547.408 C 1994 543.710, 1993.700 542.901, 1992.500 543.362 C 1991.675 543.678, 1991 543.487, 1991 542.937 C 1991 542.387, 1991.642 541.691, 1992.427 541.390 C 1993.620 540.932, 1993.871 535.283, 1993.961 506.769 C 1994.021 488.029, 1994.304 472.317, 1994.590 471.854 C 1994.877 471.390, 1994.620 467.521, 1994.021 463.256 C 1993.343 458.433, 1993.247 453.006, 1993.768 448.907 C 1994.345 444.358, 1994.184 439.864, 1993.247 434.407 C 1992.175 428.160, 1992.107 423.352, 1992.922 411.500 C 1993.489 403.250, 1993.725 391.325, 1993.446 385 C 1992.980 374.451, 1992.734 373.295, 1990.466 371.019 C 1988.366 368.912, 1986.862 368.481, 1980.488 368.160 C 1974.863 367.875, 1972.386 368.173, 1970.594 369.346 L 1968.204 370.912 1968.566 392.936 C 1968.850 410.248, 1969.256 415.595, 1970.464 417.930 C 1972.506 421.880, 1972.401 424.293, 1969.980 429.040 C 1966.047 436.749, 1960.453 433.244, 1956.419 420.541 C 1955.078 416.319, 1953.327 411.599, 1952.528 410.054 C 1951.728 408.508, 1950.160 403.926, 1949.042 399.872 C 1947.924 395.817, 1944.463 387.486, 1941.351 381.357 L 1935.692 370.214 1930.179 369.107 C 1923.599 367.786, 1924.275 367.742, 1920.250 369.745 M 10.250 372.515 C 8.462 373.279, 6.972 374.488, 6.939 375.202 C 6.452 385.516, 7.325 490.578, 7.899 490.782 C 8.335 490.937, 8.365 493.187, 7.967 495.782 C 6.090 508.003, 6.249 533.067, 8.248 540 C 9.305 543.668, 10.254 544.848, 13.380 546.384 C 16.980 548.152, 17.425 548.168, 20.630 546.639 C 22.509 545.744, 24.470 543.894, 24.989 542.529 C 26.190 539.371, 25.313 467.366, 23.897 452.886 C 23.026 443.973, 23.103 441.689, 24.379 438.636 C 25.214 436.636, 26.371 435, 26.949 435 C 27.527 435, 28 435.157, 28 435.349 C 28 435.541, 29.825 441.938, 32.055 449.565 C 34.285 457.192, 36.555 467.048, 37.099 471.466 C 37.642 475.885, 38.517 482.512, 39.043 486.193 C 39.570 489.874, 40 495.303, 40 498.259 C 40 501.215, 40.451 506.078, 41.001 509.066 C 41.552 512.055, 42.171 518.892, 42.376 524.261 C 42.699 532.721, 43.093 534.542, 45.330 537.922 C 48.429 542.606, 52.204 543.777, 57.316 541.641 C 62.097 539.644, 63.052 537.426, 62.386 529.866 C 61.923 524.598, 62.441 521.146, 65.392 509.847 C 69.533 493.995, 72.448 472.047, 71.057 467.198 C 70.369 464.799, 70.497 463.646, 71.570 462.573 C 72.357 461.786, 73 460.282, 73 459.230 C 73 458.178, 73.728 455.109, 74.617 452.409 C 75.506 449.709, 76.519 445.255, 76.867 442.510 C 77.307 439.041, 77.994 437.427, 79.121 437.212 C 81.518 436.755, 81.981 439.981, 81.311 452.481 L 80.715 463.601 83.510 463.550 C 85.047 463.523, 86.499 464.063, 86.736 464.750 C 87.018 465.569, 86.127 466, 84.152 466 L 81.137 466 80.906 497.750 C 80.619 537.043, 80.649 537.714, 82.815 541.423 C 85.282 545.648, 89.362 546.618, 96.244 544.618 L 101.743 543.019 102.449 529.259 C 103.506 508.662, 102.862 383.202, 101.676 378.738 C 101.126 376.669, 100.048 374.455, 99.280 373.818 C 98.437 373.118, 93.703 372.617, 87.318 372.554 C 74.685 372.427, 75.780 371.400, 70.045 388.742 C 66.959 398.074, 66 402.540, 66 407.587 C 66 411.878, 64.983 417.767, 63.106 424.351 C 61.515 429.933, 59.927 438.239, 59.578 442.809 C 58.936 451.211, 57.584 455, 55.228 455 C 54.518 455, 53.660 454.212, 53.321 453.250 C 52.982 452.288, 51.810 449.477, 50.716 447.004 C 49.338 443.891, 48.600 439.586, 48.315 433.004 C 47.856 422.375, 45.929 410.773, 43.498 404 C 42.610 401.525, 40.997 395.108, 39.913 389.741 C 38.830 384.374, 37.526 378.884, 37.016 377.541 C 35.993 374.852, 32.290 373.517, 23 372.488 C 19.975 372.153, 16.600 371.710, 15.500 371.503 C 14.400 371.296, 12.038 371.752, 10.250 372.515 M 1219.043 373.199 C 1215.989 374.836, 1214.636 380.347, 1215.390 388.083 C 1216.233 396.726, 1216.237 396.731, 1224.079 397.174 C 1230.198 397.520, 1231.377 397.922, 1233.946 400.533 L 1236.863 403.500 1235.978 426 C 1235.491 438.375, 1234.959 451.874, 1234.796 455.999 L 1234.500 463.498 1237.428 463.534 C 1239.039 463.554, 1240.539 464.117, 1240.762 464.785 C 1241.029 465.588, 1239.950 466, 1237.583 466 C 1234.171 466, 1234 466.163, 1234 469.417 C 1234 471.296, 1234.563 473.023, 1235.250 473.254 C 1236.219 473.580, 1236.233 473.998, 1235.314 475.113 C 1234.455 476.154, 1234.040 487.391, 1233.814 515.731 C 1233.521 552.262, 1233.621 555.033, 1235.287 556.706 C 1237.696 559.125, 1255.103 559.357, 1257.375 557 C 1258.604 555.726, 1258.872 544.371, 1259.161 481.500 C 1259.347 440.800, 1259.129 406.476, 1258.675 405.225 C 1258.001 403.368, 1258.509 402.291, 1261.444 399.356 C 1264.946 395.854, 1265.197 395.774, 1271.269 396.227 C 1274.696 396.482, 1278.737 396.267, 1280.250 395.748 C 1282.931 394.828, 1283 394.612, 1283 387.076 C 1283 380.292, 1282.718 379.083, 1280.686 377.174 C 1278.836 375.437, 1277.156 375, 1272.322 375 C 1268.995 375, 1264.074 374.585, 1261.386 374.078 C 1258.699 373.571, 1248.625 372.870, 1239 372.519 C 1225.450 372.026, 1220.945 372.180, 1219.043 373.199 M 1726.063 373.191 C 1722.924 374.877, 1721.633 379.834, 1722.332 387.512 C 1723.173 396.735, 1723.166 396.727, 1731.079 397.174 C 1737.199 397.520, 1738.376 397.921, 1740.941 400.533 L 1743.854 403.500 1742.908 427.340 C 1742.388 440.453, 1741.859 453.927, 1741.731 457.284 L 1741.500 463.387 1744.417 463.443 C 1748.822 463.529, 1748.983 466, 1744.583 466 C 1741.171 466, 1741 466.163, 1741 469.417 C 1741 471.296, 1741.563 473.023, 1742.250 473.254 C 1743.196 473.573, 1743.223 474.018, 1742.358 475.087 C 1740.687 477.154, 1739.379 548.036, 1740.908 553.681 C 1742.027 557.816, 1742.100 557.869, 1747.573 558.552 C 1753.802 559.331, 1762.795 558.415, 1764.735 556.805 C 1765.739 555.971, 1766.067 546.315, 1766.234 512.619 C 1766.615 435.785, 1766.513 410.572, 1765.805 406.704 C 1765.210 403.448, 1765.497 402.476, 1767.820 399.876 C 1770.927 396.398, 1776.018 394.964, 1780.760 396.230 C 1783.003 396.828, 1784.875 396.691, 1786.760 395.790 C 1789.333 394.560, 1789.518 394.031, 1789.797 387.104 C 1790.057 380.627, 1789.822 379.440, 1787.872 377.364 C 1786.001 375.373, 1784.676 375, 1779.462 375 C 1776.058 375, 1771.074 374.585, 1768.386 374.078 C 1765.699 373.571, 1755.625 372.870, 1746 372.519 C 1732.498 372.028, 1727.943 372.181, 1726.063 373.191 M 995 374.036 C 991.425 374.437, 983.873 374.819, 978.218 374.883 C 969.028 374.988, 967.859 375.205, 967.218 376.933 C 966.553 378.723, 967.110 425.180, 968.345 470.900 C 968.736 485.387, 969.202 490.512, 970.184 491.135 C 971.260 491.817, 971.252 491.972, 970.142 491.985 C 969.192 491.995, 968.973 492.756, 969.414 494.513 C 969.761 495.895, 970.051 507.837, 970.059 521.050 C 970.076 550.560, 969.254 548.896, 983.830 548.913 C 998.001 548.930, 998.204 548.627, 996.156 530.610 C 995.600 525.721, 995.036 513.808, 994.901 504.137 L 994.658 486.553 997.079 485.876 C 998.410 485.504, 1002.650 485.130, 1006.500 485.046 C 1012.803 484.907, 1014.039 484.524, 1018.912 481.196 C 1027.410 475.393, 1028.126 473.944, 1028.967 460.852 C 1029.787 448.071, 1029.433 396.378, 1028.487 391 C 1028.149 389.075, 1026.299 385.103, 1024.375 382.174 C 1018.685 373.507, 1013.206 371.989, 995 374.036 M 1491.810 391.648 C 1488.210 392.661, 1484.999 408.679, 1484.696 427.132 C 1484.256 454.025, 1485.145 504.177, 1486.201 512 C 1487.210 519.477, 1487.737 520.891, 1490.574 523.750 C 1499.370 532.612, 1510.327 522.776, 1508.534 507.627 C 1508.135 504.257, 1507.627 478.693, 1507.406 450.818 C 1507.177 422.080, 1506.588 399.047, 1506.046 397.620 C 1505.520 396.237, 1504.057 394.439, 1502.795 393.626 C 1500.228 391.973, 1494.389 390.921, 1491.810 391.648 M 1863.165 392.835 C 1858.080 397.920, 1856.959 410.282, 1857.067 460.110 C 1857.191 517.483, 1858.228 524.116, 1867.444 526.450 C 1872.469 527.723, 1875.825 525.810, 1878.777 519.990 C 1880.815 515.971, 1880.993 514.557, 1880.472 506.500 C 1880.152 501.550, 1879.893 476.125, 1879.897 450 C 1879.902 415.559, 1879.573 401.564, 1878.702 399.094 C 1876.372 392.491, 1867.203 388.797, 1863.165 392.835 M 283.200 393.750 C 282.722 394.712, 282.397 404.900, 282.478 416.390 C 282.623 436.841, 282.674 437.318, 284.906 439.125 C 287.445 441.181, 290.200 440.410, 291.506 437.278 C 291.914 436.300, 292.164 426.725, 292.061 416 C 291.916 400.842, 291.549 395.999, 290.414 394.250 C 288.661 391.549, 284.440 391.256, 283.200 393.750 M 1170.018 393.478 C 1169.343 394.291, 1168.828 395.979, 1168.873 397.228 C 1168.918 398.478, 1169.078 407.890, 1169.228 418.145 C 1169.466 434.484, 1169.723 437.037, 1171.307 438.787 C 1173.342 441.036, 1176.554 440.702, 1177.948 438.097 C 1178.435 437.187, 1178.856 427.328, 1178.884 416.188 C 1178.930 397.343, 1178.797 395.797, 1176.967 393.967 C 1174.632 391.632, 1171.720 391.427, 1170.018 393.478 M 995.750 394.088 C 994.141 395.018, 994 397.671, 994 427.011 C 994 458.551, 994.025 458.946, 996.189 460.961 C 997.392 462.082, 998.957 463, 999.666 463 C 1001.593 463, 1004.068 458.652, 1004.004 455.380 C 1003.973 453.796, 1004.056 447.325, 1004.188 441 C 1004.669 417.924, 1003.802 396.355, 1002.338 395 C 1000.750 393.530, 997.496 393.080, 995.750 394.088 M 416.074 442.855 C 414.992 444.975, 413.797 449.138, 413.417 452.105 C 413.037 455.072, 410.822 463.800, 408.494 471.500 C 406.166 479.200, 403.947 486.936, 403.564 488.691 C 402.629 492.973, 404.314 496.034, 407.254 495.395 C 408.489 495.127, 413.325 494.888, 418 494.864 C 428.963 494.808, 430 493.982, 430 485.308 C 430 481.798, 428.910 473.881, 427.578 467.713 C 426.245 461.546, 424.896 453.275, 424.578 449.334 C 423.849 440.272, 423.336 439, 420.413 439 C 418.667 439, 417.522 440.017, 416.074 442.855 M 1082.184 440.278 C 1080.235 442.626, 1078 448.798, 1078 451.831 C 1078 453.423, 1075.750 462.186, 1073 471.304 C 1068.031 487.778, 1066.951 494.484, 1069.147 495.216 C 1069.778 495.426, 1072.933 495.287, 1076.158 494.907 C 1079.383 494.527, 1083.559 494.562, 1085.438 494.986 C 1091.214 496.289, 1093.373 494.445, 1094.245 487.471 C 1094.852 482.613, 1094.433 478.951, 1091.996 467.822 C 1090.348 460.300, 1088.955 451.975, 1088.900 449.322 C 1088.845 446.670, 1088.490 443.375, 1088.109 442 C 1087.324 439.159, 1083.931 438.173, 1082.184 440.278 M 1663.116 442.773 C 1662.057 444.849, 1660.884 448.786, 1660.509 451.523 C 1660.134 454.261, 1657.847 463.250, 1655.427 471.500 C 1649.128 492.975, 1648.962 495.112, 1653.590 495.092 C 1671.780 495.009, 1674.444 494.777, 1675.667 493.170 C 1677.672 490.532, 1677.215 479.921, 1674.571 467.713 C 1673.235 461.546, 1671.853 453.191, 1671.500 449.148 C 1670.694 439.902, 1670.330 439, 1667.413 439 C 1665.676 439, 1664.525 440.010, 1663.116 442.773" stroke="none" fill="black" fill-rule="evenodd"/>
</svg>