<svg xmlns="http://www.w3.org/2000/svg" width="2000" height="857" viewBox="0 0 2000 857" version="1.1">
	<path d="M 492.500 124.065 C 487.037 126.219, 471.709 130.456, 465.750 131.459 C 463.688 131.806, 462 132.659, 462 133.354 C 462 134.049, 461.332 135.491, 460.516 136.559 C 459.064 138.460, 459.020 138.453, 458.400 136.250 C 457.366 132.576, 453.842 133.519, 447.398 139.194 C 437.398 148.001, 420.579 165.204, 416.063 171.244 C 410.217 179.064, 409.119 182.606, 410.289 189.871 C 411.372 196.597, 410.268 199.781, 403.925 208.223 C 399.547 214.049, 398.471 219.991, 399.980 230 C 400.519 233.575, 400.969 255.302, 400.980 278.283 L 401 320.066 403.481 324.962 C 404.846 327.655, 406.443 330.156, 407.031 330.519 C 407.781 330.982, 408.053 365.543, 407.943 446.340 C 407.833 526.999, 408.113 562.715, 408.879 565.556 C 410.584 571.881, 422.405 588.951, 433.078 600.500 C 435.619 603.250, 439.616 608.760, 441.960 612.745 C 445.418 618.623, 447.286 620.636, 451.861 623.413 C 464.845 631.295, 485.692 637, 501.510 637 C 511.610 637, 543.394 627.817, 557.112 620.935 C 566.175 616.389, 569.346 612.939, 571.016 605.808 C 571.799 602.467, 574.568 596.954, 578.489 590.930 C 583.059 583.911, 584.910 580.046, 585.437 576.430 C 586.294 570.554, 587.634 568.310, 594.760 560.824 L 600.163 555.148 599.013 545.824 C 598.171 538.991, 597.995 492.818, 598.357 373 C 598.629 283.075, 599.135 207.025, 599.482 204 C 600.106 198.553, 600.060 198.427, 594.684 191 C 590.303 184.947, 588.929 182.053, 587.564 176 C 585.682 167.661, 577.535 151.206, 572.166 144.901 C 566.467 138.209, 556.585 133.480, 536.851 128.003 C 524.410 124.550, 509.636 121.990, 502.500 122.051 C 499.750 122.074, 495.250 122.981, 492.500 124.065 M 1328.005 133.322 C 1325.070 134.311, 1324.161 135.382, 1322.339 140 C 1319.851 146.307, 1314.347 170.522, 1310.345 192.770 C 1307.899 206.364, 1307.409 207.947, 1305.802 207.437 C 1303.612 206.742, 1303.285 209.497, 1305.415 210.700 C 1306.509 211.319, 1306.644 212.513, 1306.009 215.969 C 1305.558 218.426, 1304.809 220.571, 1304.344 220.734 C 1298.352 222.843, 1296.296 226, 1300.917 226 C 1302.762 226, 1304 226.516, 1304 227.285 C 1304 231.302, 1299.408 253.073, 1296.573 262.500 C 1294.753 268.550, 1292.327 276.875, 1291.181 281 C 1283.844 307.414, 1281.677 314.538, 1280.889 314.833 C 1280.400 315.017, 1280 316.505, 1280 318.141 C 1280 321.111, 1267.770 370.249, 1259.500 400.500 C 1257.095 409.300, 1254.186 421.900, 1253.035 428.500 C 1251.885 435.100, 1249.158 447.579, 1246.976 456.232 C 1244.794 464.885, 1242.320 476.360, 1241.478 481.732 C 1238.094 503.322, 1232.395 528.354, 1223.316 561.500 C 1217.274 583.560, 1213.020 602.688, 1213.008 607.849 C 1212.997 612.285, 1215.542 617.455, 1218.836 619.691 C 1221.113 621.237, 1223.534 621.485, 1235.500 621.399 C 1253.677 621.268, 1272.094 620.407, 1274.029 619.596 C 1275.188 619.110, 1275.995 615.164, 1277.373 603.228 C 1281.551 567.045, 1291.598 531.519, 1298.199 529.586 C 1303.403 528.063, 1332.555 527.726, 1342.505 529.075 C 1352.899 530.484, 1362.804 530.622, 1371.703 529.481 C 1375.980 528.932, 1377.710 529.214, 1381.415 531.065 C 1386.485 533.596, 1385.985 532.185, 1390.066 555.500 C 1391.766 565.213, 1392.911 568.854, 1396.072 574.603 C 1399.845 581.465, 1400.027 582.241, 1401.409 597.358 C 1402.389 608.073, 1403.417 614.191, 1404.670 616.755 C 1406.382 620.259, 1406.885 620.556, 1412.500 621.373 C 1415.800 621.853, 1429.525 622.303, 1443 622.373 L 1467.500 622.500 1473.250 619.676 C 1477.256 617.709, 1479 616.274, 1479 614.944 C 1479 612.204, 1470.606 579.619, 1468.066 572.500 C 1466.377 567.766, 1465.802 563.230, 1465.341 551 C 1464.920 539.820, 1464.094 532.713, 1462.380 525.500 C 1461.072 520, 1460.002 512.594, 1460.001 509.042 C 1460 502.936, 1459.797 502.376, 1456.269 498.764 L 1452.539 494.943 1451.446 482.212 C 1450.424 470.307, 1450.054 468.829, 1445.744 459.426 C 1439.922 446.724, 1437.018 436.366, 1432.588 412.500 C 1430.648 402.050, 1428.373 391.250, 1427.533 388.500 C 1424.024 377.020, 1398.999 267.636, 1398.991 263.742 C 1398.965 251.811, 1396.153 237.296, 1391.194 223.500 C 1386.526 210.513, 1386.113 208.607, 1385.488 197.165 C 1384.794 184.450, 1384.156 182.179, 1377.585 169 C 1376.350 166.525, 1374.330 161.125, 1373.096 157 C 1371.861 152.875, 1369.732 145.787, 1368.365 141.250 L 1365.879 133 1360.689 133.118 C 1357.835 133.183, 1354.150 133.536, 1352.500 133.903 C 1350.850 134.269, 1347.025 134.224, 1344 133.802 C 1340.975 133.380, 1336.925 132.834, 1335 132.589 C 1333.075 132.344, 1329.927 132.674, 1328.005 133.322 M 636.232 138.329 C 635.279 139.400, 633.103 140.867, 631.397 141.590 C 628.792 142.693, 627.873 144.089, 625.674 150.282 L 623.055 157.660 623.014 201.580 C 622.992 225.736, 622.967 249.325, 622.958 254 C 622.950 258.675, 623.234 318.300, 623.589 386.500 C 624.061 477.235, 623.895 521.365, 622.969 551 C 621.613 594.428, 621.934 600.328, 626.194 610.230 C 629.506 617.928, 637.972 624, 645.394 624 C 647.127 624, 653.935 622.880, 660.522 621.511 C 679.788 617.507, 691.742 616.589, 705.589 618.051 C 723.003 619.888, 741.111 620.327, 747.203 619.058 C 765.366 615.275, 788.371 599.125, 800.009 581.987 C 804.905 574.777, 806.661 570.122, 807.593 561.879 C 808.235 556.210, 808.766 555.161, 814.192 548.857 C 817.438 545.086, 820.505 542, 821.008 542 C 822.687 542, 825 531.726, 825 524.271 C 825 520.219, 824.298 510.848, 823.440 503.446 C 822.132 492.168, 822.042 485.937, 822.883 464.985 C 823.827 441.448, 823.774 439.655, 821.968 434.406 C 817.925 422.656, 810.614 412.766, 795.772 398.973 C 787.217 391.021, 777.359 378.977, 773.610 371.894 L 771.719 368.323 782.221 357.758 C 795.933 343.962, 804.828 332.060, 811.559 318.500 L 817.019 307.500 816.023 296 C 815.475 289.675, 814.751 275.950, 814.413 265.500 C 813.462 236.039, 812.574 232.720, 798.447 205.855 C 781.273 173.193, 771.343 159.819, 759.892 153.925 C 757.476 152.682, 751.138 150.241, 745.807 148.502 C 740.476 146.763, 735.362 144.715, 734.442 143.952 C 733.523 143.189, 731.360 142.492, 729.635 142.403 C 727.911 142.314, 723.575 141.738, 720 141.121 C 716.101 140.449, 708.899 140.244, 702 140.608 C 690.025 141.240, 664.533 139.646, 662.608 138.145 C 660.578 136.562, 654.965 136.005, 653.057 137.197 C 651.700 138.044, 649.398 138.091, 644.579 137.371 C 638.571 136.473, 637.805 136.561, 636.232 138.329 M 1554 138.390 C 1550.425 139.676, 1544.924 141.690, 1541.775 142.864 C 1534.857 145.445, 1532.428 145.511, 1523.977 143.345 C 1515.940 141.286, 1512.748 142.429, 1509.585 148.500 C 1507.768 151.986, 1507.459 154.609, 1507.181 168.914 C 1507.005 177.942, 1507.597 199.767, 1508.497 217.414 C 1509.858 244.112, 1510.012 260.960, 1509.414 317.750 C 1508.860 370.475, 1508.969 386, 1509.894 386 C 1511.349 386, 1510.355 392.463, 1508.432 395.500 C 1504.654 401.465, 1503.854 440.486, 1507.016 464.500 C 1508.400 475.002, 1508.993 485.328, 1508.996 498.935 L 1509 518.371 1512.920 529.935 C 1517.434 543.252, 1517.493 543.519, 1519.518 559.500 C 1521.568 575.676, 1524.091 580.767, 1535.690 592.136 C 1540.535 596.885, 1548.119 603.915, 1552.542 607.757 C 1556.966 611.600, 1562.677 617.072, 1565.235 619.917 L 1569.886 625.089 1596.193 625.916 C 1639.607 627.280, 1643.535 626.067, 1658.578 606.650 C 1668.063 594.408, 1668.990 593.557, 1677.962 588.872 C 1688.987 583.115, 1691.170 580.314, 1695.789 566 C 1703.135 543.237, 1706.688 521.869, 1707.679 494.500 C 1708.018 485.150, 1707.739 450.275, 1707.060 417 C 1706.127 371.351, 1706.099 350.486, 1706.944 332 L 1708.064 307.500 1704.634 304.500 L 1701.205 301.500 1702.630 290.500 C 1703.414 284.450, 1704.969 276.125, 1706.086 272 C 1707.203 267.875, 1708.365 263.038, 1708.668 261.250 C 1709.205 258.082, 1709.128 258, 1705.609 258 C 1703.068 258, 1702 258.444, 1702 259.500 C 1702 260.325, 1701.550 261, 1701 261 C 1699.397 261, 1699.846 258.449, 1701.750 256.733 C 1702.713 255.866, 1704.737 254.847, 1706.250 254.470 C 1708.918 253.804, 1709 253.577, 1709 246.892 C 1709 242.964, 1708.570 240, 1708 240 C 1706.706 240, 1706.708 215.547, 1708.003 203.500 C 1710.682 178.588, 1711.039 168.571, 1709.464 162.524 C 1707.832 156.256, 1703.946 148.392, 1700.826 145.043 C 1699.366 143.476, 1697.672 143, 1693.561 143 C 1690.612 143, 1681.967 142.061, 1674.349 140.913 C 1651.165 137.418, 1643.629 139.527, 1639.794 150.582 C 1637.395 157.496, 1637.598 164.104, 1640.657 178.766 C 1643.649 193.101, 1644.031 205.990, 1641.999 224 C 1641.180 231.264, 1641.030 243.130, 1641.514 262.500 C 1642.120 286.797, 1641.984 291.756, 1640.479 300 C 1639.526 305.225, 1638.398 310.175, 1637.972 311 C 1637.131 312.629, 1638.625 358.242, 1639.621 361.383 C 1640.090 362.859, 1639.857 363.159, 1638.615 362.683 C 1637.259 362.162, 1637 362.878, 1637 367.154 C 1637 371.548, 1637.204 372.076, 1638.488 371.010 C 1640.995 368.929, 1641.276 371.910, 1640.059 387.726 C 1639.435 395.852, 1638.689 429.500, 1638.403 462.500 C 1638.117 495.500, 1637.699 523.420, 1637.474 524.545 C 1637.249 525.669, 1635.250 529.397, 1633.032 532.828 C 1630.815 536.260, 1628.993 540.065, 1628.985 541.284 C 1628.976 542.503, 1628.533 544.175, 1628 545 C 1627.225 546.199, 1627.028 546.022, 1627.015 544.115 L 1627 541.730 1624.964 544.318 C 1623.845 545.742, 1622.464 548.240, 1621.896 549.870 C 1621.046 552.307, 1620.019 553.036, 1616.111 553.973 L 1611.359 555.113 1607.979 566.573 C 1606.120 572.875, 1604.315 578.490, 1603.969 579.050 C 1602.986 580.640, 1599.882 578.974, 1600.396 577.132 C 1600.646 576.234, 1601.146 574.034, 1601.507 572.241 C 1602.117 569.210, 1601.949 568.940, 1599.098 568.370 C 1597.412 568.032, 1596.278 567.360, 1596.578 566.875 C 1596.877 566.390, 1598.192 566.261, 1599.499 566.589 C 1601.579 567.111, 1601.944 566.770, 1602.431 563.843 C 1603.928 554.843, 1603.876 554.682, 1599.201 553.735 C 1595.522 552.989, 1594.682 552.332, 1593.373 549.181 C 1592.532 547.157, 1588.933 539.774, 1585.375 532.775 C 1578.543 519.336, 1576.048 510.819, 1576.017 500.833 C 1576.007 497.293, 1575.531 494.948, 1574.750 494.583 C 1573.750 494.117, 1573.750 493.883, 1574.750 493.417 C 1576.637 492.536, 1576.278 487.261, 1574.250 486.080 C 1572.583 485.109, 1572.583 485.059, 1574.250 485.030 C 1575.905 485.002, 1576.009 478.963, 1576.158 373.750 C 1576.244 312.563, 1576.263 261.825, 1576.200 261 C 1574.926 244.453, 1574.879 237.107, 1575.970 225.724 C 1576.972 215.286, 1576.995 207.394, 1576.082 188.263 C 1574.913 163.780, 1573.293 153.335, 1569.537 146.072 C 1567.810 142.732, 1562.175 135.985, 1561.146 136.026 C 1560.791 136.040, 1557.575 137.104, 1554 138.390 M 216.555 141.573 C 212.736 142.908, 208.778 144, 207.760 144 C 206.742 144, 204.847 145.062, 203.549 146.360 C 199.859 150.050, 199.275 159.234, 201.842 173.223 C 206.760 200.022, 209.152 225.182, 208.328 241.438 L 207.704 253.760 210.352 255.495 C 213.501 257.558, 213.763 260.233, 211.001 262.128 C 209.029 263.482, 208.988 265.258, 207.932 396 C 206.898 524.087, 206.393 544.950, 204.114 553.500 C 203.527 555.700, 203.037 560.654, 203.024 564.508 C 203.002 571.015, 203.286 571.954, 206.996 577.633 C 209.194 580.997, 211.593 584.248, 212.328 584.857 C 213.062 585.466, 220.376 586.459, 228.581 587.063 C 236.787 587.667, 247.100 588.477, 251.500 588.863 C 271.400 590.607, 282.986 584.833, 282.996 573.168 C 282.998 570.785, 281.829 565.442, 280.397 561.294 C 276.589 550.262, 276.067 544.357, 277.723 531.060 C 278.735 522.935, 278.970 515.192, 278.513 505 C 277.607 484.794, 277.576 481.787, 278.066 462 C 278.423 447.620, 278.163 442.776, 276.608 434.830 L 274.716 425.160 277.370 420.632 C 278.830 418.141, 280.534 415.788, 281.158 415.402 C 282.982 414.275, 292.913 414.937, 296.469 416.423 C 299.824 417.824, 304.331 422.949, 305.332 426.500 C 305.642 427.600, 306.152 442.030, 306.466 458.567 C 306.931 483.095, 306.757 490.095, 305.518 496.567 C 303.538 506.917, 303.533 510.116, 305.500 509.362 C 307.297 508.672, 307.638 512.488, 305.877 513.576 C 305.128 514.039, 304.987 515.977, 305.452 519.385 C 305.837 522.198, 306.482 533.500, 306.886 544.500 C 307.601 563.964, 307.706 564.701, 310.807 572.018 C 312.560 576.154, 315.398 581.240, 317.114 583.322 C 320.773 587.761, 321.944 587.711, 333.419 582.633 L 340.500 579.500 356.867 579.715 C 375.506 579.961, 377.778 579.346, 380.859 573.229 C 383.452 568.081, 384.164 561.596, 382.916 554.500 C 380.437 540.412, 378.884 472.673, 380.769 460.832 C 381.696 455.009, 381.119 452.595, 378.250 450.298 C 376.287 448.726, 377.377 446, 379.969 446 C 382.539 446, 382.521 445.506, 379.500 433.599 C 376.606 422.190, 376.294 411.998, 378.517 401.500 C 381.212 388.781, 381.155 388.626, 372.250 384.380 C 358.571 377.859, 354 372.993, 354 364.952 C 354 361.202, 354.627 360.156, 360.563 354.008 C 367.046 347.292, 367.143 347.109, 368.605 338.855 C 369.691 332.723, 370.226 318.925, 370.617 287 C 371.591 207.410, 371.448 194.861, 369.444 184 C 366.156 166.184, 366.263 166.373, 354.340 157.456 C 348.489 153.080, 342.576 148.887, 341.199 148.138 C 339.823 147.390, 333.027 146.129, 326.098 145.336 C 319.169 144.544, 311.250 143.322, 308.500 142.622 C 304.732 141.662, 301.159 141.590, 294 142.330 C 280.286 143.748, 273.998 143.647, 260.500 141.795 C 253.900 140.890, 242.875 139.923, 236 139.648 C 224.600 139.191, 222.889 139.360, 216.555 141.573 M 1041.197 140.793 C 1039.164 141.504, 1034.742 142.783, 1031.370 143.635 C 1026.697 144.815, 1024.914 145.790, 1023.870 147.739 C 1021.790 151.620, 1022.201 166.669, 1024.784 181.159 C 1028.216 200.413, 1029.977 219.728, 1029.989 238.250 C 1029.995 247.883, 1030.395 255, 1030.929 255 C 1032.364 255, 1035 257.974, 1035 259.593 C 1035 260.390, 1033.938 261.527, 1032.640 262.118 L 1030.281 263.193 1030.105 364.347 C 1029.899 482.535, 1028.749 542.028, 1026.501 550.658 C 1025.675 553.827, 1025 559.878, 1025 564.103 C 1025 571.573, 1025.129 571.982, 1029.652 578.811 L 1034.304 585.836 1043.902 586.436 C 1049.181 586.767, 1058.225 587.537, 1064 588.148 C 1086.567 590.537, 1098.326 588.103, 1102.816 580.114 C 1105.727 574.934, 1105.578 571.825, 1101.866 560.262 C 1098.227 548.928, 1097.926 543.734, 1099.881 526 C 1100.841 517.299, 1101.016 510.157, 1100.458 502.500 C 1100.017 496.450, 1099.786 483.175, 1099.944 473 C 1100.334 448.042, 1100.155 443.726, 1098.374 435.070 C 1096.542 426.169, 1097.074 422.534, 1100.873 417.983 C 1103.577 414.744, 1104.039 414.572, 1109.442 414.798 C 1117.402 415.131, 1121.128 416.969, 1124.661 422.302 L 1127.676 426.854 1128.235 456.177 C 1128.542 472.305, 1128.398 488.200, 1127.914 491.500 C 1127.430 494.800, 1126.739 500.322, 1126.378 503.772 C 1125.798 509.326, 1125.910 509.972, 1127.361 509.415 C 1129.258 508.687, 1129.699 511.901, 1127.943 513.657 C 1127.201 514.399, 1127.201 519.437, 1127.943 530.590 C 1128.524 539.322, 1129 549.891, 1129 554.076 C 1129 564.809, 1134.345 579.275, 1140.396 584.920 L 1142.991 587.340 1153.245 583.420 L 1163.500 579.500 1179.697 579.766 L 1195.895 580.031 1199.435 576.923 C 1204.103 572.824, 1205.298 568.445, 1204.600 557.998 C 1204.287 553.324, 1203.594 539.150, 1203.060 526.500 C 1202.526 513.850, 1201.787 498.210, 1201.419 491.743 C 1201.026 484.861, 1201.229 474.872, 1201.908 467.648 C 1203.082 455.165, 1202.368 449.036, 1199.918 450.551 C 1199.225 450.979, 1198.953 450.366, 1199.166 448.861 C 1199.386 447.305, 1200.267 446.391, 1201.750 446.180 C 1204.525 445.786, 1204.533 446.133, 1201.503 434.822 C 1198.775 424.643, 1198.179 410.437, 1200.125 402 C 1202.063 393.599, 1202.264 390.023, 1200.892 388.370 C 1200.165 387.494, 1195.870 385.020, 1191.348 382.871 C 1173.904 374.584, 1170.478 363.813, 1182.153 353.968 C 1184.948 351.611, 1187.861 348.183, 1188.627 346.350 C 1191.629 339.165, 1192.409 319.254, 1193.204 229.500 C 1193.477 198.581, 1191.099 174.659, 1186.988 166.978 C 1185.566 164.321, 1162.613 147.156, 1159.697 146.569 C 1158.489 146.326, 1154.325 145.878, 1150.445 145.574 C 1146.564 145.271, 1139.364 144.290, 1134.445 143.396 C 1124.297 141.550, 1121.507 141.526, 1107.436 143.161 C 1100.039 144.021, 1096.197 144.040, 1092.936 143.233 C 1080.642 140.191, 1047.402 138.623, 1041.197 140.793 M 863.365 144.142 L 859.805 147.784 859.864 157.425 C 859.896 162.728, 860.254 167.603, 860.659 168.258 C 861.064 168.913, 861.194 262.836, 860.948 376.975 C 860.405 628.703, 860.328 606.671, 861.766 611.531 C 864.247 619.914, 860.875 619.320, 904.090 618.983 C 961.850 618.532, 966.153 618.562, 970.686 619.437 C 972.989 619.882, 976.999 619.927, 979.599 619.537 C 989.274 618.087, 992.609 610.510, 991.386 592.759 C 990.743 583.415, 990.526 582.686, 987.104 578.380 L 983.500 573.844 970.500 574.672 C 946.842 576.179, 938.436 575.729, 930.687 572.540 C 926.940 570.998, 923.254 568.783, 922.498 567.618 C 920.690 564.835, 918.245 546.461, 917.026 526.500 C 915.548 502.279, 915.577 412.339, 917.065 408 C 917.725 406.075, 919.889 402.795, 921.873 400.712 C 925.157 397.263, 925.908 396.943, 930.241 397.140 C 934.744 397.346, 935 397.509, 935 400.179 C 935 402.333, 935.473 403, 937 403 C 938.479 403, 939 402.333, 939 400.440 L 939 397.879 950.770 398.353 C 963.658 398.873, 969.791 398.087, 977.691 394.906 L 982.882 392.816 984.525 385.658 C 986.677 376.280, 986.659 362.640, 984.478 351.750 L 982.726 343 974.433 343 C 966.614 343, 966.117 342.871, 965.748 340.750 C 965.372 338.585, 965.313 338.604, 964.203 341.250 C 963.267 343.481, 962.411 344, 959.664 344 C 957.802 344, 954.191 344.286, 951.640 344.636 C 947.752 345.169, 947 345.007, 947 343.636 C 947 341.623, 943.430 341.436, 942.673 343.409 C 941.536 346.373, 926.996 340.818, 922.015 335.516 C 920.429 333.827, 919.600 330.795, 918.564 322.897 C 917.352 313.646, 917.373 312.307, 918.756 310.750 C 920.166 309.162, 920.157 309, 918.655 309 C 917.144 309, 916.984 305.359, 916.818 267.250 C 916.579 212.673, 916.445 214.824, 920.552 207.403 C 922.408 204.049, 924.685 200.674, 925.612 199.903 C 927.420 198.396, 944.951 196.202, 956.187 196.075 L 962.874 196 962.358 199.750 L 961.843 203.500 964.768 200.100 L 967.693 196.700 971 198.350 C 974.879 200.285, 977.308 200.423, 980.316 198.878 C 987.975 194.943, 991.524 186.990, 990.669 175.674 C 989.319 157.808, 988.116 150.757, 985.504 145.420 C 982.999 140.299, 982.650 140.003, 979.176 140.055 C 977.154 140.084, 971.675 140.701, 967 141.425 C 959.873 142.529, 956.319 142.513, 945 141.330 C 935.529 140.340, 921.863 140.005, 899.212 140.209 L 866.924 140.500 863.365 144.142 M 1740.596 150.850 C 1731.441 155.691, 1729.500 158.397, 1729.500 166.321 C 1729.500 169.720, 1730.061 176.550, 1730.747 181.500 C 1731.693 188.325, 1731.995 223.285, 1731.997 326.156 L 1732 461.813 1734.133 461.255 C 1736.215 460.710, 1736.245 460.859, 1735.411 467.599 C 1734.941 471.394, 1734.636 476.413, 1734.732 478.750 C 1734.861 481.881, 1734.524 483, 1733.453 483 C 1731.400 483, 1731.440 492.290, 1733.500 494 C 1735.404 495.580, 1735.427 497, 1733.548 497 C 1732.363 497, 1731.981 499.995, 1731.473 513.250 C 1730.300 543.890, 1730.645 567.817, 1732.412 578.444 C 1734.108 588.642, 1737.675 600.328, 1740.326 604.375 C 1742.139 607.143, 1751.673 610.973, 1758.500 611.678 C 1763.867 612.232, 1765.480 611.401, 1775.082 603.139 C 1782.477 596.776, 1782.210 603.487, 1779.998 479.628 C 1778.228 380.503, 1777.824 367.983, 1775.953 354.315 C 1773.544 336.713, 1774.037 331.507, 1779.091 321.192 C 1781.570 316.134, 1782.592 314.946, 1784.251 315.192 C 1786.719 315.559, 1787.907 318.774, 1795.088 344.500 C 1797.851 354.400, 1801.894 368.198, 1804.071 375.163 C 1808.354 388.860, 1812.212 410.851, 1813.997 431.733 C 1814.597 438.755, 1815.734 448.775, 1816.522 454 C 1817.311 459.225, 1818.395 472.050, 1818.931 482.500 C 1819.467 492.950, 1820.818 507.575, 1821.932 515 C 1824.789 534.044, 1825.934 549.095, 1825.288 559.131 C 1824.352 573.679, 1829.700 586.456, 1840.212 594.783 C 1844.411 598.109, 1844.667 598.172, 1852.500 597.799 C 1858.558 597.511, 1861.910 596.758, 1866.309 594.696 C 1878.125 589.158, 1880.176 584.251, 1877.414 568.137 C 1875.118 554.737, 1876.185 545.554, 1882.547 524 C 1885.064 515.475, 1887.568 505.832, 1888.112 502.570 C 1888.656 499.309, 1890.419 492.109, 1892.029 486.570 C 1894.805 477.025, 1898.130 454.366, 1899.525 435.500 C 1899.851 431.100, 1901.015 422.880, 1902.114 417.234 C 1903.920 407.946, 1903.962 406.820, 1902.555 405.412 C 1901.700 404.557, 1901 402.539, 1901 400.929 C 1901 399.318, 1900.550 398, 1900 398 C 1899.450 398, 1899 395.525, 1899 392.500 L 1899 387 1902.384 387 L 1905.767 387 1906.439 380.726 C 1906.808 377.275, 1906.810 373.670, 1906.444 372.713 C 1906.077 371.757, 1906.211 370.418, 1906.742 369.737 C 1907.273 369.057, 1908.462 365.429, 1909.384 361.676 C 1910.306 357.922, 1911.906 352.972, 1912.940 350.676 C 1914.032 348.251, 1915.084 342.895, 1915.450 337.904 C 1915.796 333.177, 1916.629 327.102, 1917.301 324.404 C 1918.498 319.598, 1918.592 319.507, 1922.011 319.831 C 1923.930 320.014, 1925.950 320.602, 1926.500 321.139 C 1927.140 321.764, 1927.389 334.334, 1927.193 356.058 L 1926.886 390 1935.009 390 L 1943.133 390 1942.816 392.750 C 1942.529 395.251, 1942.092 395.523, 1938 395.754 C 1935.525 395.893, 1932.037 396.251, 1930.250 396.549 L 1927 397.091 1927 406.438 C 1927 413.825, 1927.315 415.907, 1928.500 416.362 C 1930.371 417.080, 1930.441 419.389, 1928.637 420.887 C 1927.525 421.809, 1927.126 434.441, 1926.474 489.259 C 1925.326 585.779, 1925.235 579.295, 1927.864 587.860 C 1931.493 599.678, 1940.336 607, 1950.980 607 C 1955.154 607, 1974.437 602.276, 1979 600.136 C 1982.295 598.591, 1982.520 598.172, 1982.842 592.997 C 1983.030 589.974, 1982.655 583.848, 1982.008 579.384 C 1980.955 572.112, 1981.054 570.250, 1982.957 561.463 C 1985.034 551.878, 1985.081 549.695, 1985.045 464.079 C 1985.013 387.647, 1984.077 309.251, 1982.583 258 C 1982.335 249.475, 1982.593 232.150, 1983.157 219.500 C 1985.136 175.118, 1984.474 168.438, 1976.912 156.519 C 1971.686 148.284, 1969.565 147.394, 1961.866 150.211 C 1955.272 152.624, 1946.133 152.712, 1929.500 150.524 L 1917.500 148.945 1914.702 152.222 C 1908.614 159.354, 1906.859 163.148, 1902.077 179.522 C 1897.007 196.882, 1893.857 206.432, 1890.115 215.787 C 1888.236 220.484, 1888 223.082, 1888 239.052 L 1888 257.029 1880.016 284.882 C 1872.151 312.320, 1872.017 312.978, 1870.997 329.117 C 1869.618 350.940, 1868.391 357.718, 1865.115 361.596 C 1863.677 363.298, 1862.007 365.539, 1861.403 366.576 C 1860.459 368.199, 1859.945 368.296, 1857.701 367.274 C 1854.751 365.930, 1852.577 362.210, 1851.607 356.851 C 1851.244 354.843, 1849.856 351.593, 1848.522 349.628 C 1843.218 341.812, 1841.796 334.332, 1840.891 309.500 C 1840.423 296.628, 1839.392 283.197, 1838.550 279 C 1837.724 274.875, 1836.130 266.325, 1835.010 260 C 1833.890 253.675, 1830.739 241.750, 1828.009 233.500 C 1822.416 216.599, 1820.582 209.223, 1818.490 195.218 C 1816.673 183.058, 1811.128 161.817, 1809.058 159.089 C 1806.621 155.878, 1780.905 150.282, 1760.500 148.522 C 1756.650 148.190, 1752.150 147.757, 1750.500 147.559 C 1748.464 147.315, 1745.281 148.373, 1740.596 150.850 M 121.612 151.721 C 121.468 151.865, 109.684 153.176, 95.425 154.636 C 76.169 156.606, 63.572 157.316, 46.456 157.394 C 20.229 157.515, 19.032 157.823, 16.877 165.015 C 15.921 168.208, 15.940 170.015, 16.971 173.769 C 17.962 177.376, 18.459 199.643, 19.063 267.500 C 19.498 316.450, 20.105 358.075, 20.412 360 C 20.719 361.925, 21.150 381.050, 21.370 402.500 C 21.613 426.175, 22.290 445.746, 23.094 452.306 C 24.380 462.806, 24.482 463.096, 26.709 462.537 C 27.969 462.221, 29 462.372, 29 462.873 C 29 463.373, 27.834 464.076, 26.409 464.433 L 23.819 465.084 24.432 496.292 C 24.769 513.456, 25.565 532.342, 26.200 538.260 C 27.112 546.753, 27.083 550.652, 26.064 556.760 C 24.262 567.558, 24.609 597.003, 26.611 603.203 C 29.148 611.061, 36.713 616.038, 46 615.959 C 47.925 615.943, 52.200 615.355, 55.500 614.653 C 59.930 613.711, 64.039 613.620, 71.202 614.308 C 76.539 614.821, 82.488 614.943, 84.423 614.580 C 91.798 613.197, 98 604.501, 98 595.545 C 98 593.186, 96.880 587.824, 95.511 583.630 C 93.354 577.024, 93.097 574.834, 93.590 567.252 C 93.997 560.982, 93.622 555.380, 92.270 547.500 C 90.586 537.688, 90.464 533.638, 91.140 510 C 91.805 486.751, 91.060 461.459, 89.504 454.412 C 88.326 449.075, 93.636 447.884, 125 446.453 L 139.500 445.791 146.477 440.720 C 150.314 437.930, 155.590 435.022, 158.201 434.256 C 163.101 432.820, 167.962 428.267, 173.958 419.500 C 178.425 412.970, 180.852 400.236, 181.488 380 C 181.791 370.375, 182.460 360.475, 182.976 358 C 184.195 352.146, 184.239 342.537, 183.075 336.386 C 182.567 333.699, 182.167 312.825, 182.187 290 C 182.207 267.175, 182.155 242.875, 182.072 236 C 181.866 219.080, 179.318 192.509, 177.584 189.192 C 175.439 185.091, 164.670 170.047, 160.377 165.154 C 156.528 160.768, 148.860 156.244, 141.500 154.018 C 137.842 152.912, 122.226 151.108, 121.612 151.721 M 486.699 201.781 C 482.381 203.745, 480.351 207.445, 477.126 219.230 C 469.931 245.522, 466.606 285.339, 468.212 326 C 469.618 361.604, 470.645 438.428, 469.776 443 C 469.306 445.475, 469.228 456.378, 469.605 467.229 L 470.289 486.958 467.911 487.837 C 465.582 488.699, 465.576 488.731, 467.634 489.384 C 469.409 489.947, 469.824 491.093, 470.311 496.775 C 472.189 518.684, 475.004 536.132, 477.518 541.446 C 480.619 548.002, 486.832 553.649, 492.447 555.015 C 494.676 555.557, 497.882 556.451, 499.571 557.001 C 504.347 558.555, 506.488 558.230, 512.885 554.979 C 520.080 551.323, 524.548 546.479, 525.996 540.763 C 526.590 538.418, 528.213 534.107, 529.602 531.183 C 533.255 523.492, 533.704 514.967, 531.166 501.500 C 528.116 485.316, 527.689 476.952, 529.298 464.911 C 530.383 456.788, 530.463 452.829, 529.641 447.911 C 529.052 444.385, 528.701 436.775, 528.861 431 C 529.022 425.225, 529.115 416.450, 529.068 411.500 C 529.022 406.550, 528.812 363.325, 528.603 315.444 C 528.338 254.837, 527.871 226.695, 527.066 222.818 C 525.628 215.892, 521.348 208.996, 516.707 206.128 C 508.611 201.125, 493.088 198.876, 486.699 201.781 M 275.136 205.639 C 269.977 211.878, 269.520 214.892, 271.801 227.618 C 273.455 236.850, 273.628 240.159, 272.843 247.592 C 272.193 253.738, 272.275 260.530, 273.108 269.500 C 274.153 280.770, 274.078 284.644, 272.546 298.615 C 270.498 317.280, 270.736 318.380, 278.475 325.976 L 282.894 330.312 287.464 328.567 C 296.215 325.225, 299.713 317.426, 298.445 304.088 C 297.582 295.014, 297.362 250.085, 298.076 229 C 298.476 217.212, 298.358 216.218, 296 211.552 C 292.848 205.314, 289.464 202.847, 283.239 202.249 C 278.531 201.797, 278.198 201.936, 275.136 205.639 M 1096.136 206.608 C 1091.662 213.362, 1091.435 215.060, 1093.432 226.790 C 1094.808 234.866, 1095.045 239.803, 1094.514 249.316 C 1094.102 256.704, 1094.277 264.983, 1094.958 270.347 C 1095.872 277.551, 1095.766 282.507, 1094.388 297.023 C 1092.441 317.543, 1092.588 318.334, 1099.700 325.652 C 1103.450 329.511, 1104.512 330.090, 1106.805 329.525 C 1114.252 327.690, 1119.313 321.645, 1120.617 313.026 C 1120.990 310.565, 1120.700 304.265, 1119.974 299.026 C 1118.579 288.967, 1118.418 259.079, 1119.614 232.408 C 1120.277 217.649, 1120.235 217.193, 1117.740 211.743 C 1114.679 205.056, 1111.920 203.054, 1104.752 202.314 L 1099.350 201.756 1096.136 206.608 M 95.379 205.840 C 94.212 206.203, 91.983 208.024, 90.424 209.887 L 87.591 213.275 87.857 293.816 C 88.066 357.247, 88.399 375.019, 89.425 377.475 C 90.909 381.026, 95.508 385.198, 101.063 388.032 L 104.858 389.968 108.875 385.405 C 115.993 377.318, 117.566 366.950, 114.018 351.500 C 112.855 346.437, 113.155 335.319, 115.028 314 C 115.536 308.225, 116.436 296.442, 117.029 287.816 C 118.101 272.199, 118.095 272.097, 115.442 263.589 C 113.062 255.955, 112.887 254.426, 113.803 249.227 C 115.154 241.561, 113.166 215.249, 110.907 210.880 C 109.246 207.668, 99.582 204.532, 95.379 205.840 M 696.577 217.250 C 692.792 223.049, 689.856 231.332, 689.325 237.710 C 688.882 243.025, 689.463 248.058, 692.004 260.885 C 696.046 281.286, 695.924 292.318, 691.502 306.327 C 688.952 314.407, 688.817 315.592, 689.902 320.327 C 691.266 326.279, 693.263 329.050, 697.922 331.460 C 702.999 334.085, 710.756 334.451, 721.673 332.579 C 732.834 330.666, 736 329.599, 736 327.752 C 736 327.042, 738 323.787, 740.444 320.520 C 754.484 301.748, 756.984 285.751, 750.461 256.417 C 748.514 247.663, 746.719 239.825, 746.472 239 C 746.226 238.175, 744.106 236.334, 741.762 234.909 C 739.418 233.484, 732.667 228.422, 726.760 223.659 L 716.020 215 707.033 215 C 698.815 215, 697.920 215.193, 696.577 217.250 M 1341.366 329.281 C 1334.929 337.946, 1331.652 347.321, 1330.456 360.500 C 1329.588 370.058, 1323.860 391.260, 1312.623 426.500 C 1306.336 446.219, 1304.639 453.967, 1304.567 463.283 C 1304.515 470.054, 1304.844 472.284, 1306 473.018 C 1308.628 474.685, 1330.890 474.208, 1335.672 472.381 C 1339.602 470.880, 1340.420 470.888, 1346.924 472.481 C 1359.810 475.639, 1365.420 474.696, 1369.678 468.654 C 1372.372 464.833, 1372.769 463.272, 1373.547 453.448 C 1374.862 436.844, 1374.534 434.009, 1367.608 402.112 C 1363.017 380.972, 1360.990 369.353, 1360.522 361.500 C 1360.162 355.450, 1359.189 345.775, 1358.361 340 C 1356.562 327.452, 1354.948 324.983, 1348.576 325.031 C 1344.963 325.058, 1344.144 325.541, 1341.366 329.281 M 944.607 338.582 C 944.273 339.452, 944 340.352, 944 340.582 C 944 341.402, 948.527 340.952, 950 339.985 C 951.333 339.109, 951.333 338.891, 950 338.015 C 947.754 336.541, 945.291 336.799, 944.607 338.582 M 697.146 409.750 C 693.658 417.296, 691.946 427.330, 691.303 444 C 690.884 454.860, 690.279 460.153, 689.282 461.683 C 688.090 463.510, 688.073 464.243, 689.179 466.183 C 690.171 467.924, 690.749 479.304, 691.500 511.943 L 692.500 555.386 697 557.685 C 699.475 558.949, 704.425 560.404, 708 560.917 C 713.946 561.772, 714.950 561.637, 719.783 559.336 C 726.131 556.313, 733.610 548.969, 737.365 542.071 C 741.704 534.099, 747.627 516.364, 749.387 506.074 C 752.250 489.341, 751.297 468.125, 746.901 450.704 C 742.800 434.453, 738.622 428.315, 721.888 413.959 L 711.500 405.047 705.421 405.023 L 699.342 405 697.146 409.750" stroke="none" fill="black" fill-rule="evenodd"/>
</svg>