<svg xmlns="http://www.w3.org/2000/svg" width="2000" height="857" viewBox="0 0 2000 857" version="1.1">
	<path d="M 1290.500 309.612 C 1288.300 310.421, 1284.475 311.592, 1282 312.215 C 1279.525 312.837, 1276.952 314.056, 1276.282 314.923 C 1275.472 315.972, 1275.053 316.081, 1275.032 315.250 C 1274.958 312.349, 1271.516 314.518, 1263.132 322.750 C 1252.173 333.511, 1250.009 336.915, 1250.004 343.406 C 1250.001 347.055, 1249.378 349.126, 1247.572 351.495 L 1245.143 354.678 1245.645 383.589 C 1246.038 406.268, 1246.453 412.977, 1247.573 414.715 C 1248.769 416.571, 1249 426.671, 1249 477.005 C 1249 535.119, 1249.065 537.208, 1251.001 541.002 C 1252.701 544.334, 1255.991 548.750, 1263.511 557.791 C 1264.293 558.731, 1265.960 561.075, 1267.216 563 C 1271.587 569.698, 1289.565 575.921, 1300.500 574.521 C 1307.888 573.575, 1326.797 567.041, 1330.038 564.314 C 1331.586 563.012, 1333.163 560.536, 1333.541 558.813 C 1333.919 557.090, 1335.752 553.299, 1337.615 550.388 C 1339.477 547.478, 1341 544.239, 1341 543.192 C 1341 542.145, 1342.578 539.221, 1344.506 536.696 L 1348.012 532.104 1348.026 439.524 C 1348.035 381.881, 1347.676 346.263, 1347.075 345.140 C 1346.544 344.147, 1345.422 342.765, 1344.581 342.067 C 1343.741 341.370, 1342.761 339.157, 1342.405 337.150 C 1341.491 332.008, 1335.262 320.398, 1331.896 317.566 C 1330.341 316.258, 1325.566 314.052, 1321.285 312.664 C 1306.210 307.779, 1297.762 306.941, 1290.500 309.612 M 1409.500 310.944 C 1408.400 311.447, 1402.781 311.891, 1397.014 311.930 C 1387.682 311.992, 1385.941 312.297, 1381.185 314.704 C 1376.086 317.284, 1373 320.945, 1373 324.416 C 1373 325.249, 1371.702 327.409, 1370.116 329.215 C 1366.386 333.463, 1364.348 341.063, 1359.980 367 C 1358.427 376.224, 1357.693 480.028, 1359.025 502 C 1361.393 541.035, 1366.223 556.248, 1378.871 564.499 C 1385.523 568.839, 1399.638 569.445, 1412 565.920 C 1413.925 565.371, 1419.463 564.491, 1424.307 563.963 C 1435.693 562.724, 1441.582 559.867, 1450.500 551.258 L 1457.500 544.500 1457.178 517 C 1457.002 501.875, 1456.777 483.650, 1456.678 476.500 C 1456.580 469.350, 1456.725 452.925, 1457 440 L 1457.500 416.500 1454.174 411.880 L 1450.847 407.259 1437.174 407.760 C 1427.132 408.129, 1422.116 408.773, 1418.292 410.187 C 1412.544 412.312, 1408.218 416.658, 1407.305 421.226 C 1406.052 427.490, 1401 425.362, 1401 418.570 C 1401 416.269, 1401.900 409.487, 1403 403.500 C 1405.504 389.873, 1405.507 384.694, 1403.022 373.449 C 1401.934 368.527, 1401.034 363.314, 1401.022 361.865 C 1400.995 358.640, 1403.664 350.162, 1405.487 347.679 C 1406.745 345.966, 1407.013 345.955, 1409.991 347.495 C 1413.791 349.461, 1415.508 353.299, 1416.442 361.919 C 1417.118 368.162, 1420.486 376.549, 1423.172 378.679 C 1424.059 379.382, 1427.156 379.450, 1432.500 378.882 C 1453.637 376.638, 1458.361 372.557, 1458.404 356.500 C 1458.433 345.769, 1456.578 340.606, 1451.005 335.907 C 1447.417 332.881, 1445.856 330.612, 1444.403 326.304 C 1442.954 322.009, 1441.566 319.986, 1438.585 317.821 C 1431.734 312.847, 1414.331 308.731, 1409.500 310.944 M 243 312.907 C 235.180 313.620, 234.560 313.977, 231.848 319.318 C 230.681 321.618, 228.928 324.521, 227.954 325.768 C 226.981 327.015, 225.196 331.290, 223.988 335.268 C 221.459 343.595, 219.487 347.792, 216.969 350.199 C 215.992 351.134, 214.886 353.715, 214.511 355.936 C 214.136 358.156, 212.841 361.442, 211.633 363.237 C 209.502 366.405, 206.726 373.958, 206.575 377 C 206.534 377.825, 204.926 379.286, 203.001 380.246 C 199.564 381.961, 199.472 381.952, 197.788 379.746 C 195.618 376.903, 194.554 370.104, 195.432 364.686 C 195.805 362.384, 196.501 357.125, 196.978 353 C 197.456 348.875, 198.138 343.250, 198.495 340.500 C 199.454 333.109, 197.622 316.194, 195.650 314.222 C 194.262 312.834, 193.383 312.777, 189.270 313.810 C 186.647 314.469, 180.030 315.462, 174.566 316.016 C 160.879 317.404, 160.634 317.672, 161.349 330.499 C 163.393 367.170, 163.920 374.012, 165.031 378.325 C 165.891 381.659, 166.016 385.213, 165.435 389.825 C 164.974 393.496, 164.695 401.225, 164.817 407 C 164.938 412.775, 165.212 426.050, 165.426 436.500 C 165.639 446.950, 165.894 476.992, 165.991 503.260 L 166.167 551.019 168.334 552.200 C 171.110 553.713, 192.971 553.621, 195.843 552.084 C 198.943 550.425, 200.404 543.798, 199.251 536.634 C 198.640 532.843, 198.651 529.086, 199.280 526.136 C 199.963 522.934, 199.844 516.683, 198.889 505.520 C 197.216 485.973, 197.493 470.423, 199.571 467.252 C 202.291 463.100, 206.181 464.688, 207.538 470.506 C 207.922 472.153, 209.359 475.466, 210.730 477.869 C 212.343 480.695, 213.551 484.931, 214.150 489.869 C 214.692 494.329, 215.668 497.949, 216.500 498.581 C 218.247 499.910, 220 504.340, 220 507.426 C 220 508.688, 221.125 511.379, 222.500 513.405 C 223.875 515.431, 225 517.790, 225 518.647 C 225 519.504, 226.836 524.097, 229.081 528.853 C 231.325 533.609, 234.030 539.788, 235.091 542.585 C 236.152 545.382, 238.143 548.725, 239.515 550.014 C 241.666 552.035, 242.869 552.321, 248.255 552.088 C 251.690 551.940, 258.143 551.747, 262.596 551.659 C 272.869 551.457, 274.325 550.440, 273.423 544.096 C 272.731 539.229, 267.922 527.193, 264.994 523 C 264.034 521.625, 262.909 518.925, 262.494 517 C 262.079 515.075, 260.898 512.427, 259.870 511.115 C 258.841 509.803, 258 507.695, 258 506.430 C 258 505.165, 257.522 502.873, 256.938 501.336 C 256.188 499.364, 256.188 498.437, 256.938 498.187 C 257.522 497.993, 258 497.148, 258 496.310 C 258 495.280, 257.443 495, 256.280 495.446 C 255.335 495.809, 254.878 495.789, 255.265 495.402 C 255.652 495.015, 255.232 494.159, 254.332 493.501 C 252.469 492.138, 253.353 489.814, 255.431 490.612 C 258.399 491.751, 257.981 488.721, 254.663 485.049 C 252.737 482.917, 250.972 481.361, 250.742 481.591 C 250.512 481.822, 248.478 477.170, 246.223 471.255 C 239.020 452.363, 234.308 440.749, 229.888 431 C 226.162 422.780, 225.601 420.656, 225.728 415.232 C 225.856 409.749, 226.564 407.619, 231.378 398.232 C 234.405 392.329, 240.335 380.525, 244.556 372 C 248.776 363.475, 252.630 356.001, 253.120 355.391 C 253.610 354.781, 254.863 351.856, 255.904 348.891 C 258.715 340.887, 262.843 332.375, 264.633 330.889 C 266.161 329.622, 271 319.696, 271 317.830 C 271 317.324, 269.895 315.805, 268.545 314.455 C 266.302 312.211, 265.378 312.014, 257.795 312.157 C 253.233 312.244, 246.575 312.581, 243 312.907 M 70.816 314.984 C 69.059 316.441, 64.137 335.422, 62.450 347.250 C 61.967 350.636, 61.317 352, 60.186 352 C 58.953 352, 58.867 352.267, 59.800 353.200 C 61.615 355.015, 61.241 357.833, 59 359.232 C 56.605 360.728, 56.406 362, 58.567 362 C 59.576 362, 59.964 362.623, 59.655 363.750 C 59.391 364.712, 58.873 367.300, 58.504 369.500 C 57.804 373.676, 49.517 404.021, 48.126 407.500 C 46.935 410.482, 36.133 453.849, 33.430 466.500 C 32.138 472.550, 30.412 479.975, 29.595 483 C 28.778 486.025, 27.369 493, 26.464 498.500 C 25.560 504, 22.160 518.928, 18.910 531.673 C 15.659 544.418, 13 556.895, 13 559.400 C 13 566.583, 14.891 567.333, 31.145 566.590 C 38.405 566.259, 44.431 565.878, 44.535 565.744 C 44.639 565.610, 45.458 560.325, 46.355 554 C 48.315 540.173, 51.676 526.665, 54.237 522.324 C 55.954 519.413, 56.671 519.087, 62.805 518.430 C 66.665 518.016, 73.959 518.222, 80.031 518.915 C 86.938 519.703, 91.427 519.788, 93.074 519.162 C 96.486 517.865, 101.747 520.114, 102.489 523.187 C 102.796 524.459, 103.659 528.761, 104.407 532.747 C 105.155 536.734, 106.566 541.214, 107.542 542.705 C 108.642 544.383, 109.603 548.542, 110.066 553.628 C 111.144 565.452, 111.308 565.769, 116.800 566.623 C 125.888 568.034, 144.223 567.481, 147.656 565.691 L 150.812 564.046 146.906 548.886 C 144.556 539.764, 143 531.415, 143 527.925 C 143 524.735, 142.301 519.109, 141.446 515.424 C 140.591 511.739, 140.110 508.156, 140.376 507.462 C 140.643 506.767, 139.767 504.717, 138.430 502.906 C 136.606 500.433, 136 498.342, 136 494.521 C 136 491.028, 134.921 486.773, 132.561 480.965 C 130.670 476.309, 127.765 465.975, 126.105 458 C 124.446 450.025, 119.971 430.225, 116.161 414 C 112.351 397.775, 108.908 380.900, 108.509 376.500 C 108.110 372.097, 106.672 365.578, 105.311 362 C 103.951 358.425, 102.490 351.900, 102.064 347.500 C 101.577 342.457, 100.358 337.467, 98.767 334 C 97.379 330.975, 95.247 325.092, 94.029 320.927 L 91.814 313.354 82.229 313.410 C 75.200 313.452, 72.157 313.871, 70.816 314.984 M 929.618 314.058 C 923.153 315.666, 913.858 321.198, 908.309 326.741 C 904.147 330.897, 902.736 333.175, 901.489 337.741 C 900.625 340.909, 898.249 347.550, 896.209 352.500 L 892.500 361.500 892.811 378.834 C 893.116 395.850, 893.174 396.254, 895.955 400.834 C 897.514 403.400, 899.118 407.075, 899.521 409 C 900.520 413.770, 919.836 438.667, 930.283 448.649 C 937.551 455.593, 938.537 456.240, 938.820 454.250 C 939.474 449.645, 941 452.207, 941 457.911 C 941 461.162, 941.868 466.611, 942.929 470.021 C 944.540 475.197, 944.849 479.130, 944.800 493.860 L 944.742 511.500 941.371 517.596 C 938.524 522.744, 938 524.693, 938 530.124 C 938 537.353, 936.495 540.408, 932.432 541.428 C 930.685 541.866, 930.004 542.567, 930.378 543.542 C 930.685 544.344, 930.501 545, 929.969 545 C 929.436 545, 929 545.900, 929 547 C 929 548.100, 928.550 549, 928 549 C 927.450 549, 927 547.965, 927 546.700 C 927 545.435, 926.460 543.860, 925.800 543.200 C 925.140 542.540, 924.976 542, 925.435 542 C 925.894 542, 925.100 541.080, 923.669 539.955 C 919.688 536.823, 918.753 532.026, 918.421 513.043 C 918.066 492.788, 919.485 494.858, 904.622 492.913 C 891.511 491.198, 891.793 490.866, 891.133 508.714 C 890.473 526.573, 890.789 538.738, 891.971 540.946 C 892.490 541.915, 894.508 544.616, 896.457 546.949 C 898.406 549.281, 900 552.116, 900 553.249 C 900 556.831, 907.034 562.380, 915.478 565.460 C 919.767 567.024, 924.737 569.586, 926.522 571.154 C 931.201 575.262, 934.595 575.607, 940 572.522 C 942.475 571.110, 947.669 568.458, 951.543 566.629 C 960.425 562.434, 965.288 558.189, 966.938 553.189 C 967.648 551.036, 969.683 547.437, 971.460 545.192 C 974.574 541.257, 974.722 540.644, 975.554 528.305 C 976.029 521.262, 976.266 511.225, 976.079 506 C 975.518 490.253, 975.623 480.097, 976.472 467.937 C 977.386 454.843, 976.586 450.803, 971.891 444.809 C 970.301 442.778, 968.968 439.853, 968.930 438.309 C 968.874 436.081, 968.709 435.882, 968.133 437.347 C 967.245 439.602, 967.043 439.386, 960.155 428.835 C 957.095 424.148, 952.759 419.239, 948.846 416.031 C 940.935 409.546, 938.171 406.392, 932.380 397.246 C 927.222 389.097, 924 379.960, 924 373.476 C 924 369.796, 925.381 361.457, 927.511 352.268 C 928.190 349.343, 932.555 347.167, 938.346 346.867 C 942.305 346.662, 943.462 347.065, 946.089 349.563 C 947.788 351.178, 950.314 354.425, 951.701 356.778 C 953.890 360.491, 954.134 361.771, 953.549 366.453 C 953.129 369.817, 953.342 373.410, 954.115 375.989 C 955.257 379.800, 955.559 380.067, 957.927 379.356 C 959.342 378.932, 963.200 378.566, 966.500 378.542 C 974.953 378.483, 978.716 376.078, 979.602 370.169 C 980.667 363.067, 979.382 351.141, 976.620 342.500 C 971.780 327.357, 964.524 318.718, 954.027 315.601 C 947.556 313.679, 934.468 312.852, 929.618 314.058 M 1625.769 313.803 C 1623.529 314.238, 1620.949 322.600, 1617.918 339.250 C 1616.165 348.879, 1615.230 352, 1614.099 352 C 1612.933 352, 1612.867 352.267, 1613.800 353.200 C 1615.615 355.015, 1615.241 357.833, 1613 359.232 C 1610.605 360.728, 1610.406 362, 1612.567 362 C 1613.589 362, 1613.956 362.609, 1613.621 363.750 C 1613.338 364.712, 1612.816 367.300, 1612.461 369.500 C 1612.105 371.700, 1610.956 376.425, 1609.906 380 C 1604.521 398.341, 1601.803 408.072, 1600.549 413.500 C 1599.787 416.800, 1597.317 426.475, 1595.061 435 C 1592.804 443.525, 1589.842 455.450, 1588.479 461.500 C 1587.115 467.550, 1585.097 476.325, 1583.993 481 C 1582.889 485.675, 1581.304 493.550, 1580.470 498.500 C 1578.783 508.505, 1576.668 517.465, 1570.877 539.134 C 1565.986 557.438, 1565.623 562.466, 1568.996 565.198 C 1571.220 566.999, 1572.503 567.125, 1583.468 566.625 C 1590.086 566.323, 1596.232 566.058, 1597.127 566.038 C 1598.432 566.007, 1598.984 564.078, 1599.923 556.250 C 1601.413 543.833, 1605.622 526.436, 1608.132 522.326 C 1609.895 519.438, 1610.662 519.088, 1616.643 518.448 C 1620.259 518.061, 1626.656 518.119, 1630.858 518.578 C 1635.061 519.037, 1642.022 519.432, 1646.326 519.456 C 1655.801 519.509, 1656.230 519.925, 1657.975 530.754 C 1658.661 535.015, 1660.297 540.521, 1661.611 542.992 C 1663.293 546.155, 1664.002 549.114, 1664.006 552.992 C 1664.009 556.021, 1664.473 560.162, 1665.037 562.193 C 1665.989 565.620, 1666.402 565.938, 1670.769 566.593 C 1679.314 567.874, 1697.253 567.563, 1700.840 566.072 C 1704.107 564.713, 1704.165 564.584, 1703.498 560.135 C 1703.122 557.634, 1701.683 551.743, 1700.298 547.044 C 1698.913 542.345, 1697.378 533.775, 1696.886 528 C 1695.711 514.196, 1693.908 505.076, 1691.750 502.027 C 1690.622 500.433, 1690 497.697, 1690 494.326 C 1690 490.559, 1689.043 486.917, 1686.578 481.298 C 1684.696 477.009, 1682.235 468.775, 1681.109 463 C 1679.983 457.225, 1675.485 437.200, 1671.114 418.500 C 1666.742 399.800, 1662.849 380.900, 1662.461 376.500 C 1662.047 371.812, 1660.564 365.212, 1658.878 360.559 C 1657.006 355.393, 1656 350.674, 1655.999 347.059 C 1655.999 343.055, 1655.212 339.821, 1653.186 335.500 C 1651.639 332.200, 1649.350 325.867, 1648.098 321.427 L 1645.823 313.354 1636.661 313.410 C 1631.623 313.442, 1626.721 313.618, 1625.769 313.803 M 596.338 315.605 C 592.529 317.483, 591.699 320.163, 593.271 325.500 C 594.143 328.461, 594.467 359.247, 594.520 444 C 594.571 526.232, 594.907 559.232, 595.713 561.097 C 597.836 566.013, 602.101 567.037, 617.615 566.356 C 625.252 566.020, 632.175 565.805, 633 565.878 C 640.580 566.551, 683.500 565.803, 685.053 564.972 C 686.771 564.052, 687 562.821, 687 554.514 C 687 532.645, 682.369 527.432, 665.776 530.621 C 661.774 531.390, 656.700 532.174, 654.500 532.363 C 648.929 532.841, 640.247 529.414, 638.610 526.089 C 636.891 522.600, 636.561 507.721, 638.035 500.228 C 639.557 492.492, 637.726 476.784, 635.406 477.674 C 634.633 477.971, 634 477.716, 634 477.107 C 634 476.498, 634.708 476, 635.573 476 C 636.982 476, 637.143 470.980, 637.114 427.750 C 637.046 322.553, 637.004 319.655, 635.535 317.413 C 634.405 315.688, 632.754 315.188, 626.427 314.653 C 612.698 313.493, 599.793 313.901, 596.338 315.605 M 699.819 315.458 C 696.183 317.538, 695.672 319.802, 697.168 327.203 C 698.153 332.075, 698.448 359.070, 698.471 446.500 C 698.494 536.420, 698.761 559.957, 699.780 561.740 C 702.412 566.346, 705.683 567.054, 721.201 566.373 C 729.065 566.028, 736.175 565.812, 737 565.894 C 737.825 565.975, 749.466 566.003, 762.869 565.955 C 779.709 565.895, 787.854 565.502, 789.232 564.684 C 791.100 563.574, 791.191 562.736, 790.678 551.326 C 790.087 538.188, 788.861 534.265, 784.441 531.369 C 781.814 529.648, 774.179 529.822, 761 531.902 C 756.582 532.599, 754.418 532.401, 750 530.892 C 741.641 528.038, 740.996 526.798, 741.024 513.639 C 741.037 507.513, 741.473 500.700, 741.992 498.500 C 743.278 493.054, 741.201 476.709, 739.315 477.433 C 738.592 477.710, 738 477.501, 738 476.969 C 738 476.436, 738.696 476, 739.547 476 C 740.923 476, 741.092 470.537, 741.071 426.750 C 741.058 399.663, 741.056 375.025, 741.066 372 C 741.124 354.834, 740.175 320.126, 739.598 318.310 C 739.227 317.141, 738.153 315.876, 737.212 315.499 C 736.270 315.121, 728.075 314.613, 719 314.369 C 705.417 314.003, 702.026 314.196, 699.819 315.458 M 406 317.640 C 400.030 319.969, 399.098 320.076, 394.571 318.950 C 389.933 317.796, 389.537 317.854, 387.853 319.933 C 384.919 323.556, 384.648 328.200, 385.867 353.945 C 387.162 381.305, 386.516 445.817, 384.850 455.500 C 384.255 458.956, 384.091 466.376, 384.463 473 C 384.818 479.325, 385.454 491.475, 385.876 500 C 386.421 510.996, 387.139 516.644, 388.349 519.437 C 389.287 521.602, 390.675 527.505, 391.433 532.555 C 392.192 537.605, 393.484 543.036, 394.305 544.624 C 395.126 546.211, 400.977 552.345, 407.307 558.255 L 418.815 569 434.940 569 C 453.962 569, 455.840 568.444, 462.095 560.962 C 468.210 553.645, 469.788 552.193, 475.500 548.624 C 480.191 545.693, 480.664 545.006, 483.159 537.500 C 488.778 520.595, 489.221 514.523, 489.065 456.536 C 488.940 410.091, 488.731 403.360, 487.363 401.848 C 485.651 399.956, 485.914 396.607, 488.674 385.183 C 490.334 378.312, 489.960 376.920, 486.955 378.796 C 485.737 379.557, 485 379.629, 485 378.987 C 485 378.421, 486.059 377.474, 487.354 376.885 C 489.660 375.834, 489.706 375.545, 489.610 362.656 C 489.556 355.420, 489.734 344.550, 490.006 338.500 C 490.464 328.294, 490.330 327.204, 488.150 323.399 L 485.799 319.298 475.650 318 C 462.319 316.296, 459.182 316.481, 456.356 319.135 C 453.085 322.208, 452.591 326.445, 454.376 336.115 C 455.722 343.401, 455.779 348.432, 454.816 374.500 C 454.207 391, 453.661 410.800, 453.604 418.500 C 453.547 426.200, 453.158 433.026, 452.741 433.669 C 452.323 434.313, 452.624 435.481, 453.409 436.267 C 454.603 437.460, 454.693 440.303, 453.957 453.597 C 453.472 462.344, 453.059 480.220, 453.038 493.322 L 453 517.144 450.300 521.822 C 448.815 524.395, 447.015 526.860, 446.300 527.300 C 445.585 527.740, 445 528.716, 445 529.470 C 445 530.224, 443.711 531.124, 442.135 531.470 C 439.600 532.027, 439.069 532.842, 437.524 538.550 C 435.690 545.326, 434 547.020, 434 542.083 C 434 540.479, 433.438 538.940, 432.750 538.662 C 432.003 538.361, 432.205 538.126, 433.250 538.079 C 435.745 537.966, 435.680 532.411, 433.176 531.756 C 431.146 531.225, 423.767 517.561, 422.033 511.123 C 421.277 508.316, 421.011 484.104, 421.172 432.780 C 421.445 345.559, 421.333 336.546, 419.868 328.222 C 418.823 322.286, 415.699 315.984, 413.500 315.379 C 412.950 315.227, 409.575 316.245, 406 317.640 M 509.012 319.487 C 506.935 321.698, 506.777 322.563, 507.326 328.713 C 508.113 337.525, 508.160 543.552, 507.377 549.267 C 507.048 551.663, 507.311 556.182, 507.961 559.310 C 508.911 563.887, 509.585 565.109, 511.412 565.567 C 512.662 565.881, 526.878 565.943, 543.005 565.706 C 569.966 565.309, 572.434 565.127, 573.663 563.446 C 576.037 560.199, 575.699 547.842, 573.140 544.339 C 571.557 542.173, 571.101 542.116, 559.965 542.690 C 549.745 543.216, 547.907 543.052, 543.834 541.251 L 539.237 539.217 537.935 530.359 C 537.082 524.560, 536.609 510.046, 536.566 488.336 L 536.500 455.173 538.924 452.586 C 541.771 449.549, 543.223 449.366, 545.598 451.741 C 546.850 452.993, 547.456 453.133, 547.753 452.241 C 548.030 451.409, 550.493 451, 555.217 451 C 563.778 451, 569.732 449.356, 571.250 446.574 C 572.572 444.151, 572.855 431.175, 571.705 425.750 C 570.933 422.110, 570.781 422, 566.538 422 C 563.977 422, 561.958 421.482, 561.662 420.750 C 561.370 420.026, 561.125 420.262, 561.079 421.312 C 561.011 422.881, 560.163 423.098, 554.750 422.929 C 546.616 422.676, 542.840 421.523, 539.897 418.391 L 537.500 415.841 537.163 385.352 L 536.825 354.863 539.427 350.931 C 541.397 347.954, 542.692 346.998, 544.764 346.993 C 546.269 346.989, 550.512 346.701, 554.193 346.354 C 560.856 345.724, 560.883 345.732, 560.374 348.111 C 559.919 350.234, 559.991 350.298, 561.015 348.689 C 561.898 347.302, 562.878 347.034, 565.202 347.544 C 569.084 348.397, 572.518 346.578, 574.062 342.851 C 575.540 339.282, 574.483 324.872, 572.422 320.500 L 571.008 317.500 541.156 317.274 L 511.304 317.048 509.012 319.487 M 808.388 319.129 C 806.839 320.845, 806.567 322.412, 806.875 327.860 C 807.439 337.855, 807.449 342.287, 807.154 455.572 C 806.940 538.077, 807.150 561.235, 808.133 563.393 L 809.386 566.142 840.443 565.652 C 857.524 565.383, 871.601 565.126, 871.724 565.081 C 871.848 565.037, 872.635 563.672, 873.474 562.050 C 875.745 557.660, 875.468 548.466, 872.960 544.943 L 870.919 542.078 859.499 542.690 C 850.104 543.193, 847.289 543, 843.627 541.602 C 841.179 540.667, 838.924 539.243, 838.615 538.438 C 837.023 534.289, 836.089 517.399, 835.939 490 C 835.733 452.626, 835.546 455.639, 838.265 452.478 C 840.086 450.362, 841.067 449.979, 843.258 450.529 C 844.759 450.905, 845.738 451.615, 845.434 452.107 C 845.130 452.598, 845.584 453, 846.441 453 C 847.298 453, 848 452.605, 848 452.122 C 848 451.640, 851.993 451.054, 856.873 450.820 C 868.604 450.260, 870.609 448.977, 871.552 441.434 C 872.234 435.976, 871.636 426.822, 870.386 423.563 C 869.853 422.175, 868.217 422.026, 858.325 422.467 C 845.392 423.044, 841.370 422.020, 838.328 417.378 C 836.685 414.872, 836.465 411.629, 836.151 385.357 C 835.806 356.475, 835.829 356.076, 838.079 352.073 C 840.703 347.405, 840.802 347.364, 851.682 346.474 L 859.864 345.804 859.358 348.152 C 858.884 350.349, 858.946 350.384, 860.319 348.704 C 861.356 347.437, 862.533 347.096, 864.322 347.545 C 868.448 348.580, 871.065 347.109, 873.026 342.651 C 874.580 339.119, 874.722 337.350, 873.979 330.790 C 873.499 326.550, 872.467 321.860, 871.685 320.369 L 870.264 317.657 840.270 317.347 C 810.909 317.044, 810.236 317.081, 808.388 319.129 M 1148 318.384 C 1141.093 320.328, 1140.245 322.888, 1142.341 335.478 C 1144.979 351.321, 1146.202 364.895, 1145.470 370.215 C 1144.932 374.127, 1145.148 375.506, 1146.536 377.040 C 1147.788 378.423, 1147.982 379.319, 1147.230 380.231 C 1146.540 381.068, 1145.974 403.634, 1145.567 446.500 C 1145.228 482.250, 1144.447 518.093, 1143.832 526.150 C 1142.739 540.469, 1142.763 540.880, 1144.906 544.348 C 1146.112 546.300, 1147.864 548.115, 1148.800 548.382 C 1149.735 548.650, 1156.136 549.171, 1163.025 549.541 C 1182.747 550.601, 1185.924 548.267, 1182.777 535.028 C 1181.530 529.779, 1181.291 523.404, 1181.558 502.500 C 1181.747 487.702, 1181.451 473.953, 1180.871 470.587 C 1179.968 465.340, 1180.071 464.383, 1181.788 462.087 C 1184.359 458.651, 1190.476 458.786, 1193.589 462.347 C 1195.442 464.467, 1195.751 466.478, 1196.317 480.119 C 1196.719 489.782, 1196.547 497.866, 1195.855 501.865 C 1195.236 505.447, 1195.136 508.508, 1195.627 508.865 C 1196.107 509.214, 1196.641 515.718, 1196.814 523.317 C 1197.133 537.311, 1198.259 542.195, 1202.340 547.285 C 1203.703 548.984, 1203.978 548.987, 1208.135 547.347 C 1210.762 546.310, 1215.841 545.529, 1220.889 545.386 C 1225.502 545.255, 1230.327 544.884, 1231.610 544.562 C 1235.958 543.471, 1236.194 541.551, 1235.033 516.784 C 1234.436 504.064, 1234.241 490.421, 1234.599 486.465 C 1235.043 481.566, 1234.892 479.051, 1234.126 478.578 C 1232.509 477.579, 1232.739 476, 1234.500 476 C 1236.325 476, 1236.333 476.486, 1234.399 469.972 C 1232.829 464.683, 1232.887 455.336, 1234.530 448.819 C 1235.152 446.354, 1234.776 445.924, 1229.853 443.469 C 1220.254 438.682, 1218.531 433.785, 1224.435 428.063 C 1226.594 425.971, 1228.095 423.391, 1228.478 421.117 C 1229.079 417.550, 1230.024 374.434, 1229.949 354 C 1229.903 341.325, 1227.883 331.581, 1224.742 328.880 C 1217.393 322.560, 1213.706 320.744, 1206.142 319.719 C 1201.939 319.149, 1193.325 318.616, 1187 318.534 C 1180.675 318.451, 1170.325 318.100, 1164 317.751 C 1155.992 317.311, 1151.133 317.503, 1148 318.384 M 1474.500 318.309 C 1472.300 318.964, 1469.998 319.827, 1469.385 320.226 C 1467.240 321.621, 1467.161 327.971, 1469.144 339.689 C 1470.242 346.185, 1471.277 357.009, 1471.442 363.742 C 1471.641 371.854, 1472.176 376.507, 1473.029 377.534 C 1474.003 378.709, 1474.034 379.366, 1473.158 380.242 C 1472.321 381.079, 1471.971 393.059, 1471.894 423.450 C 1471.781 468.258, 1470.491 526.384, 1469.434 534.273 C 1468.635 540.237, 1469.275 542.791, 1472.402 546.134 C 1474.758 548.653, 1475.476 548.800, 1488.780 549.489 C 1506.689 550.416, 1510 549.089, 1510 540.983 C 1510 539.414, 1509.489 536.863, 1508.865 535.315 C 1508.127 533.483, 1507.621 521.331, 1507.417 500.500 C 1507.245 482.900, 1507.016 467.256, 1506.909 465.737 C 1506.606 461.438, 1509.573 458.839, 1513.918 459.598 C 1515.888 459.942, 1518.504 461.187, 1519.730 462.365 C 1521.816 464.367, 1521.991 465.569, 1522.430 480.881 C 1522.688 489.888, 1522.475 499.496, 1521.956 502.233 C 1521.437 504.971, 1521.290 507.661, 1521.631 508.211 C 1521.971 508.762, 1522.439 515.127, 1522.671 522.356 C 1523.128 536.597, 1524.699 543.435, 1528.283 546.786 L 1530.500 548.859 1536 546.902 C 1539.910 545.511, 1543.669 545.004, 1549 545.149 C 1556.986 545.366, 1560.475 544.231, 1561.471 541.090 C 1561.805 540.038, 1561.615 529.028, 1561.049 516.622 C 1560.483 504.216, 1560.301 490.740, 1560.645 486.675 C 1561.072 481.624, 1560.910 479.063, 1560.135 478.583 C 1558.484 477.563, 1558.746 476, 1560.567 476 C 1561.592 476, 1561.954 475.394, 1561.613 474.250 C 1559.359 466.696, 1558.808 462.232, 1559.446 456.691 C 1560.778 445.116, 1560.955 445.780, 1555.878 443.352 C 1550.737 440.893, 1547 436.812, 1547 433.657 C 1547 432.517, 1548.612 429.933, 1550.582 427.916 C 1554.024 424.391, 1554.199 423.858, 1555.034 414.373 C 1555.512 408.943, 1555.660 400, 1555.363 394.500 C 1555.065 389, 1555.257 380, 1555.789 374.500 C 1556.897 363.045, 1555.881 340.590, 1553.967 334.251 C 1552.787 330.343, 1548.149 325.753, 1541.149 321.565 C 1538.830 320.178, 1525.004 318.689, 1513 318.534 C 1506.675 318.451, 1496.325 318.100, 1490 317.751 C 1482.254 317.325, 1477.194 317.507, 1474.500 318.309 M 1720.731 322.601 C 1719.209 323.440, 1717.409 325.111, 1716.731 326.313 C 1715.778 328.006, 1715.566 346.068, 1715.790 406.203 C 1716.045 474.358, 1716.263 483.836, 1717.563 483.338 C 1718.813 482.858, 1718.939 483.687, 1718.371 488.634 C 1718 491.861, 1717.315 494.650, 1716.848 494.833 C 1715.634 495.311, 1715.800 499.400, 1717.087 500.687 C 1717.870 501.470, 1717.870 501.962, 1717.087 502.446 C 1715.634 503.344, 1715.634 537.655, 1717.087 545.514 C 1717.685 548.749, 1718.856 553.098, 1719.688 555.179 C 1720.999 558.455, 1721.910 559.185, 1726.493 560.629 C 1731.684 562.266, 1731.852 562.254, 1735.443 560.035 C 1740.254 557.062, 1741.920 554.343, 1742.238 548.944 C 1742.830 538.904, 1740.897 445.420, 1739.818 431.850 C 1738.759 418.548, 1738.813 416.777, 1740.409 412.600 C 1743.734 403.893, 1744.163 404.702, 1753.358 437 C 1755.315 443.875, 1757.372 453.325, 1757.928 458 C 1760.148 476.645, 1760.985 484.912, 1761.572 494 C 1761.910 499.225, 1762.819 507.885, 1763.593 513.243 C 1764.367 518.602, 1765 527.123, 1765 532.178 C 1765 542.602, 1766.932 548.082, 1772.155 552.477 C 1775.913 555.639, 1780.144 555.722, 1786.038 552.750 C 1792.035 549.726, 1793.332 546.789, 1792.086 539.051 C 1791.217 533.659, 1792.074 522.307, 1793.527 519.956 C 1795.470 516.813, 1801.431 488.488, 1803.074 474.595 C 1804.174 465.297, 1805.280 457.357, 1805.531 456.949 C 1805.783 456.542, 1805.320 454.924, 1804.501 453.354 C 1802.279 449.094, 1802.524 445, 1805 445 C 1806.673 445, 1807 444.333, 1807 440.926 C 1807 438.686, 1808.125 433.501, 1809.500 429.405 C 1810.875 425.309, 1812 420.674, 1812 419.104 C 1812 414.464, 1813.167 409.999, 1814.375 410.015 C 1817.926 410.064, 1818.196 411.479, 1818.076 429.443 L 1817.958 447.149 1820.229 446.964 C 1824.531 446.613, 1826 447.004, 1826 448.500 C 1826 449.577, 1824.901 450, 1822.105 450 C 1818.288 450, 1818.202 450.080, 1817.827 454.020 C 1817.616 456.232, 1817.706 458.594, 1818.026 459.270 C 1818.347 459.947, 1818.238 479.400, 1817.784 502.500 C 1816.860 549.527, 1817.001 551.038, 1822.814 556.142 C 1826.210 559.124, 1826.633 559.230, 1832.797 558.655 C 1836.337 558.324, 1840.868 557.254, 1842.866 556.277 L 1846.500 554.500 1846.847 544 C 1847.365 528.332, 1847.640 378.724, 1847.224 339.113 C 1847.155 332.559, 1844.671 325.673, 1841.468 323.154 C 1839.377 321.509, 1838.549 321.424, 1834.544 322.440 C 1831.382 323.243, 1827.340 323.323, 1821.280 322.702 L 1812.565 321.808 1810.294 324.654 C 1809.045 326.219, 1805.768 334.547, 1803.011 343.159 C 1798.630 356.849, 1798 359.879, 1798 367.251 C 1798 374.147, 1797.197 378.583, 1793.592 391.592 C 1790.435 402.985, 1788.994 410.338, 1788.516 417.500 C 1787.620 430.928, 1784.506 437.324, 1780.487 433.989 C 1779.669 433.311, 1779 432.107, 1779 431.316 C 1779 430.524, 1777.791 427.320, 1776.313 424.196 C 1773.949 419.198, 1773.535 416.771, 1772.876 404.008 C 1772.036 387.764, 1770.315 377.812, 1766.035 364.450 C 1764.434 359.454, 1762.423 351.319, 1761.564 346.371 C 1759.438 334.114, 1757.270 327.215, 1755.197 326.105 C 1752.388 324.602, 1738.516 322.005, 1730.717 321.522 C 1725.440 321.195, 1722.756 321.485, 1720.731 322.601 M 1864.859 323.012 C 1860.327 325.407, 1858.981 328.923, 1860.067 335.537 C 1860.514 338.267, 1860.908 372.814, 1860.940 412.309 C 1860.980 460.259, 1861.335 483.911, 1862.007 483.495 C 1862.651 483.097, 1862.922 485.057, 1862.757 488.928 C 1862.616 492.258, 1862.162 494.987, 1861.750 494.992 C 1860.433 495.006, 1860.930 500.999, 1862.250 501.015 C 1863.154 501.026, 1863.183 501.234, 1862.356 501.765 C 1860.340 503.061, 1859.594 535.026, 1861.354 544.777 C 1863.353 555.857, 1865.312 559.032, 1871.297 560.891 C 1875.977 562.344, 1876.073 562.328, 1880.264 559.387 C 1882.594 557.751, 1885.041 555.291, 1885.702 553.920 C 1887.216 550.780, 1885.624 443.687, 1883.842 428.758 C 1882.972 421.477, 1882.964 418.062, 1883.810 415.239 C 1885.317 410.210, 1887.570 407.204, 1888.861 408.500 C 1890.302 409.947, 1900.044 444.157, 1901.533 453 C 1902.228 457.125, 1903.524 468.150, 1904.414 477.500 C 1905.304 486.850, 1906.750 500.976, 1907.627 508.890 C 1908.504 516.805, 1909.199 526.705, 1909.171 530.890 C 1909.143 535.076, 1909.788 540.589, 1910.604 543.143 C 1912.576 549.307, 1918.102 555, 1922.113 555 C 1926.038 555, 1934.638 551.283, 1935.631 549.158 C 1936.057 548.246, 1936.431 542.100, 1936.462 535.500 C 1936.508 525.499, 1936.964 522, 1939.197 514.500 C 1943.852 498.862, 1945.802 489.826, 1946.967 478.500 C 1947.588 472.450, 1948.526 465.024, 1949.050 461.998 C 1949.671 458.416, 1949.654 455.279, 1949.001 453.005 C 1947.558 447.973, 1947.743 445, 1949.500 445 C 1950.343 445, 1951.068 444.014, 1951.156 442.750 C 1951.242 441.512, 1951.396 439.375, 1951.499 438 C 1951.601 436.625, 1952.656 432.702, 1953.843 429.282 C 1955.029 425.861, 1956.003 421.811, 1956.006 420.282 C 1956.013 416.789, 1957.860 409.995, 1958.797 410.015 C 1959.184 410.024, 1960.175 410.460, 1961 410.985 C 1962.239 411.773, 1962.500 414.950, 1962.500 429.220 C 1962.500 443.853, 1962.730 446.521, 1964 446.635 C 1964.825 446.709, 1966.513 446.821, 1967.750 446.885 C 1969.032 446.950, 1970 447.645, 1970 448.500 C 1970 449.583, 1968.889 450, 1966 450 L 1962 450 1962 454.941 C 1962 457.659, 1962.472 460.174, 1963.049 460.530 C 1963.722 460.946, 1963.756 461.593, 1963.142 462.339 C 1962.579 463.023, 1962.068 480.757, 1961.899 505.500 C 1961.588 550.719, 1961.693 551.800, 1966.852 556.396 C 1969.933 559.141, 1977.316 559.510, 1984.500 557.277 L 1990.500 555.413 1990.933 545.456 C 1991.171 539.980, 1991.325 489.674, 1991.274 433.665 L 1991.183 331.830 1988.796 327.192 L 1986.410 322.555 1971.594 322.514 L 1956.779 322.473 1954.420 325.278 C 1953.122 326.820, 1951.129 331.326, 1949.991 335.291 C 1948.853 339.256, 1946.590 346.258, 1944.961 350.852 C 1942.502 357.788, 1942 360.758, 1942 368.377 C 1942 376.197, 1941.353 379.831, 1937.610 393.025 C 1934.186 405.098, 1933.108 410.745, 1932.707 418.710 C 1932.285 427.105, 1931.802 429.470, 1929.991 432.013 C 1927.156 435.994, 1925.035 435.509, 1923.368 430.500 C 1922.636 428.300, 1921.524 425.631, 1920.897 424.568 C 1918.671 420.800, 1917.891 416.365, 1917.523 405.385 C 1917.063 391.697, 1914.841 378.902, 1910.423 364.500 C 1908.566 358.450, 1906.566 350.350, 1905.978 346.500 C 1905.389 342.650, 1904.014 336.476, 1902.920 332.780 C 1900.652 325.111, 1901.187 325.410, 1884.619 322.539 C 1873.184 320.557, 1869.330 320.650, 1864.859 323.012 M 284.836 323.058 C 283.371 323.636, 281.855 324.872, 281.468 325.805 C 280.008 329.322, 279.842 346.423, 281.223 351 L 282.581 355.500 291.044 356.083 C 295.699 356.403, 300.405 357.152, 301.504 357.747 C 305.072 359.679, 309.201 364.762, 309.151 367.159 C 309.124 368.447, 308.543 383, 307.861 399.500 C 307.178 416, 306.593 433.309, 306.560 437.965 L 306.500 446.430 311 446.806 C 316.057 447.229, 316.474 447.424, 315.541 448.933 C 315.179 449.520, 312.884 450, 310.441 450 L 306 450 306 455 C 306 457.750, 306.450 460, 307 460 C 308.314 460, 308.297 462.734, 306.981 463.173 C 305.500 463.667, 303.673 561.002, 305.012 568.064 C 305.572 571.015, 306.376 573.776, 306.800 574.200 C 308.050 575.450, 317.830 577.006, 323.886 576.920 C 332.673 576.794, 338.291 574.978, 339.112 572 C 339.491 570.625, 339.845 548.462, 339.900 522.750 C 339.979 485.971, 339.733 475.997, 338.750 475.985 C 337.837 475.974, 337.869 475.736, 338.867 475.103 C 339.989 474.392, 340.258 465.577, 340.367 425.869 C 340.440 399.266, 340.131 374.350, 339.680 370.500 L 338.860 363.500 342.565 359.674 C 347.528 354.548, 350.073 353.743, 358.740 354.555 C 371.598 355.760, 373.794 353.305, 372.380 339.310 C 371.879 334.354, 371.020 331.615, 369.227 329.250 C 366.826 326.083, 366.567 326, 359.131 325.996 C 354.934 325.994, 347.498 325.343, 342.606 324.549 C 331.243 322.704, 288.525 321.602, 284.836 323.058 M 1086.500 324.594 C 1079.350 325.341, 1068.022 326.002, 1061.326 326.063 C 1051.290 326.155, 1048.908 326.466, 1047.762 327.837 C 1046.592 329.237, 1046.485 338.677, 1047.087 387.500 C 1048.031 464.071, 1048.851 482.595, 1051.371 484.235 C 1052.080 484.696, 1052.111 484.975, 1051.453 484.985 C 1050.740 484.995, 1050.473 496.082, 1050.617 519.750 C 1050.732 538.862, 1050.866 555.262, 1050.914 556.194 C 1050.961 557.126, 1052.073 559.135, 1053.383 560.659 C 1055.747 563.407, 1055.860 563.429, 1067.133 563.257 C 1073.385 563.162, 1079.744 563.065, 1081.265 563.042 C 1085.510 562.978, 1088.243 557.947, 1087.535 551.500 C 1085.622 534.091, 1084.999 522.771, 1084.784 501.500 L 1084.540 477.500 1089.020 476.824 C 1091.484 476.452, 1097.125 476.115, 1101.556 476.074 C 1108.581 476.009, 1110.052 475.671, 1113.056 473.431 C 1114.950 472.017, 1117.879 470.275, 1119.564 469.559 C 1123.737 467.786, 1128.661 461.303, 1129.913 455.932 C 1131.481 449.204, 1132.988 425.424, 1132.449 415.928 C 1132.185 411.293, 1131.822 394, 1131.642 377.500 C 1131.278 344.092, 1131.338 344.434, 1124.048 334.565 C 1119.071 327.828, 1117.217 326.549, 1109.540 324.551 C 1102.762 322.787, 1103.800 322.785, 1086.500 324.594 M 1289.279 349.472 C 1286.562 351.430, 1283.739 360.241, 1281.899 372.500 C 1280.524 381.662, 1280.286 397.892, 1280.748 451 C 1280.884 466.675, 1281.019 483.438, 1281.048 488.250 C 1281.088 494.785, 1280.772 497.004, 1279.801 497.015 C 1278.886 497.026, 1278.836 497.249, 1279.631 497.765 C 1280.253 498.169, 1281.332 503.450, 1282.029 509.500 C 1283.531 522.548, 1285.656 528.212, 1290.050 530.884 C 1295.330 534.095, 1299.202 534.340, 1304.085 531.773 C 1307.960 529.736, 1308.709 528.720, 1311.290 522 L 1314.171 514.500 1312.613 503 C 1311.609 495.591, 1311.322 489.543, 1311.807 486 C 1312.221 482.975, 1312.277 478.475, 1311.931 476 C 1311.586 473.525, 1311.253 446.362, 1311.191 415.638 C 1311.086 362.962, 1310.972 359.568, 1309.192 356.138 C 1306.855 351.633, 1302.998 349.311, 1296.500 348.497 C 1292.741 348.026, 1290.949 348.268, 1289.279 349.472 M 1181.400 349.765 C 1178.440 351.742, 1178.096 354.851, 1178.856 372.759 C 1179.278 382.691, 1179.281 393.896, 1178.863 397.659 C 1177.704 408.086, 1177.793 408.736, 1180.830 412.135 C 1183.140 414.721, 1184.147 415.180, 1186.317 414.635 C 1189.821 413.756, 1192.203 409.949, 1192.172 405.275 C 1192.158 403.199, 1192.089 390.979, 1192.019 378.119 L 1191.892 354.738 1189.023 351.869 C 1186.200 349.046, 1183.566 348.319, 1181.400 349.765 M 1505.990 351.740 C 1504.067 354.185, 1503.899 355.290, 1504.436 361.990 C 1505.370 373.635, 1505.467 395.844, 1504.613 402.580 C 1503.891 408.284, 1504.011 408.859, 1506.555 411.884 C 1508.523 414.222, 1509.959 415.024, 1511.785 414.804 C 1515.511 414.354, 1518.476 409.772, 1518.316 404.711 C 1518.242 402.395, 1518.136 390.222, 1518.079 377.661 L 1517.975 354.822 1515.065 351.911 C 1511.425 348.271, 1508.758 348.221, 1505.990 351.740 M 1084.655 352.829 C 1083.171 354.469, 1083 358.953, 1083 396.282 C 1083 424.822, 1083.351 438.677, 1084.118 440.359 C 1084.732 441.708, 1086.723 443.613, 1088.541 444.592 C 1092.629 446.794, 1094.141 445.816, 1096.598 439.383 C 1098.068 435.533, 1098.134 434.177, 1097.078 429.460 C 1096.118 425.166, 1096.114 420.679, 1097.063 408.507 C 1097.727 399.988, 1097.976 389.751, 1097.617 385.759 C 1097.258 381.766, 1096.812 374, 1096.628 368.500 C 1096.214 356.198, 1095.530 353.562, 1092.376 352.125 C 1088.852 350.520, 1086.555 350.729, 1084.655 352.829 M 78.056 416.410 C 75.393 420.718, 74.245 424.515, 73.001 433.123 C 72.474 436.765, 69.522 448.015, 66.441 458.123 C 63.230 468.655, 60.604 479.354, 60.289 483.187 L 59.740 489.874 75.955 489.773 C 95.138 489.653, 94.684 489.938, 95.646 477.395 C 96.163 470.659, 95.732 467.078, 92.712 453 C 90.765 443.925, 88.907 432.675, 88.583 428 C 87.722 415.565, 87.008 413.564, 83.299 413.195 C 80.718 412.939, 79.886 413.449, 78.056 416.410 M 1631.575 417.281 C 1630.157 419.701, 1628.528 424.340, 1627.955 427.590 C 1625.663 440.596, 1624.730 444.307, 1619.470 461.372 C 1615.722 473.529, 1614 480.808, 1614 484.491 C 1614 489.612, 1614.130 489.882, 1616.750 490.184 C 1618.263 490.358, 1622.200 490.188, 1625.500 489.807 C 1628.800 489.425, 1634.712 489.375, 1638.637 489.694 C 1645.440 490.247, 1645.850 490.158, 1647.407 487.782 C 1648.377 486.302, 1649.286 482.083, 1649.646 477.395 C 1650.165 470.633, 1649.747 467.203, 1646.733 453.500 C 1644.798 444.700, 1642.917 433.237, 1642.554 428.026 C 1641.775 416.838, 1640.531 413.621, 1636.819 413.191 C 1634.589 412.932, 1633.732 413.601, 1631.575 417.281 M 551 420 C 551 420.550, 551.675 421, 552.500 421 C 553.325 421, 554 420.550, 554 420 C 554 419.450, 553.325 419, 552.500 419 C 551.675 419, 551 419.450, 551 420 M 850.500 420 C 850.160 420.550, 850.835 421, 852 421 C 853.165 421, 853.840 420.550, 853.500 420 C 853.160 419.450, 852.485 419, 852 419 C 851.515 419, 850.840 419.450, 850.500 420 M 1404.547 452.875 C 1402.298 456.393, 1402.239 457.073, 1402.521 476 C 1402.681 486.725, 1403.259 497.704, 1403.805 500.398 C 1404.532 503.990, 1404.410 507.906, 1403.344 515.087 C 1401.692 526.215, 1402.539 531.863, 1406.251 534.463 C 1408.901 536.320, 1414.002 536.465, 1416.270 534.750 C 1419.929 531.982, 1421.961 500.855, 1420.085 476.304 C 1418.623 457.170, 1417.730 453.290, 1414.446 451.793 C 1413.101 451.180, 1412 450.357, 1412 449.964 C 1412 449.572, 1410.844 449.250, 1409.431 449.250 C 1407.572 449.250, 1406.224 450.250, 1404.547 452.875" stroke="none" fill="black" fill-rule="evenodd"/>
</svg>