<svg xmlns="http://www.w3.org/2000/svg" xmlns:xlink="http://www.w3.org/1999/xlink" width="794" zoomAndPan="magnify" viewBox="0 0 595.5 254.999984" height="340" preserveAspectRatio="xMidYMid meet" version="1.0"><defs><g/><clipPath id="b4a575bd9c"><path d="M 14 20 L 595 20 L 595 254.890625 L 14 254.890625 Z M 14 20 " clip-rule="nonzero"/></clipPath><clipPath id="662bc05a74"><rect x="0" width="581" y="0" height="235"/></clipPath></defs><g clip-path="url(#b4a575bd9c)"><g transform="matrix(1, 0, 0, 1, 14, 20)"><g clip-path="url(#662bc05a74)"><g fill="#ffffff" fill-opacity="1"><g transform="translate(0.500634, 161.489885)"><g><path d="M 50.984375 18.59375 C 50.628906 19.632812 49.789062 20.035156 48.46875 19.796875 C 47.15625 19.566406 46.328125 18.820312 45.984375 17.5625 C 45.753906 17.21875 45.523438 16.585938 45.296875 15.671875 L 44.78125 13.953125 C 44.320312 13.265625 43.742188 12.398438 43.046875 11.359375 C 42.359375 10.328125 41.5 9.125 40.46875 7.75 C 39.894531 6.257812 38.632812 4.191406 36.6875 1.546875 C 35.53125 1.890625 34.550781 2.117188 33.75 2.234375 C 32.945312 2.347656 32.375 2.40625 32.03125 2.40625 C 31.570312 2.632812 31.171875 2.75 30.828125 2.75 C 30.140625 2.75 29.332031 2.578125 28.40625 2.234375 C 27.488281 1.890625 26.742188 1.660156 26.171875 1.546875 C 25.484375 1.316406 25.140625 1.203125 25.140625 1.203125 C 24.335938 1.085938 23.1875 0.710938 21.6875 0.078125 C 20.195312 -0.546875 18.789062 -1.257812 17.46875 -2.0625 C 16.15625 -2.863281 15.328125 -3.5 14.984375 -3.96875 C 14.179688 -4.769531 13.257812 -5.859375 12.21875 -7.234375 C 11.1875 -8.609375 10.039062 -10.332031 8.78125 -12.40625 C 7.632812 -14.46875 6.6875 -16.273438 5.9375 -17.828125 C 5.195312 -19.378906 4.65625 -20.671875 4.3125 -21.703125 C 3.957031 -22.273438 3.664062 -22.90625 3.4375 -23.59375 C 3.207031 -24.28125 2.976562 -24.851562 2.75 -25.3125 C 2.0625 -27.15625 2.003906 -30.367188 2.578125 -34.953125 C 2.804688 -36.910156 2.976562 -38.71875 3.09375 -40.375 C 3.207031 -42.039062 3.265625 -43.507812 3.265625 -44.78125 C 3.265625 -48.332031 3.289062 -51.890625 3.34375 -55.453125 C 3.40625 -59.015625 3.492188 -62.570312 3.609375 -66.125 C 3.847656 -69.800781 3.847656 -73.421875 3.609375 -76.984375 C 3.378906 -80.546875 2.976562 -84.046875 2.40625 -87.484375 C 2.289062 -88.398438 2.460938 -89.609375 2.921875 -91.109375 C 3.378906 -92.597656 3.609375 -93.742188 3.609375 -94.546875 L 3.265625 -96.953125 C 3.148438 -97.765625 2.976562 -98.65625 2.75 -99.625 C 2.519531 -100.601562 2.234375 -101.722656 1.890625 -102.984375 C 1.546875 -105.054688 2.238281 -108.5625 3.96875 -113.5 C 3.96875 -114.414062 4.082031 -115.5625 4.3125 -116.9375 C 4.539062 -118.3125 4.828125 -119.863281 5.171875 -121.59375 L 6.546875 -122.625 C 6.773438 -122.851562 7.003906 -123.082031 7.234375 -123.3125 C 7.460938 -123.539062 7.75 -123.769531 8.09375 -124 L 8.09375 -125.375 L 10.15625 -126.921875 C 10.613281 -127.378906 11.1875 -127.867188 11.875 -128.390625 C 12.570312 -128.910156 13.320312 -129.515625 14.125 -130.203125 C 14.582031 -130.660156 15.066406 -131.203125 15.578125 -131.828125 C 16.097656 -132.460938 16.644531 -133.179688 17.21875 -133.984375 C 17.90625 -134.898438 19.570312 -135.359375 22.21875 -135.359375 C 23.019531 -135.585938 23.960938 -135.929688 25.046875 -136.390625 C 26.140625 -136.859375 27.4375 -137.492188 28.9375 -138.296875 C 30.082031 -137.492188 31.742188 -136.6875 33.921875 -135.875 C 34.960938 -135.53125 35.882812 -135.359375 36.6875 -135.359375 C 36.914062 -135.359375 37.144531 -135.382812 37.375 -135.4375 C 37.601562 -135.5 37.890625 -135.53125 38.234375 -135.53125 C 38.578125 -135.644531 38.890625 -135.703125 39.171875 -135.703125 C 39.460938 -135.703125 39.664062 -135.703125 39.78125 -135.703125 C 40.695312 -135.703125 41.613281 -135.414062 42.53125 -134.84375 C 42.757812 -134.5 43.046875 -133.984375 43.390625 -133.296875 C 43.742188 -132.609375 44.265625 -131.804688 44.953125 -130.890625 C 45.523438 -129.742188 47.070312 -128.132812 49.59375 -126.0625 L 54.9375 -121.59375 C 54.9375 -116.882812 55.625 -111.660156 57 -105.921875 L 57 -99.546875 L 56.484375 -99.375 L 56.484375 -97.46875 L 57 -97.46875 C 56.882812 -96.09375 56.796875 -94.484375 56.734375 -92.640625 C 56.679688 -90.804688 56.65625 -88.742188 56.65625 -86.453125 L 55.28125 -86.453125 L 55.28125 -85.421875 L 56.65625 -85.421875 L 56.65625 -82.328125 C 56.539062 -81.628906 56.484375 -81.019531 56.484375 -80.5 C 56.484375 -79.988281 56.484375 -79.503906 56.484375 -79.046875 L 56.484375 -40.984375 L 56.65625 -36.859375 L 56.65625 -26.859375 C 56.65625 -18.941406 55.109375 -12.742188 52.015625 -8.265625 C 52.472656 -7.804688 53.046875 -7.0625 53.734375 -6.03125 L 55.796875 -2.75 C 56.023438 -2.40625 56.425781 -1.945312 57 -1.375 C 57.570312 -0.800781 58.265625 -0.113281 59.078125 0.6875 C 60.335938 1.832031 60.96875 3.125 60.96875 4.5625 C 60.96875 6 60.507812 7.003906 59.59375 7.578125 C 57.976562 8.492188 55.625 11.019531 52.53125 15.15625 C 52.1875 15.5 51.671875 16.644531 50.984375 18.59375 Z M 31.6875 -11.015625 L 33.578125 -17.734375 L 33.578125 -18.421875 C 35.304688 -19.460938 36.859375 -21.1875 38.234375 -23.59375 L 38.0625 -22.734375 L 38.578125 -22.734375 L 38.75 -24.453125 L 38.578125 -24.453125 C 39.953125 -26.867188 40.640625 -29.28125 40.640625 -31.6875 C 40.640625 -32.375 40.582031 -32.945312 40.46875 -33.40625 C 40.351562 -33.976562 40.238281 -34.722656 40.125 -35.640625 C 40.007812 -36.566406 39.953125 -37.375 39.953125 -38.0625 C 39.835938 -38.40625 39.78125 -38.71875 39.78125 -39 C 39.78125 -39.289062 39.78125 -39.492188 39.78125 -39.609375 C 39.78125 -41.671875 39.953125 -44.082031 40.296875 -46.84375 C 40.984375 -52.351562 40.984375 -56.488281 40.296875 -59.25 C 39.953125 -61.195312 39.835938 -63.144531 39.953125 -65.09375 L 39.953125 -103.84375 L 38.40625 -110.5625 C 38.289062 -111.476562 38.0625 -112.507812 37.71875 -113.65625 C 37.375 -114.8125 37.03125 -115.960938 36.6875 -117.109375 C 35.882812 -117.679688 34.820312 -118.082031 33.5 -118.3125 C 32.175781 -118.539062 30.597656 -118.65625 28.765625 -118.65625 L 26.859375 -118.140625 C 26.171875 -117.910156 25.597656 -117.679688 25.140625 -117.453125 C 24.453125 -115.734375 23.675781 -113.582031 22.8125 -111 C 21.957031 -108.414062 21.070312 -105.457031 20.15625 -102.125 C 19.8125 -100.976562 19.867188 -99.425781 20.328125 -97.46875 C 20.671875 -95.175781 20.785156 -93.6875 20.671875 -93 C 20.441406 -91.507812 20.269531 -89.988281 20.15625 -88.4375 C 20.039062 -86.882812 19.984375 -85.191406 19.984375 -83.359375 C 20.097656 -81.515625 20.15625 -79.757812 20.15625 -78.09375 C 20.15625 -76.4375 20.15625 -74.800781 20.15625 -73.1875 C 20.15625 -71.695312 20.15625 -69.773438 20.15625 -67.421875 C 20.15625 -65.066406 20.097656 -62.34375 19.984375 -59.25 C 19.984375 -56.257812 19.953125 -53.613281 19.890625 -51.3125 C 19.835938 -49.019531 19.8125 -47.070312 19.8125 -45.46875 C 19.8125 -44.894531 19.8125 -44.234375 19.8125 -43.484375 C 19.8125 -42.734375 19.753906 -41.957031 19.640625 -41.15625 C 19.515625 -40.007812 19.453125 -39.035156 19.453125 -38.234375 C 19.453125 -37.429688 19.453125 -36.914062 19.453125 -36.6875 L 18.59375 -36.859375 L 18.59375 -36.515625 L 19.453125 -36.34375 C 19.335938 -33.8125 19.367188 -31.769531 19.546875 -30.21875 C 19.722656 -28.675781 19.925781 -27.613281 20.15625 -27.03125 C 20.613281 -26.800781 21.070312 -26.425781 21.53125 -25.90625 C 21.988281 -25.394531 22.503906 -24.796875 23.078125 -24.109375 C 23.078125 -23.878906 23.191406 -23.421875 23.421875 -22.734375 C 23.648438 -22.046875 23.765625 -21.585938 23.765625 -21.359375 C 24.222656 -20.328125 24.910156 -19.632812 25.828125 -19.28125 C 27.554688 -17.5625 29.453125 -17.046875 31.515625 -17.734375 L 31 -14.46875 L 30.484375 -14.46875 L 29.96875 -14.8125 L 28.9375 -14.46875 L 31 -13.953125 L 30.484375 -11.1875 Z M 31.6875 -11.015625 "/></g></g></g><g fill="#ffffff" fill-opacity="1"><g transform="translate(60.944697, 161.489885)"><g><path d="M 34.4375 1.71875 C 32.257812 1.71875 30.078125 1.660156 27.890625 1.546875 C 25.710938 1.429688 23.476562 1.375 21.1875 1.375 C 20.15625 -0.34375 18.632812 -1.945312 16.625 -3.4375 C 14.613281 -4.9375 12.773438 -6.515625 11.109375 -8.171875 C 9.441406 -9.835938 8.378906 -11.648438 7.921875 -13.609375 C 7.578125 -15.210938 7.375 -16.757812 7.3125 -18.25 C 7.257812 -19.75 6.945312 -21.242188 6.375 -22.734375 C 6.144531 -23.535156 5.828125 -24.421875 5.421875 -25.390625 C 5.023438 -26.367188 4.769531 -27.265625 4.65625 -28.078125 C 4.539062 -29.335938 4.507812 -30.679688 4.5625 -32.109375 C 4.625 -33.546875 4.65625 -34.898438 4.65625 -36.171875 C 4.65625 -38.234375 4.453125 -40.351562 4.046875 -42.53125 C 3.640625 -44.71875 3.4375 -46.898438 3.4375 -49.078125 C 3.4375 -51.265625 3.492188 -53.445312 3.609375 -55.625 C 3.722656 -57.8125 4.015625 -59.992188 4.484375 -62.171875 L 4.3125 -61.3125 L 4.65625 -61.3125 L 5.171875 -63.890625 L 4.65625 -63.890625 L 4.65625 -80.765625 C 4.65625 -83.179688 4.710938 -85.566406 4.828125 -87.921875 C 4.941406 -90.273438 5 -92.65625 5 -95.0625 C 5 -100 4.828125 -104.90625 4.484375 -109.78125 C 4.140625 -114.664062 3.96875 -119.578125 3.96875 -124.515625 C 3.96875 -125.429688 4.164062 -126.632812 4.5625 -128.125 C 4.96875 -129.625 5.800781 -130.375 7.0625 -130.375 C 7.75 -130.375 8.40625 -130.226562 9.03125 -129.9375 C 9.664062 -129.65625 10.328125 -129.515625 11.015625 -129.515625 C 12.515625 -129.515625 13.894531 -129.914062 15.15625 -130.71875 C 16.414062 -131.519531 17.734375 -131.921875 19.109375 -131.921875 C 21.179688 -129.847656 22.300781 -127.40625 22.46875 -124.59375 C 22.644531 -121.78125 22.734375 -119.054688 22.734375 -116.421875 C 22.960938 -115.960938 23.101562 -115.269531 23.15625 -114.34375 C 23.21875 -113.425781 23.25 -112.679688 23.25 -112.109375 C 23.25 -110.734375 23.132812 -109.359375 22.90625 -107.984375 C 22.675781 -106.609375 22.5625 -105.285156 22.5625 -104.015625 C 22.5625 -101.722656 22.734375 -99.539062 23.078125 -97.46875 L 22.90625 -97.46875 L 22.734375 -36.859375 L 21.875 -36.859375 L 22.734375 -36.34375 L 22.734375 -34.609375 C 22.617188 -34.835938 22.53125 -34.804688 22.46875 -34.515625 C 22.414062 -34.234375 22.503906 -34.09375 22.734375 -34.09375 C 22.847656 -31.914062 23.019531 -30.28125 23.25 -29.1875 C 23.476562 -28.101562 23.847656 -27.097656 24.359375 -26.171875 C 24.878906 -25.253906 25.597656 -23.878906 26.515625 -22.046875 C 27.210938 -20.785156 27.585938 -19.835938 27.640625 -19.203125 C 27.703125 -18.566406 28.648438 -18.132812 30.484375 -17.90625 L 29.96875 -14.46875 L 29.453125 -14.46875 L 28.9375 -14.8125 L 27.90625 -14.46875 L 29.96875 -13.953125 L 29.453125 -11.1875 L 30.484375 -11.015625 L 32.546875 -17.734375 L 35.125 -18.421875 C 35.25 -18.992188 35.484375 -19.539062 35.828125 -20.0625 C 36.171875 -20.582031 36.515625 -21.070312 36.859375 -21.53125 L 36.6875 -20.328125 L 37.03125 -20.15625 L 37.375 -22.046875 L 37.203125 -22.046875 C 37.429688 -22.390625 37.914062 -23.101562 38.65625 -24.1875 C 39.40625 -25.28125 39.78125 -26.054688 39.78125 -26.515625 C 40.007812 -33.179688 40.066406 -40.097656 39.953125 -47.265625 C 39.835938 -54.441406 40.066406 -61.132812 40.640625 -67.34375 L 40.296875 -68.375 L 39.4375 -67.515625 L 39.4375 -70.265625 L 39.953125 -70.265625 L 40.296875 -69.921875 C 39.953125 -72.210938 39.804688 -74.535156 39.859375 -76.890625 C 39.921875 -79.242188 39.78125 -81.570312 39.4375 -83.875 L 39.78125 -84.046875 C 40.125 -85.421875 40.410156 -86.828125 40.640625 -88.265625 C 40.867188 -89.703125 40.984375 -91.109375 40.984375 -92.484375 C 40.984375 -94.085938 40.894531 -95.722656 40.71875 -97.390625 C 40.550781 -99.054688 40.46875 -100.75 40.46875 -102.46875 C 40.46875 -104.414062 40.609375 -106.421875 40.890625 -108.484375 C 41.179688 -110.554688 41.328125 -112.628906 41.328125 -114.703125 C 41.328125 -116.535156 41.066406 -118.285156 40.546875 -119.953125 C 40.035156 -121.617188 39.78125 -123.367188 39.78125 -125.203125 C 39.78125 -126.804688 40.148438 -128.210938 40.890625 -129.421875 C 41.640625 -130.628906 42.9375 -131.234375 44.78125 -131.234375 C 46.726562 -131.234375 48.675781 -131.003906 50.625 -130.546875 C 52.582031 -130.085938 54.59375 -129.914062 56.65625 -130.03125 C 57.457031 -128.988281 58.144531 -127.863281 58.71875 -126.65625 C 59.300781 -125.457031 59.59375 -124.226562 59.59375 -122.96875 C 59.59375 -120.550781 59.414062 -118.132812 59.0625 -115.71875 C 58.71875 -113.3125 58.546875 -110.90625 58.546875 -108.5 C 58.546875 -107.695312 58.546875 -106.890625 58.546875 -106.078125 C 58.546875 -105.273438 58.609375 -104.472656 58.734375 -103.671875 L 59.078125 -103.671875 C 59.078125 -103.097656 59.101562 -102.46875 59.15625 -101.78125 C 59.21875 -101.09375 59.25 -100.460938 59.25 -99.890625 C 58.90625 -100.003906 58.382812 -99.890625 57.6875 -99.546875 C 57 -99.203125 56.65625 -98.859375 56.65625 -98.515625 L 56.65625 -97.8125 C 57.113281 -97.8125 57.34375 -98.160156 57.34375 -98.859375 L 59.25 -98.859375 L 59.25 -97.46875 C 58.90625 -97.46875 58.554688 -96.632812 58.203125 -94.96875 C 57.859375 -93.3125 57.597656 -91.648438 57.421875 -89.984375 C 57.253906 -88.316406 57.113281 -87.253906 57 -86.796875 L 58.90625 -85.421875 C 58.664062 -82.203125 58.515625 -79.015625 58.453125 -75.859375 C 58.398438 -72.703125 58.375 -69.515625 58.375 -66.296875 C 58.375 -61.710938 58.460938 -57.09375 58.640625 -52.4375 C 58.816406 -47.789062 58.90625 -43.113281 58.90625 -38.40625 C 58.90625 -33.925781 58.613281 -29.503906 58.03125 -25.140625 C 57.457031 -20.773438 56.367188 -16.53125 54.765625 -12.40625 C 54.078125 -10.5625 52.867188 -9.378906 51.140625 -8.859375 C 49.421875 -8.347656 48.046875 -7.347656 47.015625 -5.859375 C 45.640625 -4.015625 44.460938 -2.519531 43.484375 -1.375 C 42.503906 -0.226562 41.382812 0.570312 40.125 1.03125 C 38.863281 1.488281 36.96875 1.71875 34.4375 1.71875 Z M 34.4375 1.71875 "/></g></g></g><g fill="#ffffff" fill-opacity="1"><g transform="translate(123.455227, 161.489885)"><g><path d="M 3.96875 0.515625 C 1.207031 0.515625 -0.285156 -0.6875 -0.515625 -3.09375 C -0.515625 -3.90625 -0.34375 -5.195312 0 -6.96875 C 0.34375 -8.75 0.914062 -11.019531 1.71875 -13.78125 L 2.578125 -17.046875 L 4.140625 -22.5625 C 4.140625 -22.789062 4.195312 -23.160156 4.3125 -23.671875 C 4.425781 -24.191406 4.539062 -24.679688 4.65625 -25.140625 C 5 -26.398438 5.34375 -27.75 5.6875 -29.1875 C 6.03125 -30.625 6.316406 -32.085938 6.546875 -33.578125 C 6.773438 -34.378906 6.945312 -35.238281 7.0625 -36.15625 C 7.175781 -37.082031 7.289062 -38.0625 7.40625 -39.09375 L 8.09375 -42.1875 C 8.78125 -44.488281 9.351562 -46.785156 9.8125 -49.078125 C 10.269531 -51.378906 10.671875 -53.617188 11.015625 -55.796875 C 11.710938 -58.210938 12.375 -60.507812 13 -62.6875 C 13.632812 -64.863281 14.179688 -67.046875 14.640625 -69.234375 L 17.90625 -82.140625 L 17.734375 -83.1875 L 18.25 -83.1875 C 18.476562 -83.875 18.675781 -84.5625 18.84375 -85.25 C 19.019531 -85.9375 19.164062 -86.507812 19.28125 -86.96875 C 19.394531 -87.195312 19.539062 -87.65625 19.71875 -88.34375 C 19.894531 -89.03125 20.097656 -89.78125 20.328125 -90.59375 L 20.84375 -92.65625 C 21.070312 -93.226562 21.300781 -94.085938 21.53125 -95.234375 L 23.078125 -100.0625 L 24.453125 -107.640625 C 22.617188 -107.296875 22.015625 -107.410156 22.640625 -107.984375 C 23.273438 -108.554688 23.9375 -108.84375 24.625 -108.84375 L 24.625 -109.015625 L 25.828125 -115.390625 L 25.65625 -114.359375 C 26 -116.304688 26.3125 -118.082031 26.59375 -119.6875 C 26.882812 -121.300781 27.207031 -122.738281 27.5625 -124 C 28.59375 -129.394531 29.507812 -132.265625 30.3125 -132.609375 C 31.226562 -133.066406 32.660156 -133.125 34.609375 -132.78125 C 35.078125 -132.550781 35.710938 -132.4375 36.515625 -132.4375 C 37.429688 -132.4375 38.117188 -132.609375 38.578125 -132.953125 L 41.15625 -132.953125 L 43.75 -124.34375 C 44.4375 -123.195312 45.296875 -121.300781 46.328125 -118.65625 L 46.671875 -113.671875 L 46.671875 -111.9375 C 47.015625 -111.132812 47.441406 -110.046875 47.953125 -108.671875 C 48.472656 -107.296875 49.019531 -105.628906 49.59375 -103.671875 L 49.9375 -99.71875 C 50.050781 -99.488281 50.109375 -98.972656 50.109375 -98.171875 L 50.28125 -95.75 L 57.515625 -64.75 C 57.742188 -64.0625 58.0625 -62.851562 58.46875 -61.125 C 58.875 -59.40625 59.304688 -57.171875 59.765625 -54.421875 C 60.222656 -52.242188 60.679688 -50.320312 61.140625 -48.65625 C 61.597656 -46.988281 62.113281 -45.582031 62.6875 -44.4375 C 63.375 -43.050781 63.890625 -41.84375 64.234375 -40.8125 L 64.75 -34.4375 C 64.976562 -34.09375 65.265625 -33.75 65.609375 -33.40625 C 65.953125 -33.0625 66.359375 -32.601562 66.828125 -32.03125 L 66.828125 -28.9375 C 67.054688 -28.25 67.253906 -27.382812 67.421875 -26.34375 C 67.597656 -25.3125 67.859375 -24.164062 68.203125 -22.90625 L 68.203125 -18.765625 L 68.546875 -14.46875 C 69.578125 -11.9375 70.78125 -7.515625 72.15625 -1.203125 C 72.039062 -1.085938 71.835938 -0.914062 71.546875 -0.6875 C 71.265625 -0.457031 70.835938 -0.226562 70.265625 0 C 69.804688 0.34375 68.742188 0.570312 67.078125 0.6875 C 65.410156 0.800781 63.539062 0.828125 61.46875 0.765625 C 59.40625 0.710938 57.484375 0.597656 55.703125 0.421875 C 53.929688 0.253906 52.757812 0.113281 52.1875 0 C 51.382812 -1.257812 50.984375 -3.039062 50.984375 -5.34375 L 50.625 -8.953125 C 50.625 -9.867188 50.507812 -10.554688 50.28125 -11.015625 C 50.050781 -11.359375 49.789062 -11.789062 49.5 -12.3125 C 49.21875 -12.832031 48.847656 -13.492188 48.390625 -14.296875 C 48.273438 -15.210938 48.070312 -16.445312 47.78125 -18 C 47.5 -19.550781 47.128906 -21.414062 46.671875 -23.59375 C 45.410156 -24.507812 44.207031 -24.96875 43.0625 -24.96875 C 42.476562 -24.96875 42.070312 -24.910156 41.84375 -24.796875 C 40.8125 -24.109375 39.148438 -24.050781 36.859375 -24.625 C 35.359375 -24.96875 33.003906 -25.140625 29.796875 -25.140625 C 26.691406 -25.140625 24.164062 -24.96875 22.21875 -24.625 C 22.101562 -24.507812 21.988281 -24.304688 21.875 -24.015625 C 21.757812 -23.734375 21.644531 -23.476562 21.53125 -23.25 C 21.414062 -23.019531 21.269531 -22.734375 21.09375 -22.390625 C 20.925781 -22.046875 20.726562 -21.703125 20.5 -21.359375 L 18.9375 -15.5 C 18.820312 -15.039062 18.648438 -14.265625 18.421875 -13.171875 C 18.191406 -12.078125 17.90625 -10.726562 17.5625 -9.125 L 16.53125 -0.34375 L 15.328125 0 C 14.640625 0.226562 14.238281 0.34375 14.125 0.34375 C 14.125 0.34375 14.035156 0.3125 13.859375 0.25 C 13.691406 0.195312 13.492188 0.113281 13.265625 0 C 12.691406 -0.113281 12.054688 -0.113281 11.359375 0 C 10.441406 0.113281 9.378906 0.253906 8.171875 0.421875 C 6.972656 0.597656 5.570312 0.628906 3.96875 0.515625 Z M 24.96875 -111.421875 L 24.109375 -112.28125 L 24.625 -112.796875 L 24.96875 -112.796875 L 24.96875 -112.28125 L 25.140625 -112.28125 Z M 27.90625 -39.78125 C 29.507812 -40.007812 30.828125 -40.007812 31.859375 -39.78125 C 32.429688 -40.351562 33.234375 -40.640625 34.265625 -40.640625 C 34.835938 -40.640625 35.644531 -40.46875 36.6875 -40.125 C 37.257812 -40.007812 37.742188 -39.921875 38.140625 -39.859375 C 38.546875 -39.804688 38.921875 -39.78125 39.265625 -39.78125 C 40.066406 -39.78125 40.8125 -39.953125 41.5 -40.296875 C 42.070312 -41.210938 42.59375 -41.898438 43.0625 -42.359375 C 43.0625 -42.703125 43.0625 -43.160156 43.0625 -43.734375 C 43.0625 -44.316406 43.117188 -45.007812 43.234375 -45.8125 C 43.347656 -46.613281 43.429688 -47.300781 43.484375 -47.875 C 43.546875 -48.445312 43.578125 -48.960938 43.578125 -49.421875 C 43.578125 -50.804688 43.40625 -52.015625 43.0625 -53.046875 L 39.78125 -68.03125 C 39.78125 -69.976562 39.691406 -71.925781 39.515625 -73.875 C 39.347656 -75.832031 39.035156 -77.726562 38.578125 -79.5625 L 37.546875 -80.59375 L 35.484375 -80.59375 C 32.953125 -78.070312 31.570312 -74.113281 31.34375 -68.71875 L 29.96875 -63.71875 C 29.96875 -63.601562 29.796875 -62.972656 29.453125 -61.828125 C 29.109375 -60.679688 28.707031 -59.359375 28.25 -57.859375 L 27.734375 -56.140625 C 27.734375 -55.796875 27.703125 -55.59375 27.640625 -55.53125 C 27.585938 -55.476562 27.5625 -55.507812 27.5625 -55.625 L 26.171875 -51.328125 C 24.910156 -47.304688 24.28125 -44.316406 24.28125 -42.359375 C 24.28125 -41.671875 24.394531 -40.984375 24.625 -40.296875 C 24.96875 -39.953125 26.0625 -39.78125 27.90625 -39.78125 Z M 27.90625 -39.78125 "/></g></g></g><g fill="#ffffff" fill-opacity="1"><g transform="translate(199.053354, 161.489885)"><g><path d="M 50.984375 -20.84375 C 51.328125 -19.570312 51.554688 -18.019531 51.671875 -16.1875 C 51.785156 -14.351562 51.320312 -12.921875 50.28125 -11.890625 C 49.363281 -10.960938 47.929688 -10.671875 45.984375 -11.015625 C 43.796875 -11.359375 41.84375 -11.359375 40.125 -11.015625 C 40.007812 -10.898438 39.863281 -10.84375 39.6875 -10.84375 C 39.519531 -10.84375 39.320312 -10.785156 39.09375 -10.671875 C 38.632812 -10.554688 37.945312 -10.269531 37.03125 -9.8125 C 36.113281 -9.351562 35.25 -9.125 34.4375 -9.125 C 32.945312 -10.5 31.742188 -12.851562 30.828125 -16.1875 L 30.65625 -24.625 L 30.140625 -28.9375 L 30.484375 -28.9375 L 30.828125 -29.453125 L 30.828125 -30.140625 L 30.484375 -30.484375 L 30.140625 -29.96875 L 30.140625 -28.9375 C 29.910156 -31 29.96875 -32.488281 30.3125 -33.40625 C 30.65625 -34.675781 30.828125 -36.914062 30.828125 -40.125 L 30.828125 -40.46875 C 30.710938 -41.5 30.625 -42.242188 30.5625 -42.703125 C 30.507812 -43.171875 30.484375 -43.460938 30.484375 -43.578125 L 30.484375 -49.25 C 30.597656 -50.050781 30.65625 -50.679688 30.65625 -51.140625 C 30.65625 -51.609375 30.65625 -51.898438 30.65625 -52.015625 C 30.3125 -53.160156 29.738281 -54.132812 28.9375 -54.9375 L 28.9375 -55.109375 L 28.765625 -55.109375 C 28.078125 -55.796875 26.925781 -56.140625 25.3125 -56.140625 L 24.109375 -56.140625 C 22.734375 -54.992188 22.046875 -53.734375 22.046875 -52.359375 L 22.390625 -51.328125 C 22.503906 -50.742188 22.675781 -49.789062 22.90625 -48.46875 C 23.132812 -47.15625 23.191406 -45.984375 23.078125 -44.953125 C 22.847656 -44.953125 22.734375 -44.78125 22.734375 -44.4375 L 22.734375 -43.578125 L 23.078125 -43.40625 L 22.5625 -36.34375 C 23.019531 -34.613281 23.25 -32.375 23.25 -29.625 C 23.132812 -28.25 23.046875 -26.957031 22.984375 -25.75 C 22.929688 -24.539062 22.789062 -23.476562 22.5625 -22.5625 C 22.21875 -20.613281 22.5625 -18.429688 23.59375 -16.015625 C 23.820312 -15.441406 23.992188 -14.894531 24.109375 -14.375 C 24.222656 -13.863281 24.28125 -13.4375 24.28125 -13.09375 C 24.28125 -11.019531 23.414062 -9.664062 21.6875 -9.03125 C 19.96875 -8.40625 18.046875 -8.207031 15.921875 -8.4375 C 13.804688 -8.664062 12.171875 -8.894531 11.015625 -9.125 L 8.953125 -9.125 C 8.492188 -9.125 7.976562 -9.148438 7.40625 -9.203125 C 6.832031 -9.265625 6.085938 -9.296875 5.171875 -9.296875 C 4.941406 -9.640625 4.625 -10.097656 4.21875 -10.671875 C 3.8125 -11.242188 3.320312 -11.9375 2.75 -12.75 C 2.519531 -13.09375 2.40625 -13.78125 2.40625 -14.8125 C 2.40625 -15.726562 2.460938 -16.644531 2.578125 -17.5625 C 2.691406 -18.476562 2.921875 -19.398438 3.265625 -20.328125 L 3.265625 -23.59375 C 3.378906 -24.28125 3.460938 -25.140625 3.515625 -26.171875 C 3.578125 -27.210938 3.609375 -28.363281 3.609375 -29.625 L 3.609375 -36.515625 C 3.722656 -37.429688 3.78125 -38.144531 3.78125 -38.65625 C 3.78125 -39.175781 3.78125 -39.609375 3.78125 -39.953125 L 3.96875 -92.484375 C 4.082031 -92.828125 4.164062 -93.140625 4.21875 -93.421875 C 4.28125 -93.710938 4.253906 -94.03125 4.140625 -94.375 L 3.96875 -97.46875 C 4.769531 -97.46875 5.171875 -97.816406 5.171875 -98.515625 C 5.171875 -98.972656 4.707031 -99.429688 3.78125 -99.890625 L 3.78125 -101.78125 C 3.90625 -102.925781 3.96875 -103.929688 3.96875 -104.796875 C 3.96875 -105.660156 3.96875 -106.492188 3.96875 -107.296875 L 3.609375 -110.734375 C 3.378906 -113.492188 2.863281 -117.34375 2.0625 -122.28125 C 1.71875 -123.425781 1.601562 -124.859375 1.71875 -126.578125 C 1.71875 -128.304688 2.117188 -129.34375 2.921875 -129.6875 C 3.492188 -129.800781 4.210938 -129.941406 5.078125 -130.109375 C 5.941406 -130.285156 6.832031 -130.601562 7.75 -131.0625 C 13.71875 -131.0625 18.253906 -130.71875 21.359375 -130.03125 C 22.046875 -129.800781 23.019531 -129.800781 24.28125 -130.03125 L 26 -130.203125 C 26.34375 -130.316406 26.6875 -130.375 27.03125 -130.375 L 28.9375 -130.375 C 29.050781 -130.488281 29.222656 -130.546875 29.453125 -130.546875 L 29.96875 -130.546875 C 31.113281 -130.203125 32.289062 -129.972656 33.5 -129.859375 C 34.707031 -129.742188 35.882812 -129.570312 37.03125 -129.34375 L 39.09375 -129.171875 C 39.320312 -129.171875 39.894531 -128.878906 40.8125 -128.296875 C 41.726562 -127.722656 42.734375 -127.003906 43.828125 -126.140625 C 44.921875 -125.285156 45.867188 -124.515625 46.671875 -123.828125 C 46.785156 -123.710938 46.867188 -123.507812 46.921875 -123.21875 C 46.984375 -122.9375 47.070312 -122.566406 47.1875 -122.109375 C 47.414062 -121.296875 47.671875 -120.171875 47.953125 -118.734375 C 48.242188 -117.304688 48.332031 -115.617188 48.21875 -113.671875 C 48.101562 -113.429688 48.046875 -113.082031 48.046875 -112.625 L 48.046875 -111.765625 C 48.390625 -110.273438 48.5625 -108.726562 48.5625 -107.125 C 48.5625 -106.4375 48.5625 -105.660156 48.5625 -104.796875 C 48.5625 -103.929688 48.445312 -102.867188 48.21875 -101.609375 C 48.101562 -100.460938 48.015625 -99.425781 47.953125 -98.5 C 47.898438 -97.582031 47.875 -96.835938 47.875 -96.265625 L 47.875 -89.03125 C 47.988281 -88.226562 48.070312 -87.507812 48.125 -86.875 C 48.1875 -86.25 48.21875 -85.648438 48.21875 -85.078125 C 48.21875 -84.273438 48.101562 -83.53125 47.875 -82.84375 L 47.875 -80.078125 C 47.875 -79.273438 47.816406 -78.382812 47.703125 -77.40625 C 47.585938 -76.4375 47.359375 -75.375 47.015625 -74.21875 L 44.4375 -71.8125 C 43.632812 -71.007812 43.375 -69.976562 43.65625 -68.71875 C 43.945312 -67.457031 45.007812 -66.25 46.84375 -65.09375 C 47.53125 -64.863281 48.1875 -64.601562 48.8125 -64.3125 C 49.445312 -64.03125 50.109375 -63.601562 50.796875 -63.03125 L 50.796875 -61.3125 C 50.453125 -60.96875 50.191406 -60.132812 50.015625 -58.8125 C 49.847656 -57.488281 49.789062 -56.140625 49.84375 -54.765625 C 49.90625 -53.390625 50.050781 -52.359375 50.28125 -51.671875 L 51.328125 -47.875 L 51.328125 -47.53125 L 50.28125 -47.53125 L 49.765625 -47.015625 L 49.9375 -47.015625 L 49.9375 -46.15625 L 50.453125 -46.5 L 50.984375 -45.125 L 51.15625 -45.296875 C 51.039062 -44.492188 50.921875 -43.429688 50.796875 -42.109375 C 50.679688 -40.785156 50.566406 -39.207031 50.453125 -37.375 C 50.453125 -36.800781 50.453125 -36.140625 50.453125 -35.390625 C 50.453125 -34.640625 50.507812 -33.804688 50.625 -32.890625 C 50.863281 -31.972656 50.984375 -31.171875 50.984375 -30.484375 C 50.984375 -29.796875 50.984375 -29.222656 50.984375 -28.765625 Z M 23.9375 -79.21875 C 25.882812 -79.21875 27.257812 -80.132812 28.0625 -81.96875 C 28.875 -83.8125 28.878906 -86.164062 28.078125 -89.03125 L 28.078125 -92.140625 C 27.960938 -92.710938 27.90625 -93.253906 27.90625 -93.765625 C 27.90625 -94.285156 27.90625 -94.832031 27.90625 -95.40625 C 28.019531 -95.632812 28.078125 -95.921875 28.078125 -96.265625 C 28.078125 -96.609375 28.078125 -96.894531 28.078125 -97.125 L 28.078125 -100.0625 C 28.078125 -100.519531 28.019531 -100.921875 27.90625 -101.265625 C 28.019531 -101.609375 28.078125 -101.976562 28.078125 -102.375 C 28.078125 -102.78125 28.132812 -103.269531 28.25 -103.84375 C 28.363281 -104.757812 28.476562 -106.109375 28.59375 -107.890625 C 28.707031 -109.671875 28.300781 -111.132812 27.375 -112.28125 C 26.570312 -113.664062 25.195312 -114.242188 23.25 -114.015625 L 22.90625 -114.015625 C 22.445312 -113.546875 21.957031 -112.910156 21.4375 -112.109375 C 20.925781 -111.304688 20.671875 -110.5625 20.671875 -109.875 L 21.53125 -105.046875 C 21.644531 -104.359375 21.644531 -103.441406 21.53125 -102.296875 L 21.359375 -100.234375 C 21.242188 -100.003906 21.1875 -99.800781 21.1875 -99.625 C 21.1875 -99.457031 21.1875 -99.375 21.1875 -99.375 C 21.1875 -99.03125 21.210938 -98.539062 21.265625 -97.90625 C 21.328125 -97.269531 21.414062 -96.664062 21.53125 -96.09375 L 21.703125 -94.03125 C 21.816406 -93.6875 21.875 -93.226562 21.875 -92.65625 C 21.875 -92.65625 21.875 -92.539062 21.875 -92.3125 C 21.875 -92.082031 21.816406 -91.738281 21.703125 -91.28125 C 21.703125 -90.820312 21.671875 -90.300781 21.609375 -89.71875 C 21.554688 -89.144531 21.472656 -88.398438 21.359375 -87.484375 L 21.015625 -84.5625 C 21.015625 -84.21875 20.984375 -83.929688 20.921875 -83.703125 C 20.867188 -83.472656 20.898438 -83.242188 21.015625 -83.015625 C 21.359375 -81.859375 22.332031 -80.59375 23.9375 -79.21875 Z M 23.9375 -79.21875 "/></g></g></g><g fill="#ffffff" fill-opacity="1"><g transform="translate(253.298038, 161.489885)"><g><path d="M 14.296875 4.484375 C 13.148438 2.410156 12.691406 -2.296875 12.921875 -9.640625 C 13.035156 -9.867188 13.117188 -10.757812 13.171875 -12.3125 C 13.234375 -13.863281 13.265625 -15.644531 13.265625 -17.65625 C 13.265625 -19.664062 13.265625 -21.472656 13.265625 -23.078125 C 13.265625 -24.679688 13.265625 -25.65625 13.265625 -26 L 13.78125 -54.078125 L 14.46875 -54.078125 C 14.925781 -54.078125 15.15625 -54.304688 15.15625 -54.765625 L 15.15625 -55.28125 C 15.15625 -55.625 14.925781 -55.796875 14.46875 -55.796875 L 13.78125 -55.796875 C 13.894531 -56.484375 13.953125 -57.226562 13.953125 -58.03125 C 13.953125 -58.84375 13.953125 -59.820312 13.953125 -60.96875 C 14.410156 -60.96875 14.984375 -60.992188 15.671875 -61.046875 C 16.359375 -61.109375 17.160156 -61.140625 18.078125 -61.140625 C 18.648438 -61.140625 18.9375 -61.367188 18.9375 -61.828125 L 18.9375 -62.171875 C 18.9375 -62.628906 18.648438 -62.859375 18.078125 -62.859375 L 13.953125 -62.859375 C 13.953125 -65.503906 13.976562 -67.828125 14.03125 -69.828125 C 14.09375 -71.835938 14.179688 -73.59375 14.296875 -75.09375 C 14.410156 -75.78125 14.523438 -77.242188 14.640625 -79.484375 C 14.753906 -81.722656 14.867188 -83.242188 14.984375 -84.046875 L 14.984375 -99.03125 C 15.210938 -100.289062 15.410156 -101.4375 15.578125 -102.46875 C 15.753906 -103.5 15.785156 -104.472656 15.671875 -105.390625 C 15.328125 -106.316406 14.125 -107.640625 12.0625 -109.359375 C 11.132812 -109.929688 9.523438 -110.273438 7.234375 -110.390625 C 5.515625 -110.390625 4.222656 -110.414062 3.359375 -110.46875 C 2.492188 -110.53125 1.945312 -110.5625 1.71875 -110.5625 C 1.601562 -110.789062 1.515625 -110.988281 1.453125 -111.15625 C 1.398438 -111.332031 1.375 -111.476562 1.375 -111.59375 L 1.203125 -111.765625 L 1.203125 -111.9375 C 0.742188 -112.738281 0.425781 -114.171875 0.25 -116.234375 C 0.0820312 -118.304688 0.113281 -120.40625 0.34375 -122.53125 C 0.570312 -124.65625 0.859375 -126.0625 1.203125 -126.75 C 1.429688 -127.09375 2.035156 -127.4375 3.015625 -127.78125 C 3.992188 -128.125 4.710938 -128.296875 5.171875 -128.296875 L 13.609375 -128.46875 C 14.867188 -128.46875 16.128906 -128.378906 17.390625 -128.203125 C 18.648438 -128.035156 19.914062 -127.835938 21.1875 -127.609375 L 24.28125 -127.78125 C 24.96875 -127.78125 25.566406 -127.804688 26.078125 -127.859375 C 26.597656 -127.921875 27.09375 -127.953125 27.5625 -127.953125 C 30.425781 -127.378906 33.40625 -126.921875 36.5 -126.578125 C 39.601562 -126.234375 42.820312 -126.0625 46.15625 -126.0625 C 46.726562 -125.03125 47.53125 -124.054688 48.5625 -123.140625 C 48.5625 -121.992188 48.585938 -120.957031 48.640625 -120.03125 C 48.703125 -119.113281 48.789062 -118.253906 48.90625 -117.453125 C 49.019531 -116.648438 49.046875 -115.816406 48.984375 -114.953125 C 48.929688 -114.097656 48.789062 -113.207031 48.5625 -112.28125 C 46.84375 -111.25 45.296875 -110.734375 43.921875 -110.734375 C 43.460938 -110.734375 42.710938 -110.90625 41.671875 -111.25 C 41.210938 -111.363281 40.78125 -111.445312 40.375 -111.5 C 39.976562 -111.5625 39.664062 -111.59375 39.4375 -111.59375 C 36.6875 -111.59375 34.675781 -110.734375 33.40625 -109.015625 C 32.945312 -108.785156 32.601562 -108.382812 32.375 -107.8125 C 32.257812 -107.695312 32.085938 -107.523438 31.859375 -107.296875 C 31.628906 -107.066406 31.398438 -106.835938 31.171875 -106.609375 C 31.171875 -105.222656 31.253906 -103.925781 31.421875 -102.71875 C 31.597656 -101.519531 31.800781 -100.40625 32.03125 -99.375 L 32.03125 -64.234375 C 32.03125 -62.972656 32 -60.960938 31.9375 -58.203125 C 31.882812 -55.453125 31.800781 -51.953125 31.6875 -47.703125 L 30.828125 -47.703125 L 30.828125 -47.359375 L 31.6875 -47.359375 L 31.6875 -1.546875 C 31.6875 0.171875 31.515625 2.066406 31.171875 4.140625 C 30.140625 4.710938 28.5625 5.140625 26.4375 5.421875 C 24.3125 5.710938 22.128906 5.769531 19.890625 5.59375 C 17.648438 5.425781 15.785156 5.054688 14.296875 4.484375 Z M 14.296875 4.484375 "/></g></g></g><g fill="#ffffff" fill-opacity="1"><g transform="translate(304.787416, 161.489885)"><g><path d="M 41.5 -8.609375 C 41.5 -7.921875 41.554688 -6.859375 41.671875 -5.421875 C 41.785156 -3.984375 41.554688 -2.863281 40.984375 -2.0625 C 40.523438 -0.6875 38.804688 0 35.828125 0 C 35.359375 -0.34375 34.78125 -0.539062 34.09375 -0.59375 C 33.40625 -0.65625 32.660156 -0.6875 31.859375 -0.6875 C 31.398438 -0.6875 30.65625 -0.65625 29.625 -0.59375 C 28.59375 -0.539062 27.90625 -0.457031 27.5625 -0.34375 C 20.09375 -0.113281 13.257812 -0.113281 7.0625 -0.34375 C 6.03125 -2.175781 5.570312 -5.101562 5.6875 -9.125 C 5.914062 -9.582031 6.085938 -10.125 6.203125 -10.75 C 6.316406 -11.382812 6.316406 -12.164062 6.203125 -13.09375 C 6.085938 -13.894531 6.03125 -14.640625 6.03125 -15.328125 C 6.03125 -16.015625 6.03125 -16.757812 6.03125 -17.5625 L 6.03125 -102.640625 C 6.03125 -103.554688 6.054688 -104.789062 6.109375 -106.34375 C 6.171875 -107.894531 6.203125 -109.703125 6.203125 -111.765625 L 6.375 -120.890625 C 6.257812 -121.472656 6.054688 -122.796875 5.765625 -124.859375 C 5.484375 -126.921875 5.570312 -128.414062 6.03125 -129.34375 L 7.578125 -130.890625 C 8.148438 -130.890625 8.75 -130.859375 9.375 -130.796875 C 10.007812 -130.742188 10.671875 -130.71875 11.359375 -130.71875 C 12.171875 -130.71875 12.976562 -130.71875 13.78125 -130.71875 C 14.582031 -130.71875 15.382812 -130.773438 16.1875 -130.890625 L 25.484375 -130.890625 C 26.054688 -130.773438 26.628906 -130.71875 27.203125 -130.71875 C 27.785156 -130.71875 28.421875 -130.660156 29.109375 -130.546875 L 32.546875 -130.203125 C 33.921875 -130.429688 35.15625 -130.601562 36.25 -130.71875 C 37.34375 -130.832031 38.289062 -130.890625 39.09375 -130.890625 C 40.46875 -129.046875 41.097656 -126.691406 40.984375 -123.828125 C 41.328125 -123.367188 41.5 -122.332031 41.5 -120.71875 C 41.5 -119.34375 41.328125 -118.367188 40.984375 -117.796875 C 40.410156 -115.847656 39.035156 -114.757812 36.859375 -114.53125 C 36.515625 -114.875 35.878906 -115.21875 34.953125 -115.5625 L 33.578125 -113.5 L 33.40625 -114.875 L 33.921875 -115.734375 L 32.03125 -115.734375 C 31.6875 -115.734375 30.820312 -115.675781 29.4375 -115.5625 C 28.0625 -115.445312 26.226562 -115.273438 23.9375 -115.046875 C 23.476562 -114.585938 23.046875 -113.984375 22.640625 -113.234375 C 22.242188 -112.484375 21.757812 -111.59375 21.1875 -110.5625 C 21.1875 -110.101562 21.15625 -109.5 21.09375 -108.75 C 21.039062 -108.007812 21.070312 -107.179688 21.1875 -106.265625 C 21.300781 -105.222656 21.359375 -104.359375 21.359375 -103.671875 C 21.359375 -102.984375 21.359375 -102.410156 21.359375 -101.953125 C 21.359375 -100.804688 21.328125 -99.484375 21.265625 -97.984375 C 21.210938 -96.492188 21.1875 -94.945312 21.1875 -93.34375 L 21.1875 -88.859375 C 21.1875 -88.054688 21.1875 -87.335938 21.1875 -86.703125 C 21.1875 -86.078125 21.242188 -85.421875 21.359375 -84.734375 L 22.390625 -84.90625 L 21.359375 -84.046875 C 21.472656 -82.773438 21.613281 -81.625 21.78125 -80.59375 C 21.957031 -79.5625 22.101562 -78.703125 22.21875 -78.015625 C 22.90625 -77.328125 23.734375 -76.722656 24.703125 -76.203125 C 25.679688 -75.691406 26.863281 -75.320312 28.25 -75.09375 L 28.421875 -75.953125 L 29.453125 -75.78125 L 29.453125 -75.09375 C 29.910156 -75.09375 30.453125 -75.117188 31.078125 -75.171875 C 31.710938 -75.234375 32.429688 -75.320312 33.234375 -75.4375 C 34.148438 -75.550781 34.925781 -75.609375 35.5625 -75.609375 C 36.195312 -75.609375 36.742188 -75.609375 37.203125 -75.609375 L 39.09375 -75.609375 C 39.78125 -72.960938 40.148438 -70.71875 40.203125 -68.875 C 40.265625 -67.039062 39.953125 -64.804688 39.265625 -62.171875 C 37.316406 -61.023438 35.363281 -60.453125 33.40625 -60.453125 C 32.488281 -60.453125 31.539062 -60.453125 30.5625 -60.453125 C 29.59375 -60.453125 28.53125 -60.507812 27.375 -60.625 L 27.203125 -59.25 L 26 -59.421875 L 26.34375 -60.796875 C 26.226562 -60.796875 26.023438 -60.765625 25.734375 -60.703125 C 25.453125 -60.648438 25.195312 -60.679688 24.96875 -60.796875 C 24.625 -60.910156 24.164062 -60.96875 23.59375 -60.96875 C 23.476562 -60.851562 23.390625 -60.765625 23.328125 -60.703125 C 23.273438 -60.648438 23.132812 -60.507812 22.90625 -60.28125 L 21.875 -59.25 C 21.53125 -58.664062 21.242188 -57.972656 21.015625 -57.171875 C 20.785156 -56.367188 20.726562 -55.394531 20.84375 -54.25 C 20.84375 -53.789062 20.84375 -53.300781 20.84375 -52.78125 C 20.84375 -52.269531 20.898438 -51.726562 21.015625 -51.15625 C 21.128906 -47.820312 21.128906 -43.972656 21.015625 -39.609375 C 20.898438 -35.242188 20.957031 -30.851562 21.1875 -26.4375 C 21.414062 -22.019531 21.875 -17.972656 22.5625 -14.296875 C 24.851562 -12.566406 27.4375 -11.820312 30.3125 -12.0625 L 39.265625 -12.75 C 39.492188 -12.632812 39.664062 -12.488281 39.78125 -12.3125 C 39.894531 -12.144531 40.007812 -11.941406 40.125 -11.703125 C 40.351562 -11.472656 40.582031 -11.210938 40.8125 -10.921875 C 41.039062 -10.640625 41.269531 -10.328125 41.5 -9.984375 Z M 24.453125 -114.015625 L 24.109375 -114.015625 L 24.109375 -114.875 L 24.625 -114.1875 Z M 28.421875 -76.296875 L 29.109375 -77.328125 L 29.625 -77.328125 L 30.65625 -76.8125 L 30.484375 -76.46875 L 29.453125 -76.125 Z M 34.609375 -75.609375 L 34.09375 -75.609375 L 34.265625 -76.8125 L 34.609375 -76.8125 Z M 34.609375 -75.609375 "/></g></g></g><g fill="#ffffff" fill-opacity="1"><g transform="translate(353.004913, 161.489885)"><g><path d="M 50.984375 -20.84375 C 51.328125 -19.570312 51.554688 -18.019531 51.671875 -16.1875 C 51.785156 -14.351562 51.320312 -12.921875 50.28125 -11.890625 C 49.363281 -10.960938 47.929688 -10.671875 45.984375 -11.015625 C 43.796875 -11.359375 41.84375 -11.359375 40.125 -11.015625 C 40.007812 -10.898438 39.863281 -10.84375 39.6875 -10.84375 C 39.519531 -10.84375 39.320312 -10.785156 39.09375 -10.671875 C 38.632812 -10.554688 37.945312 -10.269531 37.03125 -9.8125 C 36.113281 -9.351562 35.25 -9.125 34.4375 -9.125 C 32.945312 -10.5 31.742188 -12.851562 30.828125 -16.1875 L 30.65625 -24.625 L 30.140625 -28.9375 L 30.484375 -28.9375 L 30.828125 -29.453125 L 30.828125 -30.140625 L 30.484375 -30.484375 L 30.140625 -29.96875 L 30.140625 -28.9375 C 29.910156 -31 29.96875 -32.488281 30.3125 -33.40625 C 30.65625 -34.675781 30.828125 -36.914062 30.828125 -40.125 L 30.828125 -40.46875 C 30.710938 -41.5 30.625 -42.242188 30.5625 -42.703125 C 30.507812 -43.171875 30.484375 -43.460938 30.484375 -43.578125 L 30.484375 -49.25 C 30.597656 -50.050781 30.65625 -50.679688 30.65625 -51.140625 C 30.65625 -51.609375 30.65625 -51.898438 30.65625 -52.015625 C 30.3125 -53.160156 29.738281 -54.132812 28.9375 -54.9375 L 28.9375 -55.109375 L 28.765625 -55.109375 C 28.078125 -55.796875 26.925781 -56.140625 25.3125 -56.140625 L 24.109375 -56.140625 C 22.734375 -54.992188 22.046875 -53.734375 22.046875 -52.359375 L 22.390625 -51.328125 C 22.503906 -50.742188 22.675781 -49.789062 22.90625 -48.46875 C 23.132812 -47.15625 23.191406 -45.984375 23.078125 -44.953125 C 22.847656 -44.953125 22.734375 -44.78125 22.734375 -44.4375 L 22.734375 -43.578125 L 23.078125 -43.40625 L 22.5625 -36.34375 C 23.019531 -34.613281 23.25 -32.375 23.25 -29.625 C 23.132812 -28.25 23.046875 -26.957031 22.984375 -25.75 C 22.929688 -24.539062 22.789062 -23.476562 22.5625 -22.5625 C 22.21875 -20.613281 22.5625 -18.429688 23.59375 -16.015625 C 23.820312 -15.441406 23.992188 -14.894531 24.109375 -14.375 C 24.222656 -13.863281 24.28125 -13.4375 24.28125 -13.09375 C 24.28125 -11.019531 23.414062 -9.664062 21.6875 -9.03125 C 19.96875 -8.40625 18.046875 -8.207031 15.921875 -8.4375 C 13.804688 -8.664062 12.171875 -8.894531 11.015625 -9.125 L 8.953125 -9.125 C 8.492188 -9.125 7.976562 -9.148438 7.40625 -9.203125 C 6.832031 -9.265625 6.085938 -9.296875 5.171875 -9.296875 C 4.941406 -9.640625 4.625 -10.097656 4.21875 -10.671875 C 3.8125 -11.242188 3.320312 -11.9375 2.75 -12.75 C 2.519531 -13.09375 2.40625 -13.78125 2.40625 -14.8125 C 2.40625 -15.726562 2.460938 -16.644531 2.578125 -17.5625 C 2.691406 -18.476562 2.921875 -19.398438 3.265625 -20.328125 L 3.265625 -23.59375 C 3.378906 -24.28125 3.460938 -25.140625 3.515625 -26.171875 C 3.578125 -27.210938 3.609375 -28.363281 3.609375 -29.625 L 3.609375 -36.515625 C 3.722656 -37.429688 3.78125 -38.144531 3.78125 -38.65625 C 3.78125 -39.175781 3.78125 -39.609375 3.78125 -39.953125 L 3.96875 -92.484375 C 4.082031 -92.828125 4.164062 -93.140625 4.21875 -93.421875 C 4.28125 -93.710938 4.253906 -94.03125 4.140625 -94.375 L 3.96875 -97.46875 C 4.769531 -97.46875 5.171875 -97.816406 5.171875 -98.515625 C 5.171875 -98.972656 4.707031 -99.429688 3.78125 -99.890625 L 3.78125 -101.78125 C 3.90625 -102.925781 3.96875 -103.929688 3.96875 -104.796875 C 3.96875 -105.660156 3.96875 -106.492188 3.96875 -107.296875 L 3.609375 -110.734375 C 3.378906 -113.492188 2.863281 -117.34375 2.0625 -122.28125 C 1.71875 -123.425781 1.601562 -124.859375 1.71875 -126.578125 C 1.71875 -128.304688 2.117188 -129.34375 2.921875 -129.6875 C 3.492188 -129.800781 4.210938 -129.941406 5.078125 -130.109375 C 5.941406 -130.285156 6.832031 -130.601562 7.75 -131.0625 C 13.71875 -131.0625 18.253906 -130.71875 21.359375 -130.03125 C 22.046875 -129.800781 23.019531 -129.800781 24.28125 -130.03125 L 26 -130.203125 C 26.34375 -130.316406 26.6875 -130.375 27.03125 -130.375 L 28.9375 -130.375 C 29.050781 -130.488281 29.222656 -130.546875 29.453125 -130.546875 L 29.96875 -130.546875 C 31.113281 -130.203125 32.289062 -129.972656 33.5 -129.859375 C 34.707031 -129.742188 35.882812 -129.570312 37.03125 -129.34375 L 39.09375 -129.171875 C 39.320312 -129.171875 39.894531 -128.878906 40.8125 -128.296875 C 41.726562 -127.722656 42.734375 -127.003906 43.828125 -126.140625 C 44.921875 -125.285156 45.867188 -124.515625 46.671875 -123.828125 C 46.785156 -123.710938 46.867188 -123.507812 46.921875 -123.21875 C 46.984375 -122.9375 47.070312 -122.566406 47.1875 -122.109375 C 47.414062 -121.296875 47.671875 -120.171875 47.953125 -118.734375 C 48.242188 -117.304688 48.332031 -115.617188 48.21875 -113.671875 C 48.101562 -113.429688 48.046875 -113.082031 48.046875 -112.625 L 48.046875 -111.765625 C 48.390625 -110.273438 48.5625 -108.726562 48.5625 -107.125 C 48.5625 -106.4375 48.5625 -105.660156 48.5625 -104.796875 C 48.5625 -103.929688 48.445312 -102.867188 48.21875 -101.609375 C 48.101562 -100.460938 48.015625 -99.425781 47.953125 -98.5 C 47.898438 -97.582031 47.875 -96.835938 47.875 -96.265625 L 47.875 -89.03125 C 47.988281 -88.226562 48.070312 -87.507812 48.125 -86.875 C 48.1875 -86.25 48.21875 -85.648438 48.21875 -85.078125 C 48.21875 -84.273438 48.101562 -83.53125 47.875 -82.84375 L 47.875 -80.078125 C 47.875 -79.273438 47.816406 -78.382812 47.703125 -77.40625 C 47.585938 -76.4375 47.359375 -75.375 47.015625 -74.21875 L 44.4375 -71.8125 C 43.632812 -71.007812 43.375 -69.976562 43.65625 -68.71875 C 43.945312 -67.457031 45.007812 -66.25 46.84375 -65.09375 C 47.53125 -64.863281 48.1875 -64.601562 48.8125 -64.3125 C 49.445312 -64.03125 50.109375 -63.601562 50.796875 -63.03125 L 50.796875 -61.3125 C 50.453125 -60.96875 50.191406 -60.132812 50.015625 -58.8125 C 49.847656 -57.488281 49.789062 -56.140625 49.84375 -54.765625 C 49.90625 -53.390625 50.050781 -52.359375 50.28125 -51.671875 L 51.328125 -47.875 L 51.328125 -47.53125 L 50.28125 -47.53125 L 49.765625 -47.015625 L 49.9375 -47.015625 L 49.9375 -46.15625 L 50.453125 -46.5 L 50.984375 -45.125 L 51.15625 -45.296875 C 51.039062 -44.492188 50.921875 -43.429688 50.796875 -42.109375 C 50.679688 -40.785156 50.566406 -39.207031 50.453125 -37.375 C 50.453125 -36.800781 50.453125 -36.140625 50.453125 -35.390625 C 50.453125 -34.640625 50.507812 -33.804688 50.625 -32.890625 C 50.863281 -31.972656 50.984375 -31.171875 50.984375 -30.484375 C 50.984375 -29.796875 50.984375 -29.222656 50.984375 -28.765625 Z M 23.9375 -79.21875 C 25.882812 -79.21875 27.257812 -80.132812 28.0625 -81.96875 C 28.875 -83.8125 28.878906 -86.164062 28.078125 -89.03125 L 28.078125 -92.140625 C 27.960938 -92.710938 27.90625 -93.253906 27.90625 -93.765625 C 27.90625 -94.285156 27.90625 -94.832031 27.90625 -95.40625 C 28.019531 -95.632812 28.078125 -95.921875 28.078125 -96.265625 C 28.078125 -96.609375 28.078125 -96.894531 28.078125 -97.125 L 28.078125 -100.0625 C 28.078125 -100.519531 28.019531 -100.921875 27.90625 -101.265625 C 28.019531 -101.609375 28.078125 -101.976562 28.078125 -102.375 C 28.078125 -102.78125 28.132812 -103.269531 28.25 -103.84375 C 28.363281 -104.757812 28.476562 -106.109375 28.59375 -107.890625 C 28.707031 -109.671875 28.300781 -111.132812 27.375 -112.28125 C 26.570312 -113.664062 25.195312 -114.242188 23.25 -114.015625 L 22.90625 -114.015625 C 22.445312 -113.546875 21.957031 -112.910156 21.4375 -112.109375 C 20.925781 -111.304688 20.671875 -110.5625 20.671875 -109.875 L 21.53125 -105.046875 C 21.644531 -104.359375 21.644531 -103.441406 21.53125 -102.296875 L 21.359375 -100.234375 C 21.242188 -100.003906 21.1875 -99.800781 21.1875 -99.625 C 21.1875 -99.457031 21.1875 -99.375 21.1875 -99.375 C 21.1875 -99.03125 21.210938 -98.539062 21.265625 -97.90625 C 21.328125 -97.269531 21.414062 -96.664062 21.53125 -96.09375 L 21.703125 -94.03125 C 21.816406 -93.6875 21.875 -93.226562 21.875 -92.65625 C 21.875 -92.65625 21.875 -92.539062 21.875 -92.3125 C 21.875 -92.082031 21.816406 -91.738281 21.703125 -91.28125 C 21.703125 -90.820312 21.671875 -90.300781 21.609375 -89.71875 C 21.554688 -89.144531 21.472656 -88.398438 21.359375 -87.484375 L 21.015625 -84.5625 C 21.015625 -84.21875 20.984375 -83.929688 20.921875 -83.703125 C 20.867188 -83.472656 20.898438 -83.242188 21.015625 -83.015625 C 21.359375 -81.859375 22.332031 -80.59375 23.9375 -79.21875 Z M 23.9375 -79.21875 "/></g></g></g><g fill="#ffffff" fill-opacity="1"><g transform="translate(407.249573, 161.489885)"><g><path d="M 9.640625 -1.203125 C 5.859375 -1.203125 3.96875 -3.328125 3.96875 -7.578125 L 3.96875 -9.8125 C 3.96875 -10.039062 3.992188 -10.296875 4.046875 -10.578125 C 4.109375 -10.867188 4.140625 -11.128906 4.140625 -11.359375 C 4.140625 -12.171875 4.082031 -12.691406 3.96875 -12.921875 C 3.726562 -14.410156 3.785156 -15.5 4.140625 -16.1875 C 4.710938 -18.601562 4.710938 -21.015625 4.140625 -23.421875 L 4.140625 -30.65625 C 4.140625 -31 4.140625 -31.457031 4.140625 -32.03125 C 4.140625 -32.601562 4.082031 -33.175781 3.96875 -33.75 L 3.78125 -35.484375 L 3.78125 -39.953125 C 3.664062 -40.066406 3.609375 -40.066406 3.609375 -39.953125 L 3.609375 -42.359375 L 5 -42.53125 L 5 -43.0625 L 3.609375 -42.875 L 3.609375 -45.125 C 3.492188 -46.382812 3.347656 -47.90625 3.171875 -49.6875 C 3.003906 -51.46875 2.921875 -53.617188 2.921875 -56.140625 L 2.921875 -57.34375 L 3.265625 -57.34375 L 3.265625 -57.6875 L 2.921875 -57.6875 L 2.921875 -61.484375 C 2.804688 -61.828125 2.75 -62.3125 2.75 -62.9375 C 2.75 -63.570312 2.75 -64.289062 2.75 -65.09375 L 2.75 -71.640625 C 2.632812 -71.984375 2.546875 -73.5625 2.484375 -76.375 C 2.429688 -79.1875 2.375 -82.628906 2.3125 -86.703125 C 2.257812 -90.785156 2.234375 -95.007812 2.234375 -99.375 C 2.234375 -103.738281 2.234375 -107.640625 2.234375 -111.078125 C 2.234375 -114.523438 2.234375 -116.9375 2.234375 -118.3125 C 2.234375 -119.457031 2.0625 -120.609375 1.71875 -121.765625 C 1.375 -123.253906 1.601562 -124.457031 2.40625 -125.375 C 3.207031 -126.289062 4.359375 -126.578125 5.859375 -126.234375 C 6.546875 -126.117188 7.289062 -126.03125 8.09375 -125.96875 C 8.894531 -125.914062 9.867188 -125.945312 11.015625 -126.0625 C 13.429688 -126.175781 15.875 -126.347656 18.34375 -126.578125 C 20.8125 -126.804688 23.304688 -127.035156 25.828125 -127.265625 C 26.859375 -127.265625 28.238281 -127.4375 29.96875 -127.78125 C 35.132812 -127.894531 39.09375 -126.40625 41.84375 -123.3125 C 42.070312 -122.625 42.476562 -121.929688 43.0625 -121.234375 C 43.863281 -120.203125 44.519531 -119.34375 45.03125 -118.65625 C 45.550781 -117.96875 45.867188 -117.335938 45.984375 -116.765625 L 46.671875 -109.53125 L 46.671875 -106.265625 C 46.898438 -105.109375 47.039062 -104.070312 47.09375 -103.15625 C 47.15625 -102.238281 47.070312 -101.492188 46.84375 -100.921875 C 46.5 -99.085938 46.5 -97.191406 46.84375 -95.234375 L 46.84375 -94.375 C 46.726562 -94.03125 46.671875 -93.6875 46.671875 -93.34375 L 46.671875 -83.359375 C 46.785156 -83.015625 46.84375 -82.609375 46.84375 -82.140625 L 46.84375 -81.109375 C 46.726562 -80.078125 46.726562 -79.332031 46.84375 -78.875 C 47.1875 -77.382812 47.359375 -75.953125 47.359375 -74.578125 C 47.359375 -72.734375 47.128906 -71.125 46.671875 -69.75 L 46.671875 -67.34375 C 46.671875 -66.882812 46.671875 -66.304688 46.671875 -65.609375 C 46.671875 -64.921875 46.613281 -64.117188 46.5 -63.203125 L 46.5 -61.140625 C 46.5 -60.679688 46.382812 -59.988281 46.15625 -59.0625 C 45.925781 -58.144531 45.640625 -57.054688 45.296875 -55.796875 C 43.453125 -53.046875 42.070312 -51.441406 41.15625 -50.984375 L 40.296875 -50.796875 L 38.921875 -50.28125 C 38.578125 -49.9375 38.085938 -49.535156 37.453125 -49.078125 C 36.828125 -48.617188 36.050781 -48.101562 35.125 -47.53125 C 34.207031 -47.53125 33.347656 -47.53125 32.546875 -47.53125 C 31.742188 -47.53125 31.054688 -47.414062 30.484375 -47.1875 C 29.566406 -47.1875 28.992188 -47.242188 28.765625 -47.359375 L 27.734375 -47.359375 L 22.21875 -46.671875 C 21.757812 -46.210938 21.53125 -45.925781 21.53125 -45.8125 C 21.757812 -44.4375 21.929688 -42.914062 22.046875 -41.25 C 22.160156 -39.582031 22.273438 -37.773438 22.390625 -35.828125 L 21.875 -33.0625 C 21.988281 -32.375 22.046875 -31.425781 22.046875 -30.21875 C 22.046875 -29.019531 22.046875 -27.613281 22.046875 -26 C 22.160156 -25.769531 22.1875 -25.453125 22.125 -25.046875 C 22.070312 -24.648438 21.988281 -24.222656 21.875 -23.765625 C 21.757812 -23.191406 22.046875 -21.066406 22.734375 -17.390625 C 22.960938 -16.585938 22.90625 -15.210938 22.5625 -13.265625 C 22.332031 -12.460938 22.675781 -11.023438 23.59375 -8.953125 L 23.765625 -8.265625 C 23.878906 -7.921875 23.9375 -7.40625 23.9375 -6.71875 C 23.9375 -6.144531 23.878906 -5.628906 23.765625 -5.171875 C 23.078125 -3.328125 22.300781 -2.234375 21.4375 -1.890625 C 20.582031 -1.546875 19.347656 -1.375 17.734375 -1.375 C 16.703125 -1.601562 15.785156 -1.742188 14.984375 -1.796875 C 14.179688 -1.859375 13.492188 -1.832031 12.921875 -1.71875 C 11.765625 -1.375 10.671875 -1.203125 9.640625 -1.203125 Z M 25.828125 -62.859375 C 26.171875 -63.316406 26.457031 -63.628906 26.6875 -63.796875 C 26.914062 -63.972656 27.03125 -64.0625 27.03125 -64.0625 C 27.726562 -64.976562 28.21875 -65.925781 28.5 -66.90625 C 28.789062 -67.882812 28.9375 -68.832031 28.9375 -69.75 C 28.9375 -69.976562 28.90625 -70.234375 28.84375 -70.515625 C 28.789062 -70.804688 28.765625 -71.066406 28.765625 -71.296875 C 28.304688 -72.328125 28.078125 -73.363281 28.078125 -74.40625 L 28.078125 -75.265625 C 28.078125 -78.585938 28.273438 -81.914062 28.671875 -85.25 C 29.078125 -88.582031 29.28125 -91.851562 29.28125 -95.0625 C 29.28125 -95.289062 29.222656 -95.632812 29.109375 -96.09375 C 28.992188 -96.550781 28.820312 -97.007812 28.59375 -97.46875 C 28.019531 -98.851562 27.847656 -99.832031 28.078125 -100.40625 C 28.191406 -100.863281 28.273438 -101.320312 28.328125 -101.78125 C 28.390625 -102.238281 28.421875 -102.695312 28.421875 -103.15625 C 28.421875 -103.613281 28.390625 -104.128906 28.328125 -104.703125 C 28.273438 -105.273438 28.25 -105.910156 28.25 -106.609375 C 27.90625 -109.703125 27.613281 -111.421875 27.375 -111.765625 C 26.570312 -112.566406 25.484375 -113.023438 24.109375 -113.140625 C 23.992188 -113.140625 23.820312 -113.109375 23.59375 -113.046875 C 23.363281 -112.992188 23.078125 -112.96875 22.734375 -112.96875 L 21.1875 -111.25 C 21.070312 -109.757812 21.015625 -108.238281 21.015625 -106.6875 C 21.015625 -105.132812 21.015625 -103.554688 21.015625 -101.953125 L 21.1875 -68.546875 C 20.957031 -66.585938 21.703125 -65.09375 23.421875 -64.0625 C 24.796875 -63.257812 25.597656 -62.859375 25.828125 -62.859375 Z M 25.828125 -62.859375 "/></g></g></g><g fill="#ffffff" fill-opacity="1"><g transform="translate(457.361345, 161.489885)"><g><path d="M 2.921875 -0.6875 C 2.921875 -5.394531 2.945312 -11.222656 3 -18.171875 C 3.0625 -25.117188 3.148438 -33.296875 3.265625 -42.703125 C 3.378906 -47.410156 3.460938 -51.800781 3.515625 -55.875 C 3.578125 -59.957031 3.609375 -63.78125 3.609375 -67.34375 L 3.609375 -84.734375 C 3.609375 -87.140625 3.609375 -89.601562 3.609375 -92.125 C 3.609375 -94.65625 3.492188 -97.1875 3.265625 -99.71875 C 3.148438 -102.125 3.117188 -104.53125 3.171875 -106.9375 C 3.234375 -109.351562 3.378906 -111.65625 3.609375 -113.84375 C 4.191406 -116.820312 4.191406 -119.75 3.609375 -122.625 C 3.492188 -123.539062 3.40625 -124.34375 3.34375 -125.03125 C 3.289062 -125.71875 3.265625 -126.289062 3.265625 -126.75 C 3.265625 -127.550781 3.289062 -128.269531 3.34375 -128.90625 C 3.40625 -129.539062 3.492188 -130.144531 3.609375 -130.71875 L 5 -131.234375 C 5.914062 -131.921875 7.691406 -132.265625 10.328125 -132.265625 C 15.492188 -132.265625 18.941406 -131.921875 20.671875 -131.234375 C 21.242188 -130.203125 21.53125 -128.648438 21.53125 -126.578125 C 21.53125 -126.117188 21.5 -125.546875 21.4375 -124.859375 C 21.382812 -124.171875 21.300781 -123.367188 21.1875 -122.453125 C 20.5 -119.003906 20.5 -115.726562 21.1875 -112.625 C 21.414062 -111.132812 21.613281 -109.410156 21.78125 -107.453125 C 21.957031 -105.503906 22.046875 -103.269531 22.046875 -100.75 C 22.046875 -98.445312 21.957031 -96.347656 21.78125 -94.453125 C 21.613281 -92.566406 21.414062 -90.816406 21.1875 -89.203125 L 21.1875 -69.75 C 21.1875 -63.320312 21.015625 -56.71875 20.671875 -49.9375 C 20.554688 -46.5 20.613281 -43.226562 20.84375 -40.125 C 21.070312 -37.03125 21.472656 -34.101562 22.046875 -31.34375 C 22.160156 -30.65625 22.242188 -29.851562 22.296875 -28.9375 C 22.359375 -28.019531 22.332031 -26.925781 22.21875 -25.65625 C 22.101562 -24.507812 22.015625 -23.503906 21.953125 -22.640625 C 21.898438 -21.785156 21.757812 -21.070312 21.53125 -20.5 C 20.84375 -17.394531 20.785156 -14.175781 21.359375 -10.84375 C 21.472656 -10.269531 21.554688 -9.695312 21.609375 -9.125 C 21.671875 -8.550781 21.703125 -7.976562 21.703125 -7.40625 C 21.703125 -5.570312 21.359375 -3.960938 20.671875 -2.578125 C 19.859375 -2.460938 19.019531 -2.289062 18.15625 -2.0625 C 17.300781 -1.832031 16.300781 -1.546875 15.15625 -1.203125 C 13.320312 -0.515625 11.914062 -0.03125 10.9375 0.25 C 9.957031 0.539062 8.953125 0.628906 7.921875 0.515625 C 6.890625 0.398438 5.222656 0 2.921875 -0.6875 Z M 2.921875 -0.6875 "/></g></g></g><g fill="#ffffff" fill-opacity="1"><g transform="translate(482.158908, 161.489885)"><g><path d="M 9.640625 -1.203125 C 5.859375 -1.203125 3.96875 -3.328125 3.96875 -7.578125 L 3.96875 -9.8125 C 3.96875 -10.039062 3.992188 -10.296875 4.046875 -10.578125 C 4.109375 -10.867188 4.140625 -11.128906 4.140625 -11.359375 C 4.140625 -12.171875 4.082031 -12.691406 3.96875 -12.921875 C 3.726562 -14.410156 3.785156 -15.5 4.140625 -16.1875 C 4.710938 -18.601562 4.710938 -21.015625 4.140625 -23.421875 L 4.140625 -30.65625 C 4.140625 -31 4.140625 -31.457031 4.140625 -32.03125 C 4.140625 -32.601562 4.082031 -33.175781 3.96875 -33.75 L 3.78125 -35.484375 L 3.78125 -39.953125 C 3.664062 -40.066406 3.609375 -40.066406 3.609375 -39.953125 L 3.609375 -42.359375 L 5 -42.53125 L 5 -43.0625 L 3.609375 -42.875 L 3.609375 -45.125 C 3.492188 -46.382812 3.347656 -47.90625 3.171875 -49.6875 C 3.003906 -51.46875 2.921875 -53.617188 2.921875 -56.140625 L 2.921875 -57.34375 L 3.265625 -57.34375 L 3.265625 -57.6875 L 2.921875 -57.6875 L 2.921875 -61.484375 C 2.804688 -61.828125 2.75 -62.3125 2.75 -62.9375 C 2.75 -63.570312 2.75 -64.289062 2.75 -65.09375 L 2.75 -71.640625 C 2.632812 -71.984375 2.546875 -73.5625 2.484375 -76.375 C 2.429688 -79.1875 2.375 -82.628906 2.3125 -86.703125 C 2.257812 -90.785156 2.234375 -95.007812 2.234375 -99.375 C 2.234375 -103.738281 2.234375 -107.640625 2.234375 -111.078125 C 2.234375 -114.523438 2.234375 -116.9375 2.234375 -118.3125 C 2.234375 -119.457031 2.0625 -120.609375 1.71875 -121.765625 C 1.375 -123.253906 1.601562 -124.457031 2.40625 -125.375 C 3.207031 -126.289062 4.359375 -126.578125 5.859375 -126.234375 C 6.546875 -126.117188 7.289062 -126.03125 8.09375 -125.96875 C 8.894531 -125.914062 9.867188 -125.945312 11.015625 -126.0625 C 13.429688 -126.175781 15.875 -126.347656 18.34375 -126.578125 C 20.8125 -126.804688 23.304688 -127.035156 25.828125 -127.265625 C 26.859375 -127.265625 28.238281 -127.4375 29.96875 -127.78125 C 35.132812 -127.894531 39.09375 -126.40625 41.84375 -123.3125 C 42.070312 -122.625 42.476562 -121.929688 43.0625 -121.234375 C 43.863281 -120.203125 44.519531 -119.34375 45.03125 -118.65625 C 45.550781 -117.96875 45.867188 -117.335938 45.984375 -116.765625 L 46.671875 -109.53125 L 46.671875 -106.265625 C 46.898438 -105.109375 47.039062 -104.070312 47.09375 -103.15625 C 47.15625 -102.238281 47.070312 -101.492188 46.84375 -100.921875 C 46.5 -99.085938 46.5 -97.191406 46.84375 -95.234375 L 46.84375 -94.375 C 46.726562 -94.03125 46.671875 -93.6875 46.671875 -93.34375 L 46.671875 -83.359375 C 46.785156 -83.015625 46.84375 -82.609375 46.84375 -82.140625 L 46.84375 -81.109375 C 46.726562 -80.078125 46.726562 -79.332031 46.84375 -78.875 C 47.1875 -77.382812 47.359375 -75.953125 47.359375 -74.578125 C 47.359375 -72.734375 47.128906 -71.125 46.671875 -69.75 L 46.671875 -67.34375 C 46.671875 -66.882812 46.671875 -66.304688 46.671875 -65.609375 C 46.671875 -64.921875 46.613281 -64.117188 46.5 -63.203125 L 46.5 -61.140625 C 46.5 -60.679688 46.382812 -59.988281 46.15625 -59.0625 C 45.925781 -58.144531 45.640625 -57.054688 45.296875 -55.796875 C 43.453125 -53.046875 42.070312 -51.441406 41.15625 -50.984375 L 40.296875 -50.796875 L 38.921875 -50.28125 C 38.578125 -49.9375 38.085938 -49.535156 37.453125 -49.078125 C 36.828125 -48.617188 36.050781 -48.101562 35.125 -47.53125 C 34.207031 -47.53125 33.347656 -47.53125 32.546875 -47.53125 C 31.742188 -47.53125 31.054688 -47.414062 30.484375 -47.1875 C 29.566406 -47.1875 28.992188 -47.242188 28.765625 -47.359375 L 27.734375 -47.359375 L 22.21875 -46.671875 C 21.757812 -46.210938 21.53125 -45.925781 21.53125 -45.8125 C 21.757812 -44.4375 21.929688 -42.914062 22.046875 -41.25 C 22.160156 -39.582031 22.273438 -37.773438 22.390625 -35.828125 L 21.875 -33.0625 C 21.988281 -32.375 22.046875 -31.425781 22.046875 -30.21875 C 22.046875 -29.019531 22.046875 -27.613281 22.046875 -26 C 22.160156 -25.769531 22.1875 -25.453125 22.125 -25.046875 C 22.070312 -24.648438 21.988281 -24.222656 21.875 -23.765625 C 21.757812 -23.191406 22.046875 -21.066406 22.734375 -17.390625 C 22.960938 -16.585938 22.90625 -15.210938 22.5625 -13.265625 C 22.332031 -12.460938 22.675781 -11.023438 23.59375 -8.953125 L 23.765625 -8.265625 C 23.878906 -7.921875 23.9375 -7.40625 23.9375 -6.71875 C 23.9375 -6.144531 23.878906 -5.628906 23.765625 -5.171875 C 23.078125 -3.328125 22.300781 -2.234375 21.4375 -1.890625 C 20.582031 -1.546875 19.347656 -1.375 17.734375 -1.375 C 16.703125 -1.601562 15.785156 -1.742188 14.984375 -1.796875 C 14.179688 -1.859375 13.492188 -1.832031 12.921875 -1.71875 C 11.765625 -1.375 10.671875 -1.203125 9.640625 -1.203125 Z M 25.828125 -62.859375 C 26.171875 -63.316406 26.457031 -63.628906 26.6875 -63.796875 C 26.914062 -63.972656 27.03125 -64.0625 27.03125 -64.0625 C 27.726562 -64.976562 28.21875 -65.925781 28.5 -66.90625 C 28.789062 -67.882812 28.9375 -68.832031 28.9375 -69.75 C 28.9375 -69.976562 28.90625 -70.234375 28.84375 -70.515625 C 28.789062 -70.804688 28.765625 -71.066406 28.765625 -71.296875 C 28.304688 -72.328125 28.078125 -73.363281 28.078125 -74.40625 L 28.078125 -75.265625 C 28.078125 -78.585938 28.273438 -81.914062 28.671875 -85.25 C 29.078125 -88.582031 29.28125 -91.851562 29.28125 -95.0625 C 29.28125 -95.289062 29.222656 -95.632812 29.109375 -96.09375 C 28.992188 -96.550781 28.820312 -97.007812 28.59375 -97.46875 C 28.019531 -98.851562 27.847656 -99.832031 28.078125 -100.40625 C 28.191406 -100.863281 28.273438 -101.320312 28.328125 -101.78125 C 28.390625 -102.238281 28.421875 -102.695312 28.421875 -103.15625 C 28.421875 -103.613281 28.390625 -104.128906 28.328125 -104.703125 C 28.273438 -105.273438 28.25 -105.910156 28.25 -106.609375 C 27.90625 -109.703125 27.613281 -111.421875 27.375 -111.765625 C 26.570312 -112.566406 25.484375 -113.023438 24.109375 -113.140625 C 23.992188 -113.140625 23.820312 -113.109375 23.59375 -113.046875 C 23.363281 -112.992188 23.078125 -112.96875 22.734375 -112.96875 L 21.1875 -111.25 C 21.070312 -109.757812 21.015625 -108.238281 21.015625 -106.6875 C 21.015625 -105.132812 21.015625 -103.554688 21.015625 -101.953125 L 21.1875 -68.546875 C 20.957031 -66.585938 21.703125 -65.09375 23.421875 -64.0625 C 24.796875 -63.257812 25.597656 -62.859375 25.828125 -62.859375 Z M 25.828125 -62.859375 "/></g></g></g><g fill="#ffffff" fill-opacity="1"><g transform="translate(532.270634, 161.489885)"><g><path d="M 41.5 -8.609375 C 41.5 -7.921875 41.554688 -6.859375 41.671875 -5.421875 C 41.785156 -3.984375 41.554688 -2.863281 40.984375 -2.0625 C 40.523438 -0.6875 38.804688 0 35.828125 0 C 35.359375 -0.34375 34.78125 -0.539062 34.09375 -0.59375 C 33.40625 -0.65625 32.660156 -0.6875 31.859375 -0.6875 C 31.398438 -0.6875 30.65625 -0.65625 29.625 -0.59375 C 28.59375 -0.539062 27.90625 -0.457031 27.5625 -0.34375 C 20.09375 -0.113281 13.257812 -0.113281 7.0625 -0.34375 C 6.03125 -2.175781 5.570312 -5.101562 5.6875 -9.125 C 5.914062 -9.582031 6.085938 -10.125 6.203125 -10.75 C 6.316406 -11.382812 6.316406 -12.164062 6.203125 -13.09375 C 6.085938 -13.894531 6.03125 -14.640625 6.03125 -15.328125 C 6.03125 -16.015625 6.03125 -16.757812 6.03125 -17.5625 L 6.03125 -102.640625 C 6.03125 -103.554688 6.054688 -104.789062 6.109375 -106.34375 C 6.171875 -107.894531 6.203125 -109.703125 6.203125 -111.765625 L 6.375 -120.890625 C 6.257812 -121.472656 6.054688 -122.796875 5.765625 -124.859375 C 5.484375 -126.921875 5.570312 -128.414062 6.03125 -129.34375 L 7.578125 -130.890625 C 8.148438 -130.890625 8.75 -130.859375 9.375 -130.796875 C 10.007812 -130.742188 10.671875 -130.71875 11.359375 -130.71875 C 12.171875 -130.71875 12.976562 -130.71875 13.78125 -130.71875 C 14.582031 -130.71875 15.382812 -130.773438 16.1875 -130.890625 L 25.484375 -130.890625 C 26.054688 -130.773438 26.628906 -130.71875 27.203125 -130.71875 C 27.785156 -130.71875 28.421875 -130.660156 29.109375 -130.546875 L 32.546875 -130.203125 C 33.921875 -130.429688 35.15625 -130.601562 36.25 -130.71875 C 37.34375 -130.832031 38.289062 -130.890625 39.09375 -130.890625 C 40.46875 -129.046875 41.097656 -126.691406 40.984375 -123.828125 C 41.328125 -123.367188 41.5 -122.332031 41.5 -120.71875 C 41.5 -119.34375 41.328125 -118.367188 40.984375 -117.796875 C 40.410156 -115.847656 39.035156 -114.757812 36.859375 -114.53125 C 36.515625 -114.875 35.878906 -115.21875 34.953125 -115.5625 L 33.578125 -113.5 L 33.40625 -114.875 L 33.921875 -115.734375 L 32.03125 -115.734375 C 31.6875 -115.734375 30.820312 -115.675781 29.4375 -115.5625 C 28.0625 -115.445312 26.226562 -115.273438 23.9375 -115.046875 C 23.476562 -114.585938 23.046875 -113.984375 22.640625 -113.234375 C 22.242188 -112.484375 21.757812 -111.59375 21.1875 -110.5625 C 21.1875 -110.101562 21.15625 -109.5 21.09375 -108.75 C 21.039062 -108.007812 21.070312 -107.179688 21.1875 -106.265625 C 21.300781 -105.222656 21.359375 -104.359375 21.359375 -103.671875 C 21.359375 -102.984375 21.359375 -102.410156 21.359375 -101.953125 C 21.359375 -100.804688 21.328125 -99.484375 21.265625 -97.984375 C 21.210938 -96.492188 21.1875 -94.945312 21.1875 -93.34375 L 21.1875 -88.859375 C 21.1875 -88.054688 21.1875 -87.335938 21.1875 -86.703125 C 21.1875 -86.078125 21.242188 -85.421875 21.359375 -84.734375 L 22.390625 -84.90625 L 21.359375 -84.046875 C 21.472656 -82.773438 21.613281 -81.625 21.78125 -80.59375 C 21.957031 -79.5625 22.101562 -78.703125 22.21875 -78.015625 C 22.90625 -77.328125 23.734375 -76.722656 24.703125 -76.203125 C 25.679688 -75.691406 26.863281 -75.320312 28.25 -75.09375 L 28.421875 -75.953125 L 29.453125 -75.78125 L 29.453125 -75.09375 C 29.910156 -75.09375 30.453125 -75.117188 31.078125 -75.171875 C 31.710938 -75.234375 32.429688 -75.320312 33.234375 -75.4375 C 34.148438 -75.550781 34.925781 -75.609375 35.5625 -75.609375 C 36.195312 -75.609375 36.742188 -75.609375 37.203125 -75.609375 L 39.09375 -75.609375 C 39.78125 -72.960938 40.148438 -70.71875 40.203125 -68.875 C 40.265625 -67.039062 39.953125 -64.804688 39.265625 -62.171875 C 37.316406 -61.023438 35.363281 -60.453125 33.40625 -60.453125 C 32.488281 -60.453125 31.539062 -60.453125 30.5625 -60.453125 C 29.59375 -60.453125 28.53125 -60.507812 27.375 -60.625 L 27.203125 -59.25 L 26 -59.421875 L 26.34375 -60.796875 C 26.226562 -60.796875 26.023438 -60.765625 25.734375 -60.703125 C 25.453125 -60.648438 25.195312 -60.679688 24.96875 -60.796875 C 24.625 -60.910156 24.164062 -60.96875 23.59375 -60.96875 C 23.476562 -60.851562 23.390625 -60.765625 23.328125 -60.703125 C 23.273438 -60.648438 23.132812 -60.507812 22.90625 -60.28125 L 21.875 -59.25 C 21.53125 -58.664062 21.242188 -57.972656 21.015625 -57.171875 C 20.785156 -56.367188 20.726562 -55.394531 20.84375 -54.25 C 20.84375 -53.789062 20.84375 -53.300781 20.84375 -52.78125 C 20.84375 -52.269531 20.898438 -51.726562 21.015625 -51.15625 C 21.128906 -47.820312 21.128906 -43.972656 21.015625 -39.609375 C 20.898438 -35.242188 20.957031 -30.851562 21.1875 -26.4375 C 21.414062 -22.019531 21.875 -17.972656 22.5625 -14.296875 C 24.851562 -12.566406 27.4375 -11.820312 30.3125 -12.0625 L 39.265625 -12.75 C 39.492188 -12.632812 39.664062 -12.488281 39.78125 -12.3125 C 39.894531 -12.144531 40.007812 -11.941406 40.125 -11.703125 C 40.351562 -11.472656 40.582031 -11.210938 40.8125 -10.921875 C 41.039062 -10.640625 41.269531 -10.328125 41.5 -9.984375 Z M 24.453125 -114.015625 L 24.109375 -114.015625 L 24.109375 -114.875 L 24.625 -114.1875 Z M 28.421875 -76.296875 L 29.109375 -77.328125 L 29.625 -77.328125 L 30.65625 -76.8125 L 30.484375 -76.46875 L 29.453125 -76.125 Z M 34.609375 -75.609375 L 34.09375 -75.609375 L 34.265625 -76.8125 L 34.609375 -76.8125 Z M 34.609375 -75.609375 "/></g></g></g></g></g></g></svg>