<svg xmlns="http://www.w3.org/2000/svg" width="2000" height="857" viewBox="0 0 2000 857" version="1.1">
	<path d="M 1936.153 298.158 C 1931.037 300.124, 1930.827 300.348, 1931.293 303.356 C 1931.996 307.895, 1934.910 321.944, 1935.938 325.757 C 1936.684 328.521, 1936.494 329.241, 1934.686 330.507 C 1931.120 333.005, 1927.802 332.255, 1921.480 327.525 C 1912.431 320.753, 1909.894 319.610, 1905.672 320.402 C 1901.299 321.222, 1899.391 323.994, 1901.056 327.105 C 1902.594 329.978, 1901.375 335.784, 1898.416 339.683 C 1895.421 343.630, 1895.391 345.192, 1898.250 348.463 C 1899.991 350.454, 1902.275 351.373, 1908.338 352.519 C 1912.649 353.333, 1917.911 354, 1920.031 354 C 1923.891 354, 1927 356.558, 1927 359.732 C 1927 361.144, 1916.406 374.808, 1911.787 379.353 C 1907.605 383.468, 1908.295 386.524, 1914.454 391.168 C 1917.178 393.223, 1920.252 396.550, 1921.284 398.561 C 1922.973 401.855, 1923.462 402.158, 1926.205 401.609 C 1927.880 401.274, 1929.638 401, 1930.113 401 C 1930.588 401, 1931.266 399.191, 1931.619 396.980 C 1931.984 394.697, 1933.957 390.592, 1936.186 387.480 C 1939.370 383.034, 1939.775 382, 1938.333 382 C 1936.820 382, 1936.886 381.768, 1938.777 380.443 C 1940.011 379.579, 1941 377.832, 1941 376.517 C 1941 373.995, 1942.857 373.127, 1946.750 373.828 C 1948.515 374.146, 1949.002 374.908, 1949.011 377.367 C 1949.018 379.279, 1950.767 383.422, 1953.500 388 C 1955.963 392.125, 1957.983 396.187, 1957.989 397.027 C 1957.995 397.868, 1958.718 399.580, 1959.595 400.832 C 1960.850 402.624, 1961.970 403.044, 1964.843 402.805 C 1967.956 402.545, 1968.755 401.950, 1970.239 398.787 C 1971.384 396.345, 1973.859 393.872, 1977.464 391.566 C 1985.022 386.731, 1985.627 384.010, 1980.228 379.144 C 1978.004 377.140, 1974.399 373.025, 1972.215 370 C 1970.032 366.975, 1967.065 363.409, 1965.623 362.076 C 1962.409 359.105, 1962.308 356.993, 1965.250 354.255 C 1967.830 351.855, 1977.898 349, 1983.784 349 C 1991.988 349, 1994.524 343.250, 1989.512 336.017 C 1986.760 332.046, 1986.547 329.370, 1988.500 323.299 C 1989.073 321.517, 1988.590 320.721, 1985.966 319.126 C 1981.817 316.603, 1980.238 317.197, 1970.465 324.964 C 1962.838 331.025, 1960.517 331.882, 1956.934 329.965 C 1954.864 328.857, 1954.207 323.608, 1956 322.500 C 1956.550 322.160, 1957.011 319.546, 1957.024 316.691 C 1957.037 313.836, 1957.442 309.802, 1957.924 307.726 C 1959.290 301.842, 1958.400 300.294, 1952.354 298.031 C 1945.650 295.523, 1942.958 295.544, 1936.153 298.158 M 257.500 307.487 C 253.650 308.814, 249.536 309.922, 248.357 309.950 C 247.178 309.977, 245.917 310.775, 245.553 311.722 C 245.011 313.134, 244.737 313.193, 244.032 312.051 C 242.829 310.105, 239.390 312.493, 230.689 321.315 C 219.828 332.329, 217.810 335.548, 218.574 340.643 C 219.121 344.292, 218.792 345.518, 216.264 349.264 L 213.317 353.631 213.760 382.065 C 214.167 408.212, 214.364 410.780, 216.204 413.981 C 218.157 417.377, 218.197 418.946, 217.857 478.481 L 217.509 539.500 220.365 544.367 C 221.936 547.044, 225.550 551.994, 228.397 555.367 C 231.243 558.740, 234.615 563.204, 235.890 565.286 C 239.368 570.968, 248.414 575.112, 261.253 576.906 C 268.805 577.962, 277.801 576.316, 290.397 571.575 C 299.612 568.107, 302.784 565.670, 303.575 561.454 C 303.932 559.549, 305.592 556.102, 307.263 553.795 C 308.935 551.488, 310.710 547.777, 311.207 545.550 C 311.705 543.322, 313.443 540.122, 315.070 538.437 L 318.029 535.375 318.082 439.620 L 318.134 343.865 315.699 340.672 C 314.360 338.917, 312.924 335.910, 312.509 333.990 C 311.676 330.141, 307.829 322.039, 304.788 317.727 C 302.261 314.146, 297.527 311.781, 286.452 308.568 C 273.422 304.788, 266.124 304.515, 257.500 307.487 M 805.500 307.549 C 801.650 308.842, 797.536 309.922, 796.357 309.950 C 795.178 309.977, 793.917 310.775, 793.553 311.722 C 793.011 313.134, 792.737 313.193, 792.032 312.051 C 790.772 310.013, 787.145 312.661, 777.306 322.800 C 767.816 332.579, 765.814 336.077, 766.673 341.372 C 767.174 344.457, 766.768 345.801, 764.279 349.294 L 761.283 353.500 761.743 382 C 762.166 408.175, 762.366 410.784, 764.200 413.975 C 766.147 417.362, 766.189 418.982, 765.862 478.482 L 765.526 539.515 768.206 544.008 C 769.680 546.478, 772.939 550.975, 775.449 554 C 777.958 557.025, 781.407 561.653, 783.113 564.284 C 787.483 571.027, 796.364 575.326, 809.304 576.965 C 816.901 577.927, 826.001 576.241, 838.397 571.575 C 847.365 568.200, 850.698 565.699, 851.512 561.736 C 851.877 559.956, 853.636 556.250, 855.421 553.500 C 857.206 550.750, 858.975 546.937, 859.353 545.027 C 859.730 543.118, 861.391 540.160, 863.043 538.455 L 866.048 535.355 866.087 439.604 L 866.126 343.853 863.695 340.667 C 862.358 338.914, 860.931 335.910, 860.524 333.990 C 859.372 328.563, 853.023 317.152, 849.929 314.949 C 843.904 310.659, 823.795 304.857, 815.792 305.100 C 813.981 305.155, 809.350 306.257, 805.500 307.549 M 1815.500 307.487 C 1811.650 308.814, 1807.536 309.922, 1806.357 309.950 C 1805.178 309.977, 1803.936 310.726, 1803.595 311.613 C 1803.119 312.854, 1802.660 312.963, 1801.606 312.088 C 1800.528 311.194, 1798.978 312.001, 1794.367 315.856 C 1788.162 321.044, 1779.156 330.930, 1777.085 334.825 C 1776.345 336.218, 1776.100 338.633, 1776.475 340.850 C 1776.990 343.902, 1776.584 345.319, 1774.152 348.939 L 1771.205 353.328 1771.735 381.914 C 1772.131 403.230, 1772.614 411.187, 1773.633 413.200 C 1774.745 415.396, 1775 427.329, 1775 477.091 C 1775 546.748, 1774.258 540.586, 1784.082 552.500 C 1786.803 555.800, 1790.611 560.862, 1792.544 563.748 C 1797.837 571.651, 1809.639 576.838, 1823 577.136 C 1830.053 577.293, 1834.463 576.361, 1846 572.279 C 1857.126 568.342, 1859.609 566.596, 1861.351 561.482 C 1862.178 559.057, 1864.167 555.144, 1865.773 552.786 C 1867.379 550.429, 1868.995 546.937, 1869.366 545.027 C 1869.736 543.118, 1871.388 540.163, 1873.036 538.462 L 1876.034 535.370 1876.062 440.052 L 1876.089 344.733 1873.619 341.001 C 1872.261 338.948, 1870.632 335.296, 1870 332.884 C 1869.368 330.473, 1867.084 325.495, 1864.924 321.822 C 1861.575 316.128, 1860.215 314.774, 1855.702 312.639 C 1848.808 309.377, 1836.065 306.032, 1828.500 305.498 C 1823.938 305.176, 1820.823 305.652, 1815.500 307.487 M 1712 308.187 C 1710.625 308.771, 1704.290 309.305, 1697.923 309.374 C 1686.884 309.494, 1686.118 309.641, 1681.443 312.530 C 1677.451 314.998, 1676.205 316.484, 1674.734 320.530 C 1673.740 323.264, 1672.002 326.281, 1670.870 327.236 C 1668.326 329.383, 1666.752 334.512, 1663.467 351.361 C 1660.073 368.764, 1659.231 386.017, 1659.117 440.500 C 1658.935 527.760, 1662.082 550.287, 1676.338 563.752 C 1684.481 571.443, 1693.265 572.568, 1714 568.574 C 1718.125 567.779, 1724.732 566.697, 1728.681 566.169 C 1739.068 564.781, 1745.657 561.384, 1753.558 553.343 L 1760.282 546.500 1760.891 538 C 1761.226 533.325, 1761.079 520.725, 1760.565 510 C 1759.452 486.799, 1759.329 471.575, 1760 439.855 L 1760.500 416.209 1757.339 411.855 L 1754.177 407.500 1740.339 407.585 C 1732.727 407.631, 1724.582 408.213, 1722.237 408.877 C 1716.590 410.476, 1711.517 415.080, 1709.457 420.474 C 1707.726 425.007, 1705.963 425.525, 1703.327 422.274 C 1702.068 420.723, 1702.138 419.915, 1705.095 401.889 C 1707.461 387.470, 1707.448 383.679, 1705 373 C 1703.928 368.325, 1703.040 362.894, 1703.026 360.932 C 1702.996 356.743, 1705.359 348.259, 1707.292 345.615 C 1708.567 343.872, 1708.828 343.860, 1711.806 345.399 C 1715.965 347.551, 1717.595 351.002, 1718.465 359.500 C 1718.976 364.496, 1720.080 368.146, 1722.321 372.250 C 1725.450 377.978, 1725.480 378, 1730.120 378 C 1737.477 378, 1750.881 375.093, 1754.598 372.692 C 1759.159 369.746, 1761.461 363.586, 1761.388 354.524 C 1761.303 343.895, 1759.636 339.269, 1753.955 333.898 C 1750.812 330.926, 1748.334 327.384, 1746.961 323.900 C 1745.791 320.933, 1744.336 317.905, 1743.727 317.171 C 1741.676 314.699, 1730.795 309.853, 1724.122 308.438 C 1716.374 306.796, 1715.330 306.775, 1712 308.187 M 1125 309.682 C 1111.362 310.306, 1110.199 310.688, 1107.852 315.313 C 1106.683 317.616, 1104.689 320.741, 1103.422 322.258 C 1102.154 323.774, 1099.953 328.724, 1098.531 333.258 C 1095.455 343.064, 1092.787 348.583, 1091.270 348.278 C 1090.663 348.155, 1089.857 349.886, 1089.479 352.124 C 1089.101 354.362, 1087.547 358.560, 1086.025 361.452 C 1084.504 364.344, 1082.661 369.046, 1081.929 371.899 C 1081.198 374.753, 1080.084 377.515, 1079.454 378.038 C 1078.021 379.228, 1071.226 380.583, 1072.252 379.475 C 1072.666 379.028, 1072.271 377.852, 1071.374 376.861 C 1070.255 375.624, 1069.719 373.092, 1069.665 368.780 C 1069.571 361.360, 1071.509 344.095, 1073.042 338.701 C 1073.823 335.949, 1073.810 333.399, 1072.991 329.457 C 1072.370 326.463, 1072.141 323.130, 1072.484 322.051 C 1073.228 319.705, 1071.203 312.414, 1069.390 310.908 C 1068.469 310.144, 1066.025 310.276, 1060.802 311.370 C 1056.786 312.212, 1050.051 313.182, 1045.835 313.527 C 1034.754 314.434, 1034.621 314.659, 1035.358 331.208 C 1036.581 358.650, 1037.789 374.645, 1038.982 379.201 C 1040.002 383.095, 1039.937 385.516, 1038.606 393.324 C 1036.711 404.442, 1036.584 410.228, 1038.130 415.007 C 1038.910 417.417, 1039.368 439.419, 1039.608 485.948 C 1039.934 549.255, 1040.064 553.457, 1041.728 554.401 C 1042.702 554.954, 1049.067 555.471, 1055.872 555.551 C 1067.388 555.685, 1068.425 555.538, 1070.872 553.434 C 1073.435 551.228, 1073.507 550.844, 1073.768 537.836 C 1073.916 530.501, 1074.080 522.475, 1074.134 520 C 1074.188 517.525, 1073.753 510.550, 1073.167 504.500 C 1071.781 490.188, 1071.737 474.488, 1073.069 469.691 C 1074.041 466.191, 1074.384 465.908, 1077.313 466.191 C 1080.104 466.462, 1080.690 467.060, 1082.027 471 C 1082.867 473.475, 1084.509 477.525, 1085.678 480 C 1086.846 482.475, 1088.295 487.761, 1088.897 491.746 C 1089.607 496.446, 1090.671 499.671, 1091.924 500.924 C 1092.987 501.987, 1094.167 505.026, 1094.548 507.678 C 1094.929 510.330, 1096.311 513.932, 1097.620 515.683 C 1098.929 517.434, 1099.999 519.684, 1099.998 520.683 C 1099.998 521.682, 1101.974 526.775, 1104.391 532 C 1106.807 537.225, 1109.565 543.388, 1110.519 545.695 C 1113.061 551.842, 1116.046 554.240, 1121.195 554.275 C 1130.011 554.335, 1145.562 553.283, 1147.359 552.506 C 1150.782 551.026, 1149.161 542.115, 1143.266 530 C 1140.456 524.225, 1137.648 517.848, 1137.027 515.830 C 1136.406 513.811, 1135.246 511.619, 1134.449 510.958 C 1133.652 510.296, 1133 508.490, 1133 506.943 C 1133 505.396, 1132.561 502.976, 1132.025 501.565 C 1131.251 499.530, 1131.354 499, 1132.525 499 C 1133.336 499, 1134 498.295, 1134 497.433 C 1134 496.290, 1133.425 496.048, 1131.875 496.540 C 1130.569 496.954, 1129.986 496.831, 1130.364 496.220 C 1130.702 495.674, 1130.313 494.675, 1129.500 494 C 1127.731 492.532, 1128.460 490.856, 1130.524 491.647 C 1131.342 491.962, 1132.256 491.498, 1132.604 490.591 C 1133.021 489.504, 1131.902 487.748, 1129.193 485.237 C 1125.141 481.480, 1122.827 476.434, 1112.947 449.808 C 1111.377 445.577, 1108.890 439.743, 1107.420 436.843 C 1098.252 418.750, 1098.125 413.370, 1106.477 397.072 C 1109.457 391.257, 1113.193 383.575, 1114.779 380 C 1116.365 376.425, 1120.368 368.550, 1123.673 362.500 C 1126.978 356.450, 1130.253 349.770, 1130.950 347.655 C 1133.053 341.276, 1138.811 329.401, 1140.469 328.026 C 1142.455 326.377, 1146.005 318.396, 1145.985 315.623 C 1145.976 314.455, 1145.630 312.966, 1145.214 312.313 C 1144.043 310.471, 1139.251 308.980, 1135.185 309.193 C 1133.158 309.299, 1128.575 309.519, 1125 309.682 M 330.049 311.441 C 329.143 312.533, 329.273 313.053, 330.645 313.821 C 332.261 314.725, 332.444 318.122, 332.950 356.652 C 333.253 379.668, 333.265 435.400, 332.977 480.500 C 332.402 570.690, 332.162 566.801, 338.449 569.020 C 340.127 569.613, 346.428 570.536, 352.450 571.071 C 362.451 571.960, 363.557 571.887, 365.211 570.234 C 366.935 568.509, 366.977 565.954, 366.098 516.185 C 365.539 484.479, 365.537 462.640, 366.094 460.623 C 367.663 454.939, 370.019 453.613, 377.210 454.364 C 380.639 454.723, 383.990 455.575, 384.656 456.258 C 387.525 459.199, 388.237 473.849, 387.366 512 C 386.337 557.097, 386.385 559.489, 388.396 564.187 C 389.799 567.465, 390.501 567.964, 394.737 568.687 C 403.092 570.113, 418.131 569.571, 421.645 567.717 L 424.789 566.058 425.534 551.279 C 426.193 538.192, 426.037 535.412, 424.174 527 C 422.178 517.988, 422.146 517.012, 423.546 508 C 425.772 493.676, 426.530 451.017, 424.933 430 C 423.594 412.381, 423.356 332.571, 424.609 320.987 C 425.106 316.385, 424.872 315.064, 423.188 312.987 C 421.218 310.557, 420.858 310.500, 407.493 310.500 C 399.969 310.500, 393.604 310.837, 393.348 311.250 C 393.092 311.663, 391.599 312, 390.031 312 L 387.180 312 386.447 320.750 C 386.044 325.563, 386.035 347.586, 386.427 369.691 C 386.819 391.796, 386.836 411.913, 386.463 414.396 C 385.793 418.866, 385.742 418.916, 381.143 419.614 C 372.367 420.945, 369.860 420.562, 367.437 417.523 C 365.471 415.058, 364.723 414.786, 361.348 415.305 C 359.232 415.631, 355.925 415.516, 354 415.051 C 351.100 414.350, 351.845 414.187, 358.353 414.102 L 366.205 414 366.011 368.250 C 365.904 343.087, 366.117 320.700, 366.485 318.500 C 366.959 315.656, 366.720 313.922, 365.658 312.500 C 364.283 310.659, 362.852 310.482, 347.687 310.271 C 334.584 310.090, 330.972 310.329, 330.049 311.441 M 1373.668 310.807 C 1369.897 311.262, 1368.898 313.857, 1364.913 333.550 C 1363.137 342.322, 1361.248 349.787, 1360.714 350.138 C 1360.181 350.489, 1360.069 351.302, 1360.466 351.945 C 1361.563 353.720, 1360.159 358, 1358.481 358 C 1357.666 358, 1357 358.450, 1357 359 C 1357 359.550, 1357.675 360, 1358.500 360 C 1359.325 360, 1359.999 360.113, 1359.999 360.250 C 1359.983 363.560, 1355.480 381.209, 1349.474 401.500 C 1345.685 414.299, 1334.929 456.673, 1332.974 466.500 C 1331.989 471.450, 1330.284 479.100, 1329.184 483.500 C 1328.084 487.900, 1326.449 495.942, 1325.550 501.372 C 1324.651 506.802, 1322.324 517.377, 1320.380 524.872 C 1318.435 532.367, 1315.754 542.720, 1314.422 547.878 C 1309.763 565.918, 1311.174 569.342, 1323.271 569.359 C 1333.075 569.373, 1341.157 568.986, 1343.152 568.407 C 1344.403 568.044, 1344.968 566.175, 1345.480 560.714 C 1346.929 545.239, 1352.978 522.905, 1356.289 520.800 C 1357.829 519.821, 1380.198 519.871, 1385.500 520.865 C 1387.700 521.278, 1390.985 521.224, 1392.800 520.747 C 1394.897 520.195, 1397.333 520.285, 1399.479 520.993 C 1403.043 522.169, 1403.798 524.048, 1405.602 536.227 C 1405.950 538.577, 1407.245 542.300, 1408.479 544.500 C 1410.050 547.301, 1410.924 551.011, 1411.395 556.880 C 1411.766 561.488, 1412.485 566.037, 1412.994 566.988 C 1414.175 569.195, 1419.971 570, 1434.689 570 C 1447.689 570, 1452 568.644, 1452 564.554 C 1452 563.237, 1450.425 556.688, 1448.500 550 C 1445.969 541.208, 1444.997 535.854, 1444.988 530.670 C 1444.982 526.727, 1444.312 521.025, 1443.500 518 C 1442.688 514.975, 1442.018 511.098, 1442.012 509.385 C 1442.005 507.672, 1441.168 505.197, 1440.151 503.885 C 1439.065 502.483, 1438.047 498.987, 1437.683 495.404 C 1437.342 492.051, 1435.644 485.764, 1433.909 481.433 C 1432.175 477.101, 1429.493 467.469, 1427.949 460.029 C 1426.405 452.588, 1421.772 432.100, 1417.654 414.500 C 1413.537 396.900, 1409.847 378.965, 1409.456 374.644 C 1409.065 370.324, 1407.626 363.799, 1406.259 360.144 C 1404.891 356.490, 1403.443 349.900, 1403.042 345.500 C 1402.559 340.217, 1401.469 335.778, 1399.833 332.430 C 1398.470 329.642, 1396.277 323.631, 1394.960 319.074 L 1392.566 310.787 1387.654 311.259 C 1384.952 311.519, 1381.338 311.446, 1379.621 311.098 C 1377.904 310.750, 1375.226 310.619, 1373.668 310.807 M 1617 313.752 L 1613.500 315.500 1613.734 369 C 1613.863 398.425, 1613.522 454.873, 1612.975 494.441 C 1612.429 534.008, 1612.344 566.744, 1612.787 567.187 C 1613.230 567.630, 1616.106 568.457, 1619.177 569.025 C 1624.113 569.937, 1625.646 569.769, 1632.355 567.579 C 1636.531 566.216, 1641.530 564.804, 1643.465 564.441 C 1646.551 563.862, 1647.118 563.276, 1648.091 559.662 C 1648.884 556.717, 1648.905 553.255, 1648.164 547.521 C 1647.352 541.230, 1647.467 536.825, 1648.700 527.095 C 1650.158 515.583, 1650.146 513.846, 1648.534 502.954 C 1646.926 492.089, 1646.882 486.249, 1647.939 424.358 C 1648.764 376.034, 1648.778 355.975, 1647.991 352 C 1647.315 348.582, 1647.131 340.823, 1647.507 331.500 C 1647.849 323.015, 1647.716 315.926, 1647.202 315.178 C 1644.826 311.723, 1623.113 310.698, 1617 313.752 M 444.848 316.155 L 440.196 318.169 439.522 331.335 C 439.152 338.576, 438.909 353.050, 438.982 363.500 C 439.264 403.526, 439.027 437.998, 438.385 450.407 C 437.941 458.998, 438.152 466.595, 439.017 473.129 C 440.035 480.820, 440.068 485.061, 439.171 492.722 C 438.440 498.961, 438.341 504.672, 438.896 508.500 C 439.413 512.056, 439.377 518.370, 438.809 524 C 438.281 529.225, 437.871 538.783, 437.896 545.240 C 437.922 551.698, 437.546 559.107, 437.061 561.705 C 436.332 565.607, 436.521 567.100, 438.148 570.290 C 440.824 575.535, 445.171 577.230, 456.328 577.381 C 463.807 577.482, 465.360 577.221, 466.494 575.673 C 468.721 572.634, 469.321 557.985, 468.425 528.511 C 467.306 491.717, 467.344 487.287, 468.826 482.250 C 470.989 474.902, 475.910 477.202, 479.445 487.212 C 480.472 490.120, 482.151 493.708, 483.177 495.184 C 484.203 496.660, 485.656 499.609, 486.407 501.737 C 487.158 503.865, 489.399 509.080, 491.386 513.325 C 493.374 517.570, 495 521.312, 495 521.640 C 495 521.968, 496.753 526.129, 498.895 530.886 C 501.038 535.644, 504.896 546.500, 507.471 555.011 C 510.045 563.521, 512.326 570.659, 512.539 570.872 C 512.752 571.086, 517.111 572.272, 522.224 573.508 C 538.788 577.512, 547 574.267, 547 563.715 C 547 559.654, 546.657 558.723, 545 558.290 C 542.638 557.672, 542.382 556.174, 544.500 555.362 C 545.800 554.863, 546 549.190, 546 512.725 C 546 485.767, 546.409 468.316, 547.139 464.126 C 548.015 459.096, 547.981 455.020, 546.995 446.455 C 545.979 437.632, 545.961 433.345, 546.912 425.794 C 547.999 417.154, 547.911 415.220, 545.965 405.047 C 544.579 397.801, 544.019 392, 544.383 388.664 C 546.041 373.515, 546.879 348.060, 545.919 342.024 C 545.353 338.462, 545.189 332.751, 545.555 329.333 C 546.131 323.955, 545.935 322.717, 544.098 320.137 C 540.741 315.423, 534.690 313.647, 523.989 314.236 C 510.716 314.966, 511.328 313.787, 511.536 338.240 C 511.777 366.665, 512.850 380.650, 515.138 385.210 C 517.602 390.119, 517.520 391.027, 513.986 398.029 C 511.220 403.507, 510.699 404, 507.674 404 C 505.681 404, 503.463 403.148, 502.066 401.847 C 499.409 399.371, 495.580 391.189, 493.836 384.259 C 493.177 381.642, 491.127 376.229, 489.280 372.232 C 487.433 368.234, 485.050 361.456, 483.983 357.170 C 482.021 349.288, 478.067 340.159, 470.166 325.273 L 465.833 317.107 460.166 316.004 C 450.328 314.089, 449.601 314.097, 444.848 316.155 M 662.500 315.656 C 659.750 316.528, 657.169 317.750, 656.765 318.371 C 655.575 320.200, 655.924 329.832, 657.531 339.500 C 658.353 344.450, 659.281 354.125, 659.592 361 C 659.902 367.875, 660.684 374.586, 661.328 375.914 C 662.242 377.796, 662.225 378.420, 661.250 378.747 C 660.272 379.075, 659.982 391.150, 659.917 434.333 C 659.842 484.303, 658.910 523.273, 657.438 538 C 656.933 543.056, 657.134 543.794, 659.932 547.147 L 662.976 550.794 676.376 551.512 C 694.779 552.497, 699 550.945, 699 543.191 C 699 541.574, 698.401 538.507, 697.668 536.376 C 696.652 533.419, 696.407 525.863, 696.637 504.500 C 696.802 489.100, 696.510 474.099, 695.987 471.165 C 694.667 463.756, 696.553 460, 701.591 460 C 705.907 460, 708.564 461.325, 710.161 464.273 C 711.022 465.863, 711.431 476.272, 711.590 500.688 C 711.822 536.191, 712.053 539.145, 715.049 545.067 C 718.146 551.187, 719.321 551.649, 725.385 549.136 C 729.481 547.438, 732.473 546.978, 738.680 547.091 C 743.085 547.171, 747.640 546.728, 748.801 546.106 C 751.813 544.494, 753.116 538.881, 751.928 532.633 C 751.391 529.810, 750.858 516.700, 750.744 503.500 C 750.616 488.664, 750.149 479.229, 749.523 478.789 C 748.898 478.351, 749.186 477.585, 750.275 476.788 C 751.939 475.571, 751.947 475.184, 750.405 469.999 C 748.816 464.652, 748.884 455.937, 750.571 448.823 C 751.139 446.427, 750.747 445.916, 746.853 443.963 C 736.367 438.705, 734.297 433.245, 740.600 427.472 C 744.146 424.224, 744.213 424.018, 745.015 413.837 C 745.463 408.152, 745.601 398.775, 745.321 393 C 745.041 387.225, 745.210 377.775, 745.696 372 C 746.704 360.023, 745.830 339.776, 744.002 332.758 C 742.920 328.605, 741.928 327.394, 736.011 323.008 C 731.671 319.791, 728.226 317.987, 726.378 317.963 C 724.795 317.943, 720.526 317.351, 716.892 316.647 C 712.622 315.820, 707.845 315.624, 703.392 316.095 C 699.601 316.495, 694.287 316.410, 691.582 315.906 C 681.829 314.086, 667.828 313.966, 662.500 315.656 M 950.117 316.358 C 949.177 317.492, 948.899 345.597, 948.892 440.255 C 948.887 507.592, 949.195 563.929, 949.576 565.448 L 950.270 568.210 976.885 567.895 C 991.523 567.721, 1004.490 567.922, 1005.701 568.341 C 1006.911 568.761, 1009.692 568.622, 1011.880 568.032 C 1015.126 567.158, 1016.064 566.335, 1016.982 563.555 C 1018.678 558.417, 1018.005 549.988, 1015.640 546.756 L 1013.633 544.012 1002.566 544.629 C 990.023 545.327, 983.799 544.166, 981.566 540.711 C 979.189 537.033, 978.082 521.118, 977.915 488.239 L 977.757 456.979 980.128 453.462 C 982.066 450.590, 982.947 450.055, 984.938 450.539 C 986.279 450.866, 987.952 451.890, 988.656 452.816 C 989.850 454.387, 989.939 454.382, 989.968 452.750 C 989.996 451.231, 991.061 451, 998.032 451 C 1008.681 451, 1012.521 449.389, 1013.925 444.330 C 1015.287 439.424, 1015.285 433.426, 1013.917 427.049 L 1012.834 422 1008.417 422 C 1005.558 422, 1003.995 421.559, 1003.985 420.750 C 1003.973 419.791, 1003.792 419.780, 1003.205 420.703 C 1002.154 422.357, 994 423.619, 994 422.128 C 994 421.508, 994.450 421, 995 421 C 995.550 421, 996 420.550, 996 420 C 996 418.138, 993.139 418.986, 992.487 421.042 C 991.767 423.309, 990.107 423.120, 984.044 420.082 C 980.160 418.135, 978.585 414.145, 979.192 407.784 C 979.390 405.703, 979.203 404, 978.776 404 C 978.349 404, 978 392.593, 978 378.650 L 978 353.300 981.006 349.150 C 983.268 346.028, 984.692 344.998, 986.756 344.993 C 988.265 344.989, 992.512 344.701, 996.193 344.354 C 1002.857 343.724, 1002.883 343.732, 1002.369 346.111 C 1001.897 348.290, 1001.976 348.349, 1003.260 346.786 C 1004.308 345.510, 1005.577 345.219, 1008.221 345.649 C 1012.450 346.335, 1015.348 344.022, 1016.785 338.815 C 1017.849 334.959, 1016.534 321.887, 1014.697 318.052 L 1013.474 315.500 982.404 315.196 C 956.069 314.939, 951.148 315.116, 950.117 316.358 M 179.819 318.008 C 176.145 318.456, 172.166 319.130, 170.978 319.507 C 167.938 320.472, 166.172 325.427, 165.406 335.140 C 165.044 339.738, 162.289 355.425, 159.285 370 C 152.729 401.808, 149.780 428.627, 152.611 430.702 C 154.607 432.165, 153.717 435.212, 151.538 434.376 C 150.692 434.052, 150 434.236, 150 434.786 C 150 435.336, 150.704 436.056, 151.563 436.386 C 152.423 436.716, 152.846 437.440, 152.503 437.995 C 151.500 439.617, 143.688 438.006, 141.743 435.776 C 138.929 432.549, 136.963 424.038, 135.977 410.813 C 134.783 394.786, 132.707 380.497, 130.097 370.333 C 128.944 365.842, 127.994 360.442, 127.988 358.333 C 127.981 356.225, 126.856 350.453, 125.488 345.507 C 123.915 339.822, 123 333.901, 123 329.412 C 123 317.856, 121.680 317.343, 96.500 319.125 C 78.818 320.376, 78.384 320.682, 78.759 331.622 C 78.910 336.032, 78.133 344.237, 76.893 351.338 C 74.867 362.932, 73.423 382.455, 72.404 412 C 71.921 426.016, 70.916 430, 67.865 430 C 66.465 430, 65.923 431.102, 65.406 435 C 64.500 441.825, 62.965 441.321, 63.118 434.250 C 63.276 426.951, 60.321 404.065, 58.373 397.500 C 57.557 394.750, 56.002 387.325, 54.916 381 C 53.831 374.675, 52.249 367.475, 51.401 365 C 50.553 362.525, 49.448 354.228, 48.945 346.563 C 47.864 330.072, 47.034 327.115, 42.326 322.981 C 39.097 320.146, 38.398 319.935, 34.637 320.659 C 32.362 321.098, 27.659 321.328, 24.186 321.172 C 16.934 320.845, 11.426 322.336, 9.992 325.014 C 8.328 328.124, 8.877 333.471, 11.336 338.101 C 12.822 340.899, 13.891 345.047, 14.274 349.500 C 14.604 353.350, 15.563 358.425, 16.403 360.778 C 18.148 365.662, 18.604 368.868, 19.517 382.650 C 19.877 388.067, 21.257 398.240, 22.585 405.257 C 23.913 412.273, 25 419.780, 25 421.940 C 25 424.100, 26.078 431.859, 27.396 439.183 C 29.943 453.346, 30.758 459.760, 31.611 472.374 C 31.904 476.705, 32.631 481.430, 33.226 482.874 C 34.521 486.020, 34.502 485.940, 35.868 493.500 C 36.465 496.800, 37.430 504.450, 38.012 510.500 C 38.595 516.550, 39.952 525.100, 41.027 529.500 C 42.103 533.900, 43.286 542.657, 43.656 548.960 C 44.256 559.178, 44.584 560.675, 46.686 562.777 C 49 565.091, 49.346 565.128, 65.459 564.817 C 81.819 564.501, 81.884 564.491, 84.744 561.748 C 87.096 559.492, 87.934 557.331, 89.398 549.748 C 90.380 544.662, 91.581 534.875, 92.068 528 C 92.554 521.125, 93.657 513.250, 94.518 510.500 C 96.889 502.934, 97.929 492.692, 98.045 475.792 C 98.102 467.381, 98.578 458.833, 99.101 456.795 C 100.177 452.606, 104.463 447, 106.589 447 C 107.365 447, 108.052 446.212, 108.115 445.250 C 108.360 441.516, 110.125 451.921, 110.569 459.720 C 110.826 464.241, 111.926 470.766, 113.014 474.220 C 114.101 477.674, 115.469 485.900, 116.054 492.500 C 116.723 500.051, 118.057 507.386, 119.652 512.283 C 121.400 517.652, 122.454 523.854, 123.050 532.283 C 124.218 548.817, 127.640 560.666, 131.904 562.949 C 133.136 563.608, 136.518 563.844, 140.238 563.530 C 143.682 563.239, 149.002 562.798, 152.059 562.549 C 159.533 561.940, 162.846 560.550, 163.414 557.785 C 163.672 556.528, 164.164 549.875, 164.506 543 C 164.849 536.125, 165.692 529.375, 166.380 528 C 167.069 526.625, 168.126 524.600, 168.729 523.500 C 169.333 522.400, 170.355 517, 171 511.500 C 171.646 506, 173.035 496.865, 174.087 491.199 C 175.139 485.534, 176.023 479.459, 176.052 477.699 C 176.080 475.940, 177.231 470.450, 178.608 465.500 C 179.985 460.550, 181.537 452.227, 182.056 447.005 C 182.576 441.782, 183.636 435.257, 184.412 432.505 C 185.188 429.752, 186.122 425.475, 186.487 423 C 187.210 418.097, 189.230 406.790, 191.487 395 C 192.277 390.875, 193.628 380.525, 194.489 372 C 196.301 354.070, 198.605 339.394, 200.602 333.072 C 202.601 326.740, 202.439 320.301, 200.250 319.150 C 197.490 317.698, 187.128 317.119, 179.819 318.008 M 1468.710 320.599 C 1463.732 323.857, 1462.677 326.802, 1463.974 333.817 C 1464.615 337.283, 1465 366.524, 1465 411.684 C 1465 459.383, 1465.342 484, 1466.003 484 C 1466.591 484, 1466.902 486.483, 1466.753 489.992 C 1466.614 493.287, 1466.199 495.987, 1465.831 495.992 C 1465.033 496.002, 1464.452 514.079, 1464.625 533.500 C 1464.822 555.514, 1467.984 562.582, 1478.136 563.701 C 1482.024 564.129, 1482.936 563.802, 1486.500 560.697 L 1490.500 557.213 1490.212 511.356 C 1490.053 486.135, 1489.429 456.275, 1488.825 445 C 1487.410 418.585, 1487.472 414.922, 1489.394 411.205 C 1490.972 408.154, 1492.760 406.426, 1493.536 407.203 C 1494.258 407.925, 1505.125 446.356, 1506.062 451.500 C 1507.551 459.673, 1510.999 492.003, 1511.018 497.971 C 1511.028 501.012, 1511.695 507.775, 1512.500 513 C 1513.305 518.225, 1513.977 527, 1513.992 532.500 C 1514.015 540.879, 1514.403 543.323, 1516.384 547.579 C 1520.649 556.737, 1527.458 559.358, 1535.857 555.073 C 1542.348 551.762, 1542.745 550.651, 1541.611 539 C 1541.016 532.882, 1541.272 530.025, 1543.003 523.500 C 1549.524 498.913, 1551.027 491.901, 1552.471 479.335 C 1553.346 471.726, 1554.503 463.306, 1555.042 460.625 C 1555.816 456.778, 1555.704 455.113, 1554.511 452.722 C 1552.320 448.330, 1552.531 445, 1555 445 C 1556.673 445, 1557 444.333, 1557 440.926 C 1557 438.686, 1558.066 433.623, 1559.370 429.676 C 1560.673 425.729, 1561.990 419.924, 1562.295 416.776 C 1562.958 409.935, 1563.416 409.034, 1565.894 409.682 C 1568.632 410.399, 1569.045 414.093, 1568.328 431.468 L 1567.692 446.870 1571.864 447.185 C 1577.188 447.587, 1577.294 449.404, 1572.018 449.807 L 1568 450.115 1568 454.998 C 1568 457.684, 1568.472 460.174, 1569.049 460.530 C 1569.704 460.935, 1569.750 461.613, 1569.171 462.339 C 1568.654 462.987, 1568.030 481.855, 1567.759 505 C 1567.234 549.885, 1567.536 553.337, 1572.385 557.892 C 1576.084 561.367, 1580.509 561.930, 1588.801 559.982 C 1592.791 559.044, 1596.372 557.961, 1596.757 557.576 C 1597.830 556.503, 1598.184 539.381, 1598.340 481 C 1598.467 433.563, 1598.301 351.035, 1598.049 336 C 1597.941 329.600, 1594.014 320.457, 1590.956 319.486 C 1589.884 319.146, 1587.487 319.417, 1585.629 320.089 C 1583.072 321.014, 1579.972 321.059, 1572.875 320.272 L 1563.500 319.233 1560.711 322.367 C 1559.005 324.283, 1556.928 328.801, 1555.362 334 C 1553.954 338.675, 1551.497 346.248, 1549.901 350.830 C 1547.484 357.769, 1547 360.752, 1547 368.701 C 1547 376.836, 1546.419 380.250, 1543.059 391.871 C 1540.261 401.549, 1538.821 408.921, 1538.092 417.299 C 1537.279 426.646, 1536.622 429.722, 1534.930 432.098 C 1531.753 436.560, 1531.181 436.137, 1526.680 426 C 1523.048 417.817, 1522.864 416.875, 1522.538 404.708 C 1522.175 391.198, 1519.950 378.261, 1515.450 363.500 C 1513.606 357.450, 1511.590 349.350, 1510.970 345.500 C 1510.351 341.650, 1509.454 337.150, 1508.978 335.500 C 1508.502 333.850, 1507.622 330.596, 1507.023 328.268 C 1505.994 324.275, 1505.632 323.949, 1500.600 322.486 C 1496.401 321.265, 1475.309 317.897, 1473 318.078 C 1472.725 318.100, 1470.795 319.234, 1468.710 320.599 M 1167.500 319.912 C 1159.413 320.910, 1158.207 321.593, 1157.025 325.849 C 1155.657 330.776, 1155.830 345.671, 1157.306 350 C 1158.487 353.462, 1158.578 353.507, 1165.578 354.133 C 1176.305 355.092, 1178.471 355.804, 1182.300 359.633 L 1185.823 363.157 1185.364 380.828 C 1185.112 390.548, 1184.477 404.600, 1183.953 412.057 C 1183.429 419.513, 1183 430.425, 1183 436.307 L 1183 447 1187.500 447 C 1190.833 447, 1192 447.389, 1192 448.500 C 1192 449.604, 1190.848 450, 1187.630 450 L 1183.260 450 1182.729 454.712 C 1182.319 458.352, 1182.573 459.717, 1183.849 460.712 C 1185.378 461.905, 1185.369 462.102, 1183.735 463.371 C 1182.091 464.649, 1181.953 468.531, 1181.735 519.829 C 1181.531 567.677, 1181.697 575.110, 1183 576.406 C 1185.392 578.784, 1196.627 580.125, 1205.130 579.047 C 1214.877 577.811, 1215.662 577.441, 1216.405 573.724 C 1216.752 571.992, 1217.049 549.184, 1217.067 523.038 C 1217.084 496.892, 1217.367 454.407, 1217.695 428.626 C 1218.153 392.577, 1217.985 379.440, 1216.966 371.742 L 1215.641 361.733 1220.214 357.412 C 1225.771 352.162, 1228.686 351.328, 1236.122 352.864 C 1240.959 353.863, 1242.460 353.800, 1245.824 352.454 C 1249.363 351.038, 1249.844 350.438, 1250.169 347.027 C 1250.370 344.918, 1250.300 340.034, 1250.013 336.172 C 1249.326 326.930, 1246.886 324, 1239.877 324 C 1237.251 324, 1229.792 323.246, 1223.301 322.324 C 1216.811 321.402, 1207.450 320.600, 1202.500 320.542 C 1197.550 320.484, 1189 320.152, 1183.500 319.804 C 1178 319.456, 1170.800 319.505, 1167.500 319.912 M 901.754 323.161 L 899.270 326.500 899.121 356.241 C 899.009 378.640, 899.284 386.510, 900.236 388.122 C 901.201 389.755, 901.218 390.364, 900.309 390.694 C 899.418 391.018, 899.087 401.238, 898.992 431.314 C 898.922 453.416, 898.657 472.850, 898.402 474.500 C 897.275 481.783, 897.273 483.928, 898.386 491 C 899.261 496.558, 899.294 501.767, 898.514 511.119 C 897.519 523.046, 897.261 524.060, 893.814 529.613 C 889.972 535.802, 888.386 536.731, 881.375 536.900 C 879.106 536.955, 875.844 537.281, 874.125 537.625 L 871 538.250 871 552.569 C 871 571.588, 870.781 571.319, 887.884 573.264 C 901.536 574.816, 904.992 574.588, 905.015 572.133 C 905.027 570.921, 905.238 570.827, 905.837 571.770 C 906.445 572.728, 907.658 572.306, 910.768 570.053 C 913.037 568.410, 916.060 566.772, 917.486 566.414 C 921.501 565.406, 926.514 557.884, 929.658 548.148 C 931.059 543.810, 931.909 496.062, 932.279 401 C 932.361 379.828, 930.125 337.941, 928.515 330.500 C 927.682 326.651, 927 323.405, 927 323.289 C 927 322.547, 918.685 321.052, 915.429 321.208 C 913.268 321.312, 909.866 321.043, 907.869 320.610 C 904.517 319.883, 904.046 320.079, 901.754 323.161 M 596.500 322.527 C 589.350 323.300, 578.616 323.897, 572.648 323.854 C 564.044 323.792, 561.470 324.101, 560.225 325.346 C 558.405 327.167, 558.357 349.637, 560.013 424.500 C 561.191 477.758, 561.632 484.741, 563.852 485.330 C 565.199 485.688, 565.157 485.789, 563.622 485.884 C 561.839 485.994, 561.783 486.724, 562.515 500.250 C 562.940 508.087, 563.231 524.780, 563.162 537.346 L 563.037 560.191 565.881 563.035 L 568.725 565.879 582.509 565.620 L 596.292 565.362 598.753 562.500 C 600.997 559.891, 601.153 559.104, 600.521 553.570 C 600.139 550.231, 599.710 544.575, 599.568 541 C 599.425 537.425, 599.012 533.150, 598.650 531.500 C 598.288 529.850, 597.887 517.269, 597.759 503.542 L 597.525 478.584 601.012 477.885 C 602.931 477.501, 608.781 476.999, 614.014 476.770 C 622.793 476.386, 623.867 476.109, 627.914 473.177 C 630.326 471.430, 632.885 470, 633.599 470 C 635.392 470, 640.653 464.218, 642.626 460.079 C 644.758 455.604, 647.050 428.735, 646.427 415.500 C 646.169 410, 645.817 391.775, 645.646 375 C 645.298 340.804, 645.519 341.975, 637.504 331.771 C 629.323 321.356, 622.193 319.748, 596.500 322.527 M 259.444 347.450 C 257.018 348.474, 256.032 349.843, 254.660 354.088 C 249.805 369.124, 249.065 383.319, 249.796 447.500 C 250.298 491.556, 250.165 497.998, 248.760 498.015 C 247.887 498.026, 247.839 498.257, 248.604 498.765 C 249.211 499.169, 250.259 504, 250.934 509.500 C 253.226 528.192, 254.945 531.492, 263.945 534.482 C 268.896 536.126, 269.064 536.114, 273.206 533.828 C 277.407 531.510, 278.286 530.295, 281.551 522.290 C 282.922 518.928, 283.131 516.509, 282.586 510.290 C 282.211 506.005, 281.683 470.550, 281.412 431.500 C 281.088 384.721, 280.551 359.306, 279.837 357 C 277.898 350.736, 274.360 348.187, 265.500 346.672 C 263.850 346.390, 261.125 346.740, 259.444 347.450 M 807.246 347.539 C 803.844 348.969, 802.007 353.964, 799.354 369 C 797.513 379.435, 797.267 393.948, 797.821 459.476 C 798.045 485.859, 797.816 497.561, 797.071 497.810 C 796.482 498.006, 796 498.606, 796 499.142 C 796 499.679, 796.400 499.871, 796.889 499.569 C 797.377 499.267, 798.304 503.628, 798.948 509.260 C 801.078 527.874, 802.543 530.937, 810.791 534.023 C 816.176 536.038, 816.554 536.054, 820.171 534.423 C 824.963 532.262, 826.452 530.576, 828.491 525 C 831.481 516.825, 831.738 514.437, 830.547 505.903 C 829.763 500.289, 829.299 474.765, 829.148 429 C 828.997 383.069, 828.565 359.347, 827.835 357 C 826.644 353.169, 824.525 350.351, 821.695 348.837 C 818.211 346.972, 810.286 346.260, 807.246 347.539 M 1817.168 347.572 C 1810.912 350.202, 1807.620 368.491, 1807.550 401 C 1807.492 428.450, 1807.719 473.070, 1807.992 487.750 C 1808.132 495.226, 1807.855 498, 1806.969 498 C 1806.114 498, 1806.060 498.369, 1806.788 499.250 C 1807.355 499.938, 1808.490 505.998, 1809.308 512.717 C 1811.297 529.045, 1813.351 532.402, 1822.934 534.982 C 1826.739 536.007, 1827.535 535.877, 1831.429 533.595 C 1834.192 531.975, 1836.173 529.903, 1836.980 527.788 C 1837.670 525.980, 1838.904 522.982, 1839.723 521.126 C 1840.827 518.623, 1841.045 515.912, 1840.567 510.626 C 1840.212 506.707, 1839.717 472.225, 1839.467 434 C 1839.218 395.775, 1838.772 362.685, 1838.478 360.467 C 1837.779 355.199, 1834.690 350.230, 1831.250 348.838 C 1826.233 346.809, 1820.258 346.272, 1817.168 347.572 M 695.708 348.771 C 693.095 351.657, 692.275 355.088, 693.118 359.600 C 693.554 361.935, 693.977 368.717, 694.057 374.672 C 694.138 380.628, 694.254 386.850, 694.316 388.500 C 694.378 390.150, 694.097 395.100, 693.691 399.500 C 693.039 406.572, 693.189 407.881, 694.982 410.784 C 697.455 414.784, 699.352 415.616, 702.616 414.129 C 706.952 412.154, 708.194 407.253, 707.293 395.680 C 706.857 390.081, 706.767 379.437, 707.094 372.027 C 707.779 356.513, 707.126 352.381, 703.497 349.250 C 700.357 346.542, 697.864 346.388, 695.708 348.771 M 597.738 350.737 C 596.144 352.498, 596 356.199, 596 395.282 C 596 425.445, 596.339 438.649, 597.158 440.447 C 597.795 441.845, 599.779 443.852, 601.566 444.907 C 604.804 446.817, 604.824 446.816, 606.842 444.662 C 610.412 440.850, 611.063 437.446, 610.378 426.154 C 610.018 420.220, 610.265 408.798, 610.937 400.371 C 611.871 388.645, 611.874 384.259, 610.950 380.871 C 610.295 378.467, 609.827 373.125, 609.911 369 C 610.073 360.984, 608.830 352.430, 607.277 350.877 C 606.754 350.354, 604.786 349.677, 602.902 349.372 C 600.311 348.951, 599.054 349.283, 597.738 350.737 M 1378.045 417.245 C 1376.397 420.130, 1374.774 424.518, 1374.437 426.995 C 1373.361 434.915, 1370.228 447.329, 1365.446 462.620 C 1360.462 478.556, 1358.799 489.140, 1361.060 490.537 C 1361.781 490.983, 1365.326 491.178, 1368.936 490.971 C 1372.546 490.763, 1379.372 490.706, 1384.105 490.843 C 1392.231 491.079, 1392.797 490.959, 1394.292 488.678 C 1395.230 487.245, 1396.134 482.851, 1396.513 477.881 C 1397.067 470.614, 1396.736 467.706, 1394.022 456 C 1392.301 448.575, 1390.255 436.532, 1389.475 429.238 C 1387.892 414.424, 1387.049 412, 1383.485 412 C 1381.584 412, 1380.375 413.166, 1378.045 417.245 M 1711 449.813 C 1709.625 449.985, 1707.600 451.335, 1706.500 452.813 C 1704.703 455.227, 1704.493 457.128, 1704.429 471.500 C 1704.390 480.300, 1704.189 489.088, 1703.983 491.029 C 1703.777 492.969, 1703.941 495.096, 1704.348 495.755 C 1705.933 498.319, 1706.230 507.514, 1705.049 517.479 C 1703.672 529.102, 1704.478 533.820, 1708.299 536.497 C 1710.539 538.066, 1716.664 538.502, 1718.653 537.235 C 1722.156 535.004, 1724.043 499.922, 1722.017 474.688 C 1720.666 457.861, 1719.338 452.433, 1716.295 451.309 C 1715.308 450.944, 1714.275 450.388, 1714 450.073 C 1713.725 449.758, 1712.375 449.641, 1711 449.813" stroke="none" fill="black" fill-rule="evenodd"/>
</svg>